<?xml version="1.0" encoding="utf-8"?>
<!-- Generator: Adobe Illustrator 22.1.0, SVG Export Plug-In . SVG Version: 6.00 Build 0)  -->
<svg version="1.1" id="Layer_1" xmlns="http://www.w3.org/2000/svg" xmlns:xlink="http://www.w3.org/1999/xlink" x="0px" y="0px"
	 viewBox="0 0 86 86" style="enable-background:new 0 0 86 86;" xml:space="preserve">
<style type="text/css">
	.st0{fill:#D0D1D7;}
</style>
<g>
	<g>
		<g>
			<path class="st0" d="M43,0C19.3,0,0,19.3,0,43c0,11.5,4.5,22.3,12.6,30.4C20.7,81.5,31.5,86,43,86c23.7,0,43-19.3,43-43
				C86,19.3,66.7,0,43,0z M43,85c-11.2,0-21.8-4.4-29.7-12.3C5.4,64.8,1,54.2,1,43C1,19.8,19.8,1,43,1c23.2,0,42,18.8,42,42
				C85,66.2,66.2,85,43,85z"/>
		</g>
		<g>
			<g>
				<path class="st0" d="M64,58.8c3-4.5,3-10.3,0-14.6v-0.9c-0.2-0.2-0.3-0.4-0.5-0.6c-0.1-0.2-0.3-0.4-0.5-0.5
					C-0.1-0.1-0.2-0.2-0.3-0.3c-2.5-2.4-5.9-3.7-9.4-3.6c-3.6,0.1-6.9,1.6-9.4,4.2c-3.1,3.2-4.3,7.5-3.7,11.5c0,0.2,0.1,0.4,0.1,0.6
					c0,0,0,0,0,0c0.2,0.8,0.4,1.6,0.7,2.4c0.3,0.6,0.5,1.2,0.9,1.8c0.1,0.1,0.2,0.3,0.3,0.4c0.1,0.2,0.3,0.4,0.4,0.6
					c0.4,0.5,0.9,1.1,1.4,1.5c2.5,2.4,5.9,3.7,9.4,3.6c2.9-0.1,5.6-1.1,7.8-2.8c0.5-0.4,1.1-0.9,1.6-1.4c0.1-0.1,0.1-0.1,0.2-0.2
					c0.2-0.2,0.3-0.4,0.5-0.6c0.2-0.2,0.3-0.4,0.5-0.7c0,0,0,0,0-0.1l0,0V58.8z M59.6,57.9c-1.7,1.8-4,2.8-6.4,2.9
					C-2.4,0.1-4.7-0.8-6.4-2.4c-1.8-1.7-2.7-4-2.7-6.4c0-2.3,0.9-4.7,2.6-6.5c1.7-1.8,4-2.8,6.4-2.9c0.1,0,0.2,0,0.3,0
					c2.3,0,4.5,0.9,6.1,2.4C63.1,48.5,63.1,54.2,59.6,57.9z"/>
			</g>
			<g>
				<path class="st0" d="M64.8,59.9l-0.3,0.3l0,0c-0.2,0.2-0.3,0.4-0.5,0.6v0l0,0c-0.1,0.2-0.3,0.3-0.4,0.5c0,0,0,0,0,0
					C-0.1,0.1-0.1,0.1-0.2,0.2c-0.1,0.1-0.2,0.2-0.3,0.3l0,0c-0.3,0.3-0.6,0.6-1,0.9c-2.5,1.9-5.4,3-8.6,3.1H53
					C-3.7,0-7.1-1.4-9.7-3.9c-5.6-5.4-5.7-14.5-0.1-20.3c1.3-1.4,2.9-2.5,4.6-3.3c1.7-0.8,3.6-1.2,5.5-1.3c3.6-0.1,7.1,1.1,9.8,3.5
					c0.1,0.1,0.3,0.2,0.4,0.4c0,0,0.1,0.1,0.1,0.1c0.2,0.2,0.3,0.3,0.5,0.5V16.4H22v53h42v-4.9l3.2,3l1.1-1.3l0.7-0.7l0.9-1
					L64.8,59.9z M28.2,25.4h25.9c0.5,0,1,0.4,1,1c0,0.5-0.5,1-1,1H28.2c-0.5,0-1-0.5-1-1C27.2,25.9,27.6,25.4,28.2,25.4z M28.2,31.2
					h25.9c0.5,0,1,0.4,1,1c0,0.5-0.5,1-1,1H28.2c-0.5,0-1-0.5-1-1C27.2,31.7,27.6,31.2,28.2,31.2z M34.8,43.9h-6.7c-0.5,0-1-0.5-1-1
					c0-0.5,0.5-1,1-1h6.7c0.5,0,1,0.5,1,1C35.8,43.4,35.4,43.9,34.8,43.9z M37.1,38.6h-8.9c-0.5,0-1-0.5-1-1c0-0.6,0.5-1,1-1h8.9
					c0.6,0,1,0.4,1,1C38.1,38.1,37.6,38.6,37.1,38.6z"/>
				<path class="st0" d="M64,60.8L64,60.8L64,60.8C64,60.9,64,60.9,64,60.8z"/>
			</g>
			<g>
				<path class="st0" d="M64.8,59.9l-0.3,0.3C64.6,60.1,64.7,60,64.8,59.9L64.8,59.9z"/>
			</g>
		</g>
		<g>
			<g>
				<polygon class="st0" points="58.1,51.2 58.1,53.2 54.6,53.2 54.6,56.7 52.6,56.7 52.6,53.2 49.1,53.2 49.1,51.2 52.6,51.2 
					52.6,47.7 54.6,47.7 54.6,51.2 				"/>
			</g>
		</g>
	</g>
</g>
</svg>
