<?xml version="1.0" encoding="utf-8"?>
<!-- Generator: Adobe Illustrator 22.1.0, SVG Export Plug-In . SVG Version: 6.00 Build 0)  -->
<svg version="1.1" id="Layer_1" xmlns="http://www.w3.org/2000/svg" xmlns:xlink="http://www.w3.org/1999/xlink" x="0px" y="0px"
	 viewBox="0 0 587.6 99.8" style="enable-background:new 0 0 587.6 99.8;" xml:space="preserve">
<style type="text/css">
	.st0{fill:none;stroke:#E3E3E7;stroke-width:0.5;stroke-miterlimit:10;}
</style>
<g>
	<g>
		<g>
			<path class="st0" d="M0.5,0.5h34.6c19.1,0,28.7,8.2,28.7,24.5c0,11.5-4.3,19.1-12.9,22.7C61.6,51.1,67,58.8,67,70.8
				c0,9.8-2.5,16.8-7.6,20.9s-12.5,6.2-22.2,6.2H0.5V0.5z M34.8,8.2H9.2v36.3h26.9c6.5,0,11.3-1.6,14.4-4.7c3-3.1,4.6-7.8,4.6-13.9
				s-1.7-10.6-5-13.5C46.7,9.6,41.6,8.2,34.8,8.2z M36.2,52.1h-27v38.1h27.9c6.8,0,12.1-1.4,15.7-4.3c3.6-2.9,5.5-8,5.5-15.3
				C58.2,58.2,50.9,52.1,36.2,52.1z"/>
			<path class="st0" d="M148.6,97.9H95.4V0.5h8.7V90h44.6L148.6,97.9L148.6,97.9z"/>
			<path class="st0" d="M176.8,69.3c0,14.8,8.1,22.1,24.2,22.1c8.4,0,14.7-1.7,18.9-5.2s6.3-9.1,6.3-17V0.5h8.7v68.8
				c0,10.6-2.9,18.2-8.5,22.9c-5.7,4.7-14,7.1-25,7.1s-19.2-2.4-24.8-7.1s-8.3-12.4-8.3-22.9V0.5h8.5L176.8,69.3L176.8,69.3z"/>
			<path class="st0" d="M267.2,97.9V0.5h58.4v7.8h-49.7v36.2h41.3v7.7h-41.3v38h49.7v7.7C325.6,97.9,267.2,97.9,267.2,97.9z"/>
			<path class="st0" d="M361.6,97.9h-8.7V0.5h8.7v46l16.8-0.4l27-45.5h9.9L386,49.4l31.2,48.5h-10.4l-28.3-44l-17,0.3L361.6,97.9
				L361.6,97.9z"/>
			<path class="st0" d="M440.2,97.9V0.5h58.4v7.8h-49.7v36.2h41.3v7.7h-41.3v38h49.7v7.7C498.6,97.9,440.2,97.9,440.2,97.9z"/>
			<path class="st0" d="M555.5,97.9h-8.7V56.7L515.6,0.5h9.7l25.9,47.2L577,0.5h9.8l-31.2,56.2L555.5,97.9L555.5,97.9z"/>
		</g>
	</g>
</g>
</svg>
