<?xml version="1.0" encoding="utf-8"?>
<!-- Generator: Adobe Illustrator 22.1.0, SVG Export Plug-In . SVG Version: 6.00 Build 0)  -->
<svg version="1.1" id="Layer_1" xmlns="http://www.w3.org/2000/svg" xmlns:xlink="http://www.w3.org/1999/xlink" x="0px" y="0px"
	 viewBox="0 0 49.2 49.4" style="enable-background:new 0 0 49.2 49.4;" xml:space="preserve">
<style type="text/css">
	.st0{fill:none;stroke:#707584;stroke-linecap:round;stroke-miterlimit:10;}
	.st1{fill:#B8E2FF;}
</style>
<g>
	<g>
		<path class="st0" d="M35.9,25.4"/>
	</g>
	<g>
		<path class="st1" d="M8.6,41.6c-0.1,0-0.2,0-0.3-0.1c-0.1-0.1-0.2-0.3-0.2-0.4l0.9-10.3c0-0.1,0-0.2,0.1-0.3L31.7,0.2
			C31.7,0.1,31.9,0,32,0c0.1,0,0.3,0,0.4,0.1l8.9,6.6c0.2,0.2,0.3,0.5,0.1,0.7L18.8,37.7c-0.1,0.1-0.1,0.1-0.2,0.2l-9.8,3.7
			C8.8,41.6,8.7,41.6,8.6,41.6z M10,31l-0.8,9.3l8.9-3.4L40.2,7.2l-8.1-6L10,31z"/>
	</g>
	<g>
		<g>
			<path class="st1" d="M48.7,49.4H0.5c-0.3,0-0.5-0.2-0.5-0.5s0.2-0.5,0.5-0.5h48.2c0.3,0,0.5,0.2,0.5,0.5S49,49.4,48.7,49.4z"/>
		</g>
		<g>
			<path class="st1" d="M48.7,38.2H27c-0.3,0-0.5-0.2-0.5-0.5s0.2-0.5,0.5-0.5h21.7c0.3,0,0.5,0.2,0.5,0.5S49,38.2,48.7,38.2z"/>
		</g>
		<g>
			<path class="st1" d="M48.7,43.8H23c-0.3,0-0.5-0.2-0.5-0.5s0.2-0.5,0.5-0.5h25.7c0.3,0,0.5,0.2,0.5,0.5S49,43.8,48.7,43.8z"/>
		</g>
	</g>
</g>
</svg>
