<svg id="Layer_1" data-name="Layer 1" xmlns="http://www.w3.org/2000/svg" xmlns:xlink="http://www.w3.org/1999/xlink" viewBox="0 0 57.05 61.3"><defs><style>.cls-1{fill:url(#linear-gradient);}.cls-2{fill:url(#linear-gradient-2);}.cls-3{fill:url(#linear-gradient-3);}.cls-4{fill:#fff;fill-rule:evenodd;}</style><linearGradient id="linear-gradient" x1="20.3" y1="9.64" x2="48.14" y2="20.67" gradientUnits="userSpaceOnUse"><stop offset="0" stop-color="#3b81c4"/><stop offset="1" stop-color="#6fafe0"/></linearGradient><linearGradient id="linear-gradient-2" x1="27.67" y1="53.25" x2="12.26" y2="5.11" xlink:href="#linear-gradient"/><linearGradient id="linear-gradient-3" x1="45.19" y1="17.08" x2="25.06" y2="49.82" xlink:href="#linear-gradient"/></defs><title>bluekey-logo</title><path class="cls-1" d="M57.05,14.88a73.82,73.82,0,0,1-3.69,19.34c0-5.78-4.35-10.78-9.57-13.78A57.66,57.66,0,0,0,28.51,13a56.75,56.75,0,0,0-15.25,7.4C12.38,7.67,20.93,3.14,28.53,0A67.29,67.29,0,0,1,57.05,14.88Z"/><path class="cls-2" d="M28.53,47.74c-6.77,3.71-17,1.82-20.46-3.59-.19-.33-.38-.66-.56-1v0C.4,29.89,0,14.88,0,14.88A67.3,67.3,0,0,1,28.53,0c-7.6,3.14-16.15,7.67-15.27,20.44A61.37,61.37,0,0,0,16,31.34,36.42,36.42,0,0,0,22.3,42.65,21.19,21.19,0,0,0,28.53,47.74Z"/><path class="cls-3" d="M53.36,34.22C49.75,45,42.61,57,28.53,61.3c-9.8-3-16.24-9.7-20.46-17.15,3.51,5.41,13.69,7.3,20.46,3.59a21.16,21.16,0,0,0,6.22-5.09A36.42,36.42,0,0,0,41,31.34a61.37,61.37,0,0,0,2.77-10.9C49,23.44,53.36,28.44,53.36,34.22Z"/><path class="cls-4" d="M28.53,23.35a3.19,3.19,0,0,1,3.27,3.1,3.06,3.06,0,0,1-1.53,2.62l1.4,7.68H25.39l1.4-7.68a3.06,3.06,0,0,1-1.53-2.62,3.19,3.19,0,0,1,3.27-3.1Z"/></svg>