<?xml version="1.0" encoding="utf-8"?>
<!-- Generator: Adobe Illustrator 22.1.0, SVG Export Plug-In . SVG Version: 6.00 Build 0)  -->
<svg version="1.1" id="Layer_1" xmlns="http://www.w3.org/2000/svg" xmlns:xlink="http://www.w3.org/1999/xlink" x="0px" y="0px"
	 viewBox="0 0 31.3 25.8" style="enable-background:new 0 0 31.3 25.8;" xml:space="preserve">
<style type="text/css">
	.st0{fill:#256AAA;}
</style>
<g>
	<path class="st0" d="M6.6,2.4c-1,0-1.9,0.8-1.9,1.9s0.8,1.9,1.9,1.9c1,0,1.9-0.8,1.9-1.9S7.7,2.4,6.6,2.4z"/>
	<path class="st0" d="M23.7,2.4c-1,0-1.9,0.8-1.9,1.9s0.8,1.9,1.9,1.9c1,0,1.9-0.8,1.9-1.9S24.8,2.4,23.7,2.4z"/>
	<path class="st0" d="M0,0v7.7v1v17.1h30.3c0.2,0,0.3-0.1,0.4-0.2c0.3,0.1,0.6-0.2,0.6-0.5V8.7v-1V0L0,0L0,0z M30.3,24.8L30.3,24.8
		H1V8.7h29.3V24.8z M1,7.7V1h29.3v6.7H1z"/>
	<path class="st0" d="M3.3,18.8c-0.3,0-0.5,0.2-0.5,0.5s0.2,0.5,0.5,0.5H8v3.1c0,0.3,0.2,0.5,0.5,0.5S9,23.2,9,22.9v-3.1h6.4v2.6
		c0,0.3,0.2,0.5,0.5,0.5s0.5-0.2,0.5-0.5v-2.6h6.4v2.6c0,0.3,0.2,0.5,0.5,0.5s0.5-0.2,0.5-0.5v-2.6h3.7c0.3,0,0.5-0.2,0.5-0.5
		s-0.2-0.5-0.5-0.5h-3.7v-3.6h3.7c0.3,0,0.5-0.2,0.5-0.5s-0.2-0.5-0.5-0.5h-3.7v-3c0-0.3-0.2-0.5-0.5-0.5s-0.5,0.2-0.5,0.5v3h-6.4
		v-3c0-0.3-0.2-0.5-0.5-0.5s-0.5,0.2-0.5,0.5v3H9v-3.1c0-0.3-0.2-0.5-0.5-0.5S8,10.8,8,11.1v3.1H3.3c-0.3,0-0.5,0.2-0.5,0.5
		s0.2,0.5,0.5,0.5H8v3.6H3.3z M22.9,15.2v3.6h-6.4v-3.6H22.9z M9,15.2h6.4v3.6H9V15.2z"/>
</g>
</svg>
