<?xml version="1.0" encoding="utf-8"?>
<!-- Generator: Adobe Illustrator 22.1.0, SVG Export Plug-In . SVG Version: 6.00 Build 0)  -->
<svg version="1.1" id="Layer_1" xmlns="http://www.w3.org/2000/svg" xmlns:xlink="http://www.w3.org/1999/xlink" x="0px" y="0px"
	 viewBox="0 0 11.8 11.8" style="enable-background:new 0 0 11.8 11.8;" xml:space="preserve">
<style type="text/css">
	.st0{fill:#707584;}
</style>
<g>
	<g>
		<line class="st0" x1="11.3" y1="0.6" x2="0.6" y2="11.3"/>
		<path class="st0" d="M0.6,11.8c-0.1,0-0.3,0-0.4-0.1c-0.2-0.2-0.2-0.5,0-0.7L10.9,0.3c0.2-0.2,0.5-0.2,0.7,0s0.2,0.5,0,0.7L1,11.6
			C0.9,11.7,0.8,11.8,0.6,11.8z"/>
	</g>
	<g>
		<line class="st0" x1="11.1" y1="11.1" x2="0.5" y2="0.5"/>
		<path class="st0" d="M11.1,11.6c-0.1,0-0.3,0-0.4-0.1L0.1,0.9C0,0.7,0,0.3,0.1,0.1s0.5-0.2,0.7,0l10.6,10.6c0.2,0.2,0.2,0.5,0,0.7
			C11.4,11.6,11.3,11.6,11.1,11.6z"/>
	</g>
</g>
</svg>
