<?xml version="1.0" encoding="utf-8"?>
<!-- Generator: Adobe Illustrator 22.1.0, SVG Export Plug-In . SVG Version: 6.00 Build 0)  -->
<svg version="1.1" id="Layer_1" xmlns="http://www.w3.org/2000/svg" xmlns:xlink="http://www.w3.org/1999/xlink" x="0px" y="0px"
	 viewBox="0 0 15 15" style="enable-background:new 0 0 15 15;" xml:space="preserve">
<style type="text/css">
	.st0{fill:#E3EFFC;}
	.st1{fill:#707584;}
</style>
<g>
	<g>
		<line class="st0" x1="11" y1="4" x2="4" y2="11"/>
		<rect x="2.6" y="7" transform="matrix(0.7071 -0.7071 0.7071 0.7071 -3.1067 7.5002)" class="st1" width="9.9" height="1"/>
	</g>
	<g>
		<line class="st0" x1="4" y1="4" x2="11" y2="11"/>
		<rect x="7" y="2.6" transform="matrix(0.7071 -0.7071 0.7071 0.7071 -3.1067 7.5002)" class="st1" width="1" height="9.9"/>
	</g>
	<g>
		<path class="st1" d="M7.5,15C3.4,15,0,11.6,0,7.5S3.4,0,7.5,0C11.6,0,15,3.4,15,7.5S11.6,15,7.5,15z M7.5,1C3.9,1,1,3.9,1,7.5
			C1,11.1,3.9,14,7.5,14c3.6,0,6.5-2.9,6.5-6.5C14,3.9,11.1,1,7.5,1z"/>
	</g>
</g>
</svg>
