<?xml version="1.0" encoding="utf-8"?>
<!-- Generator: Adobe Illustrator 22.1.0, SVG Export Plug-In . SVG Version: 6.00 Build 0)  -->
<svg version="1.1" id="Layer_1" xmlns="http://www.w3.org/2000/svg" xmlns:xlink="http://www.w3.org/1999/xlink" x="0px" y="0px"
	 viewBox="0 0 1149 720" style="enable-background:new 0 0 1149 720;" xml:space="preserve">
<style type="text/css">
	.st0{opacity:0.9;}
	.st1{fill:#274174;}
	.st2{fill:#DDF3FF;}
	.st3{fill:#5499DA;}
	.st4{fill:none;stroke:#B1B4BD;stroke-width:0.75;stroke-miterlimit:10;}
	.st5{fill:none;stroke:#B1B4BD;stroke-width:0.75;stroke-miterlimit:10;stroke-dasharray:3.0066,3.0066;}
	.st6{fill:#D0D1D7;}
	.st7{fill:none;stroke:#D0D1D7;stroke-miterlimit:10;}
	.st8{opacity:0.35;}
	.st9{opacity:0.15;clip-path:url(#SVGID_2_);}
	.st10{opacity:0.15;}
	.st11{clip-path:url(#SVGID_4_);}
	.st12{fill:#DCDCE1;}
	.st13{fill:none;stroke:#CBCBCA;stroke-miterlimit:10;}
	.st14{fill:#D0D1D7;stroke:#FFFFFF;stroke-miterlimit:10;}
	.st15{fill:none;stroke:#FFFFFF;stroke-width:2;stroke-linecap:round;stroke-miterlimit:10;}
	.st16{fill:#FFFFFF;}
	.st17{fill:#FFFFFF;stroke:#D0D1D7;stroke-width:2;stroke-miterlimit:10;}
	.st18{fill:#D0D1D7;stroke:#FFFFFF;stroke-width:2;stroke-miterlimit:10;}
	.st19{fill:none;stroke:#FFFFFF;stroke-width:3;stroke-linecap:round;stroke-miterlimit:10;}
	.st20{fill:#707584;}
	.st21{opacity:0.2;}
	.st22{fill:none;stroke:#707584;stroke-linecap:round;stroke-miterlimit:10;}
	.st23{fill:none;stroke:#707584;stroke-linecap:round;stroke-linejoin:round;stroke-miterlimit:10;}
	.st24{fill:none;stroke:#256AAA;stroke-miterlimit:10;}
	.st25{fill:none;stroke:#256AAA;stroke-linecap:round;stroke-linejoin:round;stroke-miterlimit:10;}
	.st26{fill:none;stroke:#707584;stroke-miterlimit:10;}
	.st27{fill:#E3EFFC;stroke:#707584;stroke-miterlimit:10;}
	.st28{fill:none;stroke:#274174;stroke-miterlimit:10;}
	.st29{fill:#256AAA;}
	.st30{fill:none;stroke:#256AAA;stroke-linecap:round;stroke-miterlimit:10;}
	.st31{fill:none;stroke:#274174;stroke-linecap:round;stroke-miterlimit:10;}
	.st32{fill:none;stroke:#256AAA;stroke-width:2;stroke-linecap:round;stroke-miterlimit:10;}
	.st33{fill:none;stroke:#D0D1D7;stroke-linecap:round;stroke-linejoin:round;stroke-miterlimit:10;}
	.st34{fill:none;stroke:#FFFFFF;stroke-miterlimit:10;}
	.st35{fill:#FFFFFF;stroke:#D0D1D7;stroke-width:4;stroke-miterlimit:10;}
	.st36{fill:none;stroke:#D0D1D7;stroke-width:4;stroke-miterlimit:10;}
	.st37{fill:none;stroke:#D0D1D7;stroke-width:2;stroke-miterlimit:10;}
	.st38{fill:none;stroke:#FFFFFF;stroke-width:4;stroke-miterlimit:10;}
	.st39{fill-rule:evenodd;clip-rule:evenodd;fill:none;stroke:#707584;stroke-linecap:round;stroke-miterlimit:10;}
	.st40{fill:#89664C;}
	.st41{fill:#FFDD67;}
	.st42{fill:#D3976E;}
	.st43{fill:#FED0AC;}
	.st44{fill:#3E4347;}
	.st45{fill:#664E27;}
	.st46{fill:none;stroke:#D0D1D7;stroke-width:6;stroke-miterlimit:10;}
	.st47{fill:#D4D9E3;}
	.st48{fill:#F37120;}
	.st49{fill:#FDE3D2;}
	.st50{fill:#B1B4BD;}
	.st51{fill:#EFF0F2;}
	.st52{fill:none;stroke:#F37120;stroke-width:0.75;stroke-miterlimit:10;}
	.st53{opacity:0.9;fill:none;stroke:#F37120;stroke-miterlimit:10;}
	.st54{opacity:0.9;fill:#F37120;}
	.st55{fill:none;stroke:#F37120;stroke-miterlimit:10;}
	.st56{fill:#808080;}
	.st57{fill:#F1F1F3;}
	.st58{fill:#6A737B;}
	.st59{clip-path:url(#SVGID_6_);}
	.st60{fill:none;stroke:#999999;stroke-width:2;stroke-miterlimit:10;}
	.st61{fill:none;stroke:#999999;stroke-width:2;stroke-miterlimit:10;stroke-dasharray:5.0381,5.0381;}
	.st62{opacity:0.9;fill:none;stroke:#7AC3FA;stroke-miterlimit:10;}
	.st63{fill:#7AC3FA;}
	.st64{fill:none;stroke:#7AC3FA;stroke-miterlimit:10;}
	.st65{fill:none;stroke:#FFFFFF;stroke-width:2;stroke-linecap:round;stroke-linejoin:round;stroke-miterlimit:10;}
</style>
<g class="st0">
	<rect class="st47" width="1149" height="720"/>
</g>
<g>
	<g class="st0">
		<g>
			<path class="st56" d="M163.1,557c0.1,0,0.2,0,0.2,0c3.1,0,6-1.4,7.6-3.7c0,0,0,0,0,0c1.2-1.8,3.6-2.9,6.2-2.8
				c2.5,0.1,4.6,1.2,5.7,3c1.5,2.4,4.2,3.9,7.4,3.9c0.1,0,0.2,0,0.2,0c3.1,0,6-1.4,7.6-3.7c1.2-1.8,3.6-2.9,6.2-2.8
				c2.5,0.1,4.6,1.2,5.7,3c0,0,0,0,0,0c1.5,2.4,4.2,3.9,7.4,3.9c0.1,0,0.2,0,0.2,0c3.1,0,6-1.4,7.6-3.7v0c1.2-1.8,3.6-2.9,6.2-2.8
				c2.5,0.1,4.6,1.2,5.7,3c1.5,2.4,4.2,3.9,7.4,3.9c0.1,0,0.2,0,0.3,0c3.1,0,6-1.4,7.6-3.7c0.3-0.5,0.2-1.1-0.3-1.4
				C-0.5-0.3-1.1-0.2-1.4,0.3c-1.2,1.8-3.6,2.9-6.2,2.8c-2.5-0.1-4.6-1.1-5.7-3c-1.5-2.4-4.2-3.9-7.4-3.9c-3.3-0.1-6.3,1.3-7.9,3.7
				c0,0,0,0,0,0c-1.2,1.8-3.6,2.9-6.2,2.8c-2.5-0.1-4.6-1.1-5.7-3c0,0,0,0,0,0c-1.5-2.4-4.2-3.9-7.4-3.9c-3.2-0.1-6.3,1.3-7.9,3.7
				C-1.2,1.8-3.6,2.9-6.2,2.8c-2.5-0.1-4.6-1.1-5.7-3c-1.5-2.4-4.2-3.9-7.4-3.9c-3.2-0.1-6.3,1.3-7.9,3.7c0,0,0,0,0,0
				C-1.2,1.8-3.6,2.9-6.2,2.8c-2.5-0.1-4.6-1.1-5.7-3c-0.3-0.5-0.9-0.6-1.4-0.3c-0.5,0.3-0.6,0.9-0.3,1.4
				C157.2,555.4,160,556.9,163.1,557z"/>
		</g>
		<g>
			<path class="st56" d="M250.7,563c-1.2,1.8-3.6,2.9-6.2,2.8c-2.5-0.1-4.6-1.1-5.7-3c0,0,0,0,0,0c-1.5-2.4-4.2-3.9-7.4-3.9
				C-3.2-0.1-6.3,1.3-7.9,3.7c0,0,0,0,0,0c-1.2,1.8-3.6,2.9-6.2,2.8c-2.5-0.1-4.6-1.1-5.7-3c0,0,0,0,0,0c-1.5-2.4-4.2-3.9-7.4-3.9
				C-3.2-0.1-6.3,1.3-7.9,3.7c-1.2,1.8-3.6,2.9-6.2,2.8c-2.5-0.1-4.6-1.1-5.7-3c-1.5-2.4-4.2-3.9-7.4-3.9c-3.2-0.1-6.3,1.3-7.9,3.7
				C-1.2,1.8-3.6,2.9-6.2,2.8c-2.5-0.1-4.6-1.2-5.7-3c-0.3-0.5-0.9-0.6-1.4-0.3c-0.5,0.3-0.6,0.9-0.3,1.4c1.5,2.4,4.2,3.9,7.4,3.9
				c0.1,0,0.2,0,0.3,0c3.1,0,6-1.4,7.6-3.7c1.2-1.8,3.6-2.9,6.2-2.8c2.5,0.1,4.6,1.2,5.7,3c1.5,2.4,4.2,3.9,7.4,3.9
				c0.1,0,0.2,0,0.2,0c3.1,0,6-1.4,7.6-3.7c1.2-1.8,3.6-2.9,6.2-2.8c2.5,0.1,4.6,1.1,5.7,3c0,0,0,0,0,0c1.5,2.4,4.2,3.9,7.4,3.9
				c0.1,0,0.2,0,0.2,0c3.1,0,6-1.4,7.6-3.7c0,0,0,0,0,0c1.2-1.8,3.6-2.9,6.2-2.8c2.5,0.1,4.6,1.2,5.7,3c0,0,0,0,0,0
				c1.5,2.4,4.2,3.9,7.4,3.9c0.1,0,0.2,0,0.3,0c3.1,0,6-1.4,7.6-3.7c0.3-0.5,0.2-1.1-0.3-1.4C251.7,562.4,251,562.5,250.7,563z"/>
		</g>
		<g>
			<path class="st56" d="M250.7,582c-1.2,1.8-3.6,2.9-6.2,2.8c-2.5-0.1-4.6-1.1-5.7-3c0,0,0,0,0,0c-1.5-2.4-4.2-3.9-7.4-3.9
				C-3.2-0.1-6.3,1.3-7.9,3.7c-1.2,1.8-3.6,2.9-6.2,2.8c-2.5-0.1-4.6-1.2-5.7-3c-1.5-2.4-4.2-3.9-7.4-3.9c-3.2-0.1-6.3,1.3-7.9,3.7
				C-1.2,1.8-3.6,2.8-6.2,2.8c-2.5-0.1-4.6-1.1-5.7-3c-1.5-2.4-4.2-3.9-7.4-3.9c-3.2-0.1-6.3,1.3-7.9,3.7c-1.2,1.8-3.6,2.9-6.2,2.8
				C-2.5-0.1-4.6-1.1-5.7-3c-0.3-0.5-0.9-0.6-1.4-0.3c-0.5,0.3-0.6,0.9-0.3,1.4c1.5,2.4,4.2,3.9,7.4,3.9c0.1,0,0.2,0,0.2,0
				c3.1,0,6-1.4,7.6-3.7c1.2-1.8,3.6-2.8,6.2-2.8c2.5,0.1,4.6,1.1,5.7,3c1.5,2.4,4.2,3.9,7.4,3.9c0.1,0,0.2,0,0.2,0
				c3.1,0,6-1.4,7.6-3.7c1.2-1.8,3.6-2.8,6.2-2.8c2.5,0.1,4.6,1.1,5.7,3c1.5,2.4,4.2,3.9,7.4,3.9c0.1,0,0.2,0,0.3,0
				c3.1,0,6-1.4,7.6-3.7c1.2-1.8,3.6-2.9,6.2-2.8c2.5,0.1,4.6,1.2,5.7,3c0,0,0,0,0,0c1.5,2.4,4.2,3.9,7.4,3.9c0.1,0,0.2,0,0.3,0
				c3.1,0,6-1.4,7.6-3.7c0.3-0.5,0.2-1.1-0.3-1.4C251.7,581.5,251,581.6,250.7,582z"/>
		</g>
		<g>
			<path class="st56" d="M250.7,572.5c-1.2,1.8-3.6,2.9-6.2,2.8c-2.5-0.1-4.6-1.1-5.7-3c0,0,0,0,0,0c-1.5-2.4-4.2-3.9-7.4-3.9
				C-3.2-0.1-6.3,1.3-7.9,3.7c-1.2,1.8-3.6,2.9-6.2,2.8c-2.5-0.1-4.6-1.1-5.7-3c0,0,0,0,0,0c-1.5-2.4-4.2-3.9-7.4-3.9
				C-3.2-0.1-6.3,1.3-7.9,3.7c0,0,0,0,0,0c-1.2,1.8-3.6,2.9-6.2,2.8c-2.5-0.1-4.6-1.1-5.7-3c-1.5-2.4-4.2-3.9-7.4-3.9
				C-3.2-0.1-6.3,1.3-7.9,3.7c-1.2,1.8-3.6,2.8-6.2,2.8c-2.5-0.1-4.6-1.2-5.7-3c-0.3-0.5-0.9-0.6-1.4-0.3c-0.5,0.3-0.6,0.9-0.3,1.4
				c1.5,2.4,4.2,3.9,7.4,3.9c0.1,0,0.2,0,0.3,0c3.1,0,6-1.4,7.6-3.7c1.2-1.8,3.6-2.9,6.2-2.8c2.5,0.1,4.6,1.1,5.7,3
				c1.5,2.4,4.2,3.9,7.4,3.9c0.1,0,0.2,0,0.2,0c3.1,0,6-1.4,7.6-3.7c0,0,0,0,0,0c1.2-1.8,3.6-2.9,6.2-2.8c2.5,0.1,4.6,1.2,5.7,3
				c0,0,0,0,0,0c1.5,2.4,4.2,3.9,7.4,3.9c0.1,0,0.2,0,0.2,0c3.1,0,6-1.4,7.6-3.7c1.2-1.8,3.6-2.9,6.2-2.8c2.5,0.1,4.6,1.2,5.7,3
				c0,0,0,0,0,0c1.5,2.4,4.2,3.9,7.4,3.9c0.1,0,0.2,0,0.3,0c3.1,0,6-1.4,7.6-3.7c0.3-0.5,0.2-1.1-0.3-1.4
				C251.7,571.9,251,572,250.7,572.5z"/>
		</g>
		<g>
			<path class="st56" d="M250.7,591.5c-1.2,1.8-3.6,2.8-6.2,2.8c-2.5-0.1-4.6-1.1-5.7-3c0,0,0,0,0,0c-1.5-2.4-4.2-3.9-7.4-3.9
				C-3.3-0.1-6.3,1.3-7.9,3.7c-1.2,1.8-3.6,2.9-6.2,2.8c-2.5-0.1-4.6-1.1-5.7-3c-1.5-2.4-4.2-3.9-7.4-3.9c-3.2-0.1-6.3,1.3-7.9,3.7
				C-1.2,1.8-3.6,2.9-6.2,2.8c-2.5-0.1-4.6-1.2-5.7-3c-1.5-2.4-4.2-3.9-7.4-3.9c-3.2-0.1-6.3,1.3-7.9,3.7c-1.2,1.8-3.6,2.9-6.2,2.8
				C-2.5-0.1-4.6-1.1-5.7-3c-0.3-0.5-0.9-0.6-1.4-0.3c-0.5,0.3-0.6,0.9-0.3,1.4c1.5,2.4,4.2,3.9,7.4,3.9c0.1,0,0.2,0,0.2,0
				c3.1,0,6-1.4,7.6-3.7c1.2-1.8,3.6-2.9,6.2-2.8c2.5,0.1,4.6,1.2,5.7,3c1.5,2.4,4.2,3.9,7.4,3.9c0.1,0,0.2,0,0.2,0
				c3.1,0,6-1.4,7.6-3.7c1.2-1.8,3.6-2.9,6.2-2.8c2.5,0.1,4.6,1.1,5.7,3c1.5,2.4,4.2,3.9,7.4,3.9c0.1,0,0.2,0,0.2,0
				c3.1,0,6-1.4,7.6-3.7c1.2-1.8,3.6-2.9,6.2-2.8c2.5,0.1,4.6,1.2,5.7,3c0,0,0,0,0,0c1.5,2.4,4.2,3.9,7.4,3.9c0.1,0,0.2,0,0.2,0
				c3.1,0,6-1.4,7.6-3.7c0.3-0.5,0.2-1.1-0.3-1.4C251.7,591,251,591.1,250.7,591.5z"/>
		</g>
	</g>
	<g class="st0">
		<g>
			<path class="st56" d="M163.1,605.2c0.1,0,0.2,0,0.2,0c3.1,0,6-1.4,7.6-3.7c0,0,0,0,0,0c1.2-1.8,3.6-2.9,6.2-2.8
				c2.5,0.1,4.6,1.1,5.7,3c1.5,2.4,4.2,3.9,7.4,3.9c0.1,0,0.2,0,0.2,0c3.1,0,6-1.4,7.6-3.7c1.2-1.8,3.6-2.9,6.2-2.8
				c2.5,0.1,4.6,1.1,5.7,3c0,0,0,0,0,0c1.5,2.4,4.2,3.9,7.4,3.9c0.1,0,0.2,0,0.2,0c3.1,0,6-1.4,7.6-3.7v0c1.2-1.8,3.6-2.9,6.2-2.8
				c2.5,0.1,4.6,1.2,5.7,3c1.5,2.4,4.2,3.9,7.4,3.9c0.1,0,0.2,0,0.3,0c3.1,0,6-1.4,7.6-3.7c0.3-0.5,0.2-1.1-0.3-1.4
				C-0.5-0.3-1.1-0.2-1.4,0.3c-1.2,1.8-3.6,2.9-6.2,2.8c-2.5-0.1-4.6-1.2-5.7-3c-1.5-2.4-4.2-3.9-7.4-3.9c-3.3-0.1-6.3,1.3-7.9,3.7
				c0,0,0,0,0,0c-1.2,1.8-3.6,2.9-6.2,2.8c-2.5-0.1-4.6-1.1-5.7-3c0,0,0,0,0,0c-1.5-2.4-4.2-3.9-7.4-3.9c-3.2-0.1-6.3,1.3-7.9,3.7
				C-1.2,1.8-3.6,2.9-6.2,2.8c-2.5-0.1-4.6-1.1-5.7-3c-1.5-2.4-4.2-3.9-7.4-3.9c-3.2-0.1-6.3,1.3-7.9,3.7c0,0,0,0,0,0
				C-1.2,1.8-3.6,2.9-6.2,2.8c-2.5-0.1-4.6-1.1-5.7-3c-0.3-0.5-0.9-0.6-1.4-0.3c-0.5,0.3-0.6,0.9-0.3,1.4
				C157.2,603.7,160,605.1,163.1,605.2z"/>
		</g>
		<g>
			<path class="st56" d="M250.7,611.2c-1.2,1.8-3.6,2.9-6.2,2.8c-2.5-0.1-4.6-1.1-5.7-3c0,0,0,0,0,0c-1.5-2.4-4.2-3.9-7.4-3.9
				C-3.2-0.1-6.3,1.3-7.9,3.7c0,0,0,0,0,0c-1.2,1.8-3.6,2.9-6.2,2.8c-2.5-0.1-4.6-1.1-5.7-3c0,0,0,0,0,0c-1.5-2.4-4.2-3.9-7.4-3.9
				C-3.2-0.1-6.3,1.3-7.9,3.7c-1.2,1.8-3.6,2.9-6.2,2.8c-2.5-0.1-4.6-1.2-5.7-3c-1.5-2.4-4.2-3.9-7.4-3.9c-3.2-0.1-6.3,1.3-7.9,3.7
				C-1.2,1.8-3.6,2.9-6.2,2.8c-2.5-0.1-4.6-1.2-5.7-3c-0.3-0.5-0.9-0.6-1.4-0.3c-0.5,0.3-0.6,0.9-0.3,1.4c1.5,2.4,4.2,3.9,7.4,3.9
				c0.1,0,0.2,0,0.3,0c3.1,0,6-1.4,7.6-3.7c1.2-1.8,3.6-2.9,6.2-2.8c2.5,0.1,4.6,1.2,5.7,3c1.5,2.4,4.2,3.9,7.4,3.9
				c0.1,0,0.2,0,0.2,0c3.1,0,6-1.4,7.6-3.7c1.2-1.8,3.6-2.9,6.2-2.8c2.5,0.1,4.6,1.2,5.7,3c0,0,0,0,0,0c1.5,2.4,4.2,3.9,7.4,3.9
				c0.1,0,0.2,0,0.2,0c3.1,0,6-1.4,7.6-3.7c0,0,0,0,0,0c1.2-1.8,3.6-2.9,6.2-2.8c2.5,0.1,4.6,1.1,5.7,3c0,0,0,0,0,0
				c1.5,2.4,4.2,3.9,7.4,3.9c0.1,0,0.2,0,0.3,0c3.1,0,6-1.4,7.6-3.7c0.3-0.5,0.2-1.1-0.3-1.4C251.7,610.7,251,610.8,250.7,611.2z"/>
		</g>
		<g>
			<path class="st56" d="M250.7,630.3c-1.2,1.8-3.6,2.9-6.2,2.8c-2.5-0.1-4.6-1.1-5.7-3c0,0,0,0,0,0c-1.5-2.4-4.2-3.9-7.4-3.9
				C-3.2-0.1-6.3,1.3-7.9,3.7c-1.2,1.8-3.6,2.9-6.2,2.8c-2.5-0.1-4.6-1.2-5.7-3c-1.5-2.4-4.2-3.9-7.4-3.9c-3.2-0.1-6.3,1.3-7.9,3.7
				C-1.2,1.8-3.6,2.8-6.2,2.8c-2.5-0.1-4.6-1.1-5.7-3c-1.5-2.4-4.2-3.9-7.4-3.9c-3.2-0.1-6.3,1.3-7.9,3.7c-1.2,1.8-3.6,2.9-6.2,2.8
				C-2.5-0.1-4.6-1.1-5.7-3c-0.3-0.5-0.9-0.6-1.4-0.3c-0.5,0.3-0.6,0.9-0.3,1.4c1.5,2.4,4.2,3.9,7.4,3.9c0.1,0,0.2,0,0.2,0
				c3.1,0,6-1.4,7.6-3.7c1.2-1.8,3.6-2.8,6.2-2.8c2.5,0.1,4.6,1.2,5.7,3c1.5,2.4,4.2,3.9,7.4,3.9c0.1,0,0.2,0,0.2,0
				c3.1,0,6-1.4,7.6-3.7c1.2-1.8,3.6-2.8,6.2-2.8c2.5,0.1,4.6,1.2,5.7,3c1.5,2.4,4.2,3.9,7.4,3.9c0.1,0,0.2,0,0.3,0
				c3.1,0,6-1.4,7.6-3.7c1.2-1.8,3.6-2.9,6.2-2.8c2.5,0.1,4.6,1.1,5.7,3c0,0,0,0,0,0c1.5,2.4,4.2,3.9,7.4,3.9c0.1,0,0.2,0,0.3,0
				c3.1,0,6-1.4,7.6-3.7c0.3-0.5,0.2-1.1-0.3-1.4C251.7,629.7,251,629.8,250.7,630.3z"/>
		</g>
		<g>
			<path class="st56" d="M250.7,620.8c-1.2,1.8-3.6,2.9-6.2,2.8c-2.5-0.1-4.6-1.1-5.7-3c0,0,0,0,0,0c-1.5-2.4-4.2-3.9-7.4-3.9
				C-3.2-0.1-6.3,1.3-7.9,3.7c-1.2,1.8-3.6,2.9-6.2,2.8c-2.5-0.1-4.6-1.1-5.7-3c0,0,0,0,0,0c-1.5-2.4-4.2-3.9-7.4-3.9
				C-3.2-0.1-6.3,1.3-7.9,3.7c0,0,0,0,0,0c-1.2,1.8-3.6,2.9-6.2,2.8c-2.5-0.1-4.6-1.1-5.7-3c-1.5-2.4-4.2-3.9-7.4-3.9
				C-3.2-0.1-6.3,1.3-7.9,3.7c-1.2,1.8-3.6,2.8-6.2,2.8c-2.5-0.1-4.6-1.2-5.7-3c-0.3-0.5-0.9-0.6-1.4-0.3c-0.5,0.3-0.6,0.9-0.3,1.4
				c1.5,2.4,4.2,3.9,7.4,3.9c0.1,0,0.2,0,0.3,0c3.1,0,6-1.4,7.6-3.7c1.2-1.8,3.6-2.9,6.2-2.8c2.5,0.1,4.6,1.2,5.7,3
				c1.5,2.4,4.2,3.9,7.4,3.9c0.1,0,0.2,0,0.2,0c3.1,0,6-1.4,7.6-3.7c0,0,0,0,0,0c1.2-1.8,3.6-2.9,6.2-2.8c2.5,0.1,4.6,1.1,5.7,3
				c0,0,0,0,0,0c1.5,2.4,4.2,3.9,7.4,3.9c0.1,0,0.2,0,0.2,0c3.1,0,6-1.4,7.6-3.7c1.2-1.8,3.6-2.9,6.2-2.8c2.5,0.1,4.6,1.1,5.7,3
				c0,0,0,0,0,0c1.5,2.4,4.2,3.9,7.4,3.9c0.1,0,0.2,0,0.3,0c3.1,0,6-1.4,7.6-3.7c0.3-0.5,0.2-1.1-0.3-1.4
				C251.7,620.2,251,620.3,250.7,620.8z"/>
		</g>
		<g>
			<path class="st56" d="M250.7,639.8c-1.2,1.8-3.6,2.8-6.2,2.8c-2.5-0.1-4.6-1.1-5.7-3c0,0,0,0,0,0c-1.5-2.4-4.2-3.9-7.4-3.9
				C-3.3-0.1-6.3,1.3-7.9,3.7c-1.2,1.8-3.6,2.9-6.2,2.8c-2.5-0.1-4.6-1.1-5.7-3c-1.5-2.4-4.2-3.9-7.4-3.9c-3.2-0.1-6.3,1.3-7.9,3.7
				C-1.2,1.8-3.6,2.9-6.2,2.8c-2.5-0.1-4.6-1.1-5.7-3c-1.5-2.4-4.2-3.9-7.4-3.9c-3.2-0.1-6.3,1.3-7.9,3.7c-1.2,1.8-3.6,2.9-6.2,2.8
				C-2.5-0.1-4.6-1.1-5.7-3c-0.3-0.5-0.9-0.6-1.4-0.3c-0.5,0.3-0.6,0.9-0.3,1.4c1.5,2.4,4.2,3.9,7.4,3.9c0.1,0,0.2,0,0.2,0
				c3.1,0,6-1.4,7.6-3.7c1.2-1.8,3.6-2.9,6.2-2.8c2.5,0.1,4.6,1.1,5.7,3c1.5,2.4,4.2,3.9,7.4,3.9c0.1,0,0.2,0,0.2,0
				c3.1,0,6-1.4,7.6-3.7c1.2-1.8,3.6-2.9,6.2-2.8c2.5,0.1,4.6,1.1,5.7,3c1.5,2.4,4.2,3.9,7.4,3.9c0.1,0,0.2,0,0.2,0
				c3.1,0,6-1.4,7.6-3.7c1.2-1.8,3.6-2.9,6.2-2.8c2.5,0.1,4.6,1.2,5.7,3c0,0,0,0,0,0c1.5,2.4,4.2,3.9,7.4,3.9c0.1,0,0.2,0,0.2,0
				c3.1,0,6-1.4,7.6-3.7c0.3-0.5,0.2-1.1-0.3-1.4C251.7,639.2,251,639.4,250.7,639.8z"/>
		</g>
	</g>
</g>
<g>
	<g class="st0">
		<g>
			<path class="st56" d="M568.1,74.7c0.1,0,0.2,0,0.2,0c3.1,0,6-1.4,7.6-3.7c0,0,0,0,0,0c1.2-1.8,3.6-2.9,6.2-2.8
				c2.5,0.1,4.6,1.2,5.7,3c1.5,2.4,4.2,3.9,7.4,3.9c0.1,0,0.2,0,0.2,0c3.1,0,6-1.4,7.6-3.7c1.2-1.8,3.6-2.9,6.2-2.8
				c2.5,0.1,4.6,1.1,5.7,3c0,0,0,0,0,0c1.5,2.4,4.2,3.9,7.4,3.9c0.1,0,0.2,0,0.2,0c3.1,0,6-1.4,7.6-3.7v0c1.2-1.8,3.6-2.9,6.2-2.8
				c2.5,0.1,4.6,1.2,5.7,3c1.5,2.4,4.2,3.9,7.4,3.9c0.1,0,0.2,0,0.3,0c3.1,0,6-1.4,7.6-3.7c0.3-0.5,0.2-1.1-0.3-1.4
				C-0.5-0.3-1.1-0.2-1.4,0.3c-1.2,1.8-3.6,2.9-6.2,2.8c-2.5-0.1-4.6-1.2-5.7-3c-1.5-2.4-4.2-3.9-7.4-3.9c-3.3-0.1-6.3,1.3-7.9,3.7
				c0,0,0,0,0,0c-1.2,1.8-3.6,2.9-6.2,2.8c-2.5-0.1-4.6-1.1-5.7-3c0,0,0,0,0,0c-1.5-2.4-4.2-3.9-7.4-3.9c-3.2-0.1-6.3,1.3-7.9,3.7
				C-1.2,1.8-3.6,2.9-6.2,2.8c-2.5-0.1-4.6-1.1-5.7-3c-1.5-2.4-4.2-3.9-7.4-3.9c-3.2-0.1-6.3,1.3-7.9,3.7c0,0,0,0,0,0
				C-1.2,1.8-3.6,2.9-6.2,2.8c-2.5-0.1-4.6-1.1-5.7-3c-0.3-0.5-0.9-0.6-1.4-0.3c-0.5,0.3-0.6,0.9-0.3,1.4
				C562.2,73.1,564.9,74.6,568.1,74.7z"/>
		</g>
		<g>
			<path class="st56" d="M655.7,80.7c-1.2,1.8-3.6,2.9-6.2,2.8c-2.5-0.1-4.6-1.1-5.7-3c0,0,0,0,0,0c-1.5-2.4-4.2-3.9-7.4-3.9
				C-3.2-0.1-6.3,1.3-7.9,3.7c0,0,0,0,0,0c-1.2,1.8-3.6,2.9-6.2,2.8c-2.5-0.1-4.6-1.1-5.7-3c0,0,0,0,0,0c-1.5-2.4-4.2-3.9-7.4-3.9
				C-3.2-0.1-6.3,1.3-7.9,3.7c-1.2,1.8-3.6,2.9-6.2,2.8c-2.5-0.1-4.6-1.2-5.7-3c-1.5-2.4-4.2-3.9-7.4-3.9c-3.2-0.1-6.3,1.3-7.9,3.7
				C-1.2,1.8-3.6,2.9-6.2,2.8c-2.5-0.1-4.6-1.2-5.7-3c-0.3-0.5-0.9-0.6-1.4-0.3c-0.5,0.3-0.6,0.9-0.3,1.4c1.5,2.4,4.2,3.9,7.4,3.9
				c0.1,0,0.2,0,0.3,0c3.1,0,6-1.4,7.6-3.7c1.2-1.8,3.6-2.9,6.2-2.8c2.5,0.1,4.6,1.2,5.7,3c1.5,2.4,4.2,3.9,7.4,3.9
				c0.1,0,0.2,0,0.2,0c3.1,0,6-1.4,7.6-3.7c1.2-1.8,3.6-2.9,6.2-2.8c2.5,0.1,4.6,1.2,5.7,3c0,0,0,0,0,0c1.5,2.4,4.2,3.9,7.4,3.9
				c0.1,0,0.2,0,0.2,0c3.1,0,6-1.4,7.6-3.7c0,0,0,0,0,0c1.2-1.8,3.6-2.9,6.2-2.8c2.5,0.1,4.6,1.2,5.7,3c0,0,0,0,0,0
				c1.5,2.4,4.2,3.9,7.4,3.9c0.1,0,0.2,0,0.3,0c3.1,0,6-1.4,7.6-3.7c0.3-0.5,0.2-1.1-0.3-1.4C656.6,80.1,656,80.3,655.7,80.7z"/>
		</g>
		<g>
			<path class="st56" d="M655.7,99.8c-1.2,1.8-3.6,2.9-6.2,2.8c-2.5-0.1-4.6-1.1-5.7-3c0,0,0,0,0,0c-1.5-2.4-4.2-3.9-7.4-3.9
				C-3.2-0.1-6.3,1.3-7.9,3.7c-1.2,1.8-3.6,2.9-6.2,2.8c-2.5-0.1-4.6-1.2-5.7-3c-1.5-2.4-4.2-3.9-7.4-3.9c-3.2-0.1-6.3,1.3-7.9,3.7
				C-1.2,1.8-3.6,2.8-6.2,2.8c-2.5-0.1-4.6-1.1-5.7-3c-1.5-2.4-4.2-3.9-7.4-3.9c-3.2-0.1-6.3,1.3-7.9,3.7c-1.2,1.8-3.6,2.9-6.2,2.8
				C-2.5-0.1-4.6-1.1-5.7-3c-0.3-0.5-0.9-0.6-1.4-0.3c-0.5,0.3-0.6,0.9-0.3,1.4c1.5,2.4,4.2,3.9,7.4,3.9c0.1,0,0.2,0,0.2,0
				c3.1,0,6-1.4,7.6-3.7c1.2-1.8,3.6-2.8,6.2-2.8c2.5,0.1,4.6,1.2,5.7,3c1.5,2.4,4.2,3.9,7.4,3.9c0.1,0,0.2,0,0.2,0
				c3.1,0,6-1.4,7.6-3.7c1.2-1.8,3.6-2.8,6.2-2.8c2.5,0.1,4.6,1.2,5.7,3c1.5,2.4,4.2,3.9,7.4,3.9c0.1,0,0.2,0,0.3,0
				c3.1,0,6-1.4,7.6-3.7c1.2-1.8,3.6-2.9,6.2-2.8c2.5,0.1,4.6,1.2,5.7,3c0,0,0,0,0,0c1.5,2.4,4.2,3.9,7.4,3.9c0.1,0,0.2,0,0.3,0
				c3.1,0,6-1.4,7.6-3.7c0.3-0.5,0.2-1.1-0.3-1.4C656.6,99.2,656,99.3,655.7,99.8z"/>
		</g>
		<g>
			<path class="st56" d="M655.7,90.2c-1.2,1.8-3.6,2.9-6.2,2.8c-2.5-0.1-4.6-1.1-5.7-3c0,0,0,0,0,0c-1.5-2.4-4.2-3.9-7.4-3.9
				C-3.2-0.1-6.3,1.3-7.9,3.7c-1.2,1.8-3.6,2.9-6.2,2.8c-2.5-0.1-4.6-1.1-5.7-3c0,0,0,0,0,0c-1.5-2.4-4.2-3.9-7.4-3.9
				C-3.2-0.1-6.3,1.3-7.9,3.7c0,0,0,0,0,0c-1.2,1.8-3.6,2.9-6.2,2.8c-2.5-0.1-4.6-1.1-5.7-3c-1.5-2.4-4.2-3.9-7.4-3.9
				C-3.2-0.1-6.3,1.3-7.9,3.7c-1.2,1.8-3.6,2.8-6.2,2.8c-2.5-0.1-4.6-1.2-5.7-3c-0.3-0.5-0.9-0.6-1.4-0.3c-0.5,0.3-0.6,0.9-0.3,1.4
				c1.5,2.4,4.2,3.9,7.4,3.9c0.1,0,0.2,0,0.3,0c3.1,0,6-1.4,7.6-3.7c1.2-1.8,3.6-2.9,6.2-2.8c2.5,0.1,4.6,1.2,5.7,3
				c1.5,2.4,4.2,3.9,7.4,3.9c0.1,0,0.2,0,0.2,0c3.1,0,6-1.4,7.6-3.7c0,0,0,0,0,0c1.2-1.8,3.6-2.9,6.2-2.8c2.5,0.1,4.6,1.2,5.7,3
				c0,0,0,0,0,0c1.5,2.4,4.2,3.9,7.4,3.9c0.1,0,0.2,0,0.2,0c3.1,0,6-1.4,7.6-3.7c1.2-1.8,3.6-2.9,6.2-2.8c2.5,0.1,4.6,1.2,5.7,3
				c0,0,0,0,0,0c1.5,2.4,4.2,3.9,7.4,3.9c0.1,0,0.2,0,0.3,0c3.1,0,6-1.4,7.6-3.7c0.3-0.5,0.2-1.1-0.3-1.4
				C656.6,89.7,656,89.8,655.7,90.2z"/>
		</g>
		<g>
			<path class="st56" d="M655.7,109.3c-1.2,1.8-3.6,2.8-6.2,2.8c-2.5-0.1-4.6-1.1-5.7-3c0,0,0,0,0,0c-1.5-2.4-4.2-3.9-7.4-3.9
				C-3.3-0.1-6.3,1.3-7.9,3.7c-1.2,1.8-3.6,2.9-6.2,2.8c-2.5-0.1-4.6-1.1-5.7-3c-1.5-2.4-4.2-3.9-7.4-3.9c-3.2-0.1-6.3,1.3-7.9,3.7
				C-1.2,1.8-3.6,2.9-6.2,2.8c-2.5-0.1-4.6-1.2-5.7-3c-1.5-2.4-4.2-3.9-7.4-3.9c-3.2-0.1-6.3,1.3-7.9,3.7c-1.2,1.8-3.6,2.9-6.2,2.8
				C-2.5-0.1-4.6-1.1-5.7-3c-0.3-0.5-0.9-0.6-1.4-0.3c-0.5,0.3-0.6,0.9-0.3,1.4c1.5,2.4,4.2,3.9,7.4,3.9c0.1,0,0.2,0,0.2,0
				c3.1,0,6-1.4,7.6-3.7c1.2-1.8,3.6-2.9,6.2-2.8c2.5,0.1,4.6,1.2,5.7,3c1.5,2.4,4.2,3.9,7.4,3.9c0.1,0,0.2,0,0.2,0
				c3.1,0,6-1.4,7.6-3.7c1.2-1.8,3.6-2.9,6.2-2.8c2.5,0.1,4.6,1.1,5.7,3c1.5,2.4,4.2,3.9,7.4,3.9c0.1,0,0.2,0,0.2,0
				c3.1,0,6-1.4,7.6-3.7c1.2-1.8,3.6-2.9,6.2-2.8c2.5,0.1,4.6,1.2,5.7,3c0,0,0,0,0,0c1.5,2.4,4.2,3.9,7.4,3.9c0.1,0,0.2,0,0.2,0
				c3.1,0,6-1.4,7.6-3.7c0.3-0.5,0.2-1.1-0.3-1.4C656.6,108.7,656,108.8,655.7,109.3z"/>
		</g>
	</g>
	<g class="st0">
		<g>
			<path class="st56" d="M568.1,122.9c0.1,0,0.2,0,0.2,0c3.1,0,6-1.4,7.6-3.7c0,0,0,0,0,0c1.2-1.8,3.6-2.9,6.2-2.8
				c2.5,0.1,4.6,1.2,5.7,3c1.5,2.4,4.2,3.9,7.4,3.9c0.1,0,0.2,0,0.2,0c3.1,0,6-1.4,7.6-3.7c1.2-1.8,3.6-2.9,6.2-2.8
				c2.5,0.1,4.6,1.2,5.7,3c0,0,0,0,0,0c1.5,2.4,4.2,3.9,7.4,3.9c0.1,0,0.2,0,0.2,0c3.1,0,6-1.4,7.6-3.7v0c1.2-1.8,3.6-2.9,6.2-2.8
				c2.5,0.1,4.6,1.2,5.7,3c1.5,2.4,4.2,3.9,7.4,3.9c0.1,0,0.2,0,0.3,0c3.1,0,6-1.4,7.6-3.7c0.3-0.5,0.2-1.1-0.3-1.4
				C-0.5-0.3-1.1-0.2-1.4,0.3c-1.2,1.8-3.6,2.9-6.2,2.8c-2.5-0.1-4.6-1.2-5.7-3c-1.5-2.4-4.2-3.9-7.4-3.9c-3.3-0.1-6.3,1.3-7.9,3.7
				c0,0,0,0,0,0c-1.2,1.8-3.6,2.9-6.2,2.8c-2.5-0.1-4.6-1.1-5.7-3c0,0,0,0,0,0c-1.5-2.4-4.2-3.9-7.4-3.9c-3.2-0.1-6.3,1.3-7.9,3.7
				C-1.2,1.8-3.6,2.9-6.2,2.8c-2.5-0.1-4.6-1.1-5.7-3c-1.5-2.4-4.2-3.9-7.4-3.9c-3.2-0.1-6.3,1.3-7.9,3.7c0,0,0,0,0,0
				C-1.2,1.8-3.6,2.9-6.2,2.8c-2.5-0.1-4.6-1.1-5.7-3c-0.3-0.5-0.9-0.6-1.4-0.3c-0.5,0.3-0.6,0.9-0.3,1.4
				C562.2,121.4,564.9,122.9,568.1,122.9z"/>
		</g>
		<g>
			<path class="st56" d="M655.7,129c-1.2,1.8-3.6,2.9-6.2,2.8c-2.5-0.1-4.6-1.1-5.7-3c0,0,0,0,0,0c-1.5-2.4-4.2-3.9-7.4-3.9
				C-3.2-0.1-6.3,1.3-7.9,3.7c0,0,0,0,0,0c-1.2,1.8-3.6,2.9-6.2,2.8c-2.5-0.1-4.6-1.1-5.7-3c0,0,0,0,0,0c-1.5-2.4-4.2-3.9-7.4-3.9
				C-3.2-0.1-6.3,1.3-7.9,3.7c-1.2,1.8-3.6,2.9-6.2,2.8c-2.5-0.1-4.6-1.2-5.7-3c-1.5-2.4-4.2-3.9-7.4-3.9c-3.2-0.1-6.3,1.3-7.9,3.7
				C-1.2,1.8-3.6,2.9-6.2,2.8c-2.5-0.1-4.6-1.2-5.7-3c-0.3-0.5-0.9-0.6-1.4-0.3c-0.5,0.3-0.6,0.9-0.3,1.4c1.5,2.4,4.2,3.9,7.4,3.9
				c0.1,0,0.2,0,0.3,0c3.1,0,6-1.4,7.6-3.7c1.2-1.8,3.6-2.9,6.2-2.8c2.5,0.1,4.6,1.2,5.7,3c1.5,2.4,4.2,3.9,7.4,3.9
				c0.1,0,0.2,0,0.2,0c3.1,0,6-1.4,7.6-3.7c1.2-1.8,3.6-2.9,6.2-2.8c2.5,0.1,4.6,1.2,5.7,3c0,0,0,0,0,0c1.5,2.4,4.2,3.9,7.4,3.9
				c0.1,0,0.2,0,0.2,0c3.1,0,6-1.4,7.6-3.7c0,0,0,0,0,0c1.2-1.8,3.6-2.9,6.2-2.8c2.5,0.1,4.6,1.2,5.7,3c0,0,0,0,0,0
				c1.5,2.4,4.2,3.9,7.4,3.9c0.1,0,0.2,0,0.3,0c3.1,0,6-1.4,7.6-3.7c0.3-0.5,0.2-1.1-0.3-1.4C656.6,128.4,656,128.5,655.7,129z"/>
		</g>
		<g>
			<path class="st56" d="M655.7,148c-1.2,1.8-3.6,2.9-6.2,2.8c-2.5-0.1-4.6-1.1-5.7-3c0,0,0,0,0,0c-1.5-2.4-4.2-3.9-7.4-3.9
				C-3.2-0.1-6.3,1.3-7.9,3.7c-1.2,1.8-3.6,2.9-6.2,2.8c-2.5-0.1-4.6-1.2-5.7-3c-1.5-2.4-4.2-3.9-7.4-3.9c-3.2-0.1-6.3,1.3-7.9,3.7
				C-1.2,1.8-3.6,2.8-6.2,2.8c-2.5-0.1-4.6-1.1-5.7-3c-1.5-2.4-4.2-3.9-7.4-3.9c-3.2-0.1-6.3,1.3-7.9,3.7c-1.2,1.8-3.6,2.9-6.2,2.8
				C-2.5-0.1-4.6-1.1-5.7-3c-0.3-0.5-0.9-0.6-1.4-0.3c-0.5,0.3-0.6,0.9-0.3,1.4c1.5,2.4,4.2,3.9,7.4,3.9c0.1,0,0.2,0,0.2,0
				c3.1,0,6-1.4,7.6-3.7c1.2-1.8,3.6-2.8,6.2-2.8c2.5,0.1,4.6,1.1,5.7,3c1.5,2.4,4.2,3.9,7.4,3.9c0.1,0,0.2,0,0.2,0
				c3.1,0,6-1.4,7.6-3.7c1.2-1.8,3.6-2.8,6.2-2.8c2.5,0.1,4.6,1.1,5.7,3c1.5,2.4,4.2,3.9,7.4,3.9c0.1,0,0.2,0,0.3,0
				c3.1,0,6-1.4,7.6-3.7c1.2-1.8,3.6-2.9,6.2-2.8c2.5,0.1,4.6,1.2,5.7,3c0,0,0,0,0,0c1.5,2.4,4.2,3.9,7.4,3.9c0.1,0,0.2,0,0.3,0
				c3.1,0,6-1.4,7.6-3.7c0.3-0.5,0.2-1.1-0.3-1.4C656.6,147.5,656,147.6,655.7,148z"/>
		</g>
		<g>
			<path class="st56" d="M655.7,138.5c-1.2,1.8-3.6,2.9-6.2,2.8c-2.5-0.1-4.6-1.1-5.7-3c0,0,0,0,0,0c-1.5-2.4-4.2-3.9-7.4-3.9
				C-3.2-0.1-6.3,1.3-7.9,3.7c-1.2,1.8-3.6,2.9-6.2,2.8c-2.5-0.1-4.6-1.1-5.7-3c0,0,0,0,0,0c-1.5-2.4-4.2-3.9-7.4-3.9
				C-3.2-0.1-6.3,1.3-7.9,3.7c0,0,0,0,0,0c-1.2,1.8-3.6,2.9-6.2,2.8c-2.5-0.1-4.6-1.1-5.7-3c-1.5-2.4-4.2-3.9-7.4-3.9
				C-3.2-0.1-6.3,1.3-7.9,3.7c-1.2,1.8-3.6,2.8-6.2,2.8c-2.5-0.1-4.6-1.2-5.7-3c-0.3-0.5-0.9-0.6-1.4-0.3c-0.5,0.3-0.6,0.9-0.3,1.4
				c1.5,2.4,4.2,3.9,7.4,3.9c0.1,0,0.2,0,0.3,0c3.1,0,6-1.4,7.6-3.7c1.2-1.8,3.6-2.9,6.2-2.8c2.5,0.1,4.6,1.2,5.7,3
				c1.5,2.4,4.2,3.9,7.4,3.9c0.1,0,0.2,0,0.2,0c3.1,0,6-1.4,7.6-3.7c0,0,0,0,0,0c1.2-1.8,3.6-2.9,6.2-2.8c2.5,0.1,4.6,1.1,5.7,3
				c0,0,0,0,0,0c1.5,2.4,4.2,3.9,7.4,3.9c0.1,0,0.2,0,0.2,0c3.1,0,6-1.4,7.6-3.7c1.2-1.8,3.6-2.9,6.2-2.8c2.5,0.1,4.6,1.2,5.7,3
				c0,0,0,0,0,0c1.5,2.4,4.2,3.9,7.4,3.9c0.1,0,0.2,0,0.3,0c3.1,0,6-1.4,7.6-3.7c0.3-0.5,0.2-1.1-0.3-1.4
				C656.6,137.9,656,138,655.7,138.5z"/>
		</g>
		<g>
			<path class="st56" d="M655.7,157.5c-1.2,1.8-3.6,2.8-6.2,2.8c-2.5-0.1-4.6-1.1-5.7-3c0,0,0,0,0,0c-1.5-2.4-4.2-3.9-7.4-3.9
				C-3.3-0.1-6.3,1.3-7.9,3.7c-1.2,1.8-3.6,2.9-6.2,2.8c-2.5-0.1-4.6-1.1-5.7-3c-1.5-2.4-4.2-3.9-7.4-3.9c-3.2-0.1-6.3,1.3-7.9,3.7
				C-1.2,1.8-3.6,2.9-6.2,2.8c-2.5-0.1-4.6-1.2-5.7-3c-1.5-2.4-4.2-3.9-7.4-3.9c-3.2-0.1-6.3,1.3-7.9,3.7c-1.2,1.8-3.6,2.9-6.2,2.8
				C-2.5-0.1-4.6-1.1-5.7-3c-0.3-0.5-0.9-0.6-1.4-0.3c-0.5,0.3-0.6,0.9-0.3,1.4c1.5,2.4,4.2,3.9,7.4,3.9c0.1,0,0.2,0,0.2,0
				c3.1,0,6-1.4,7.6-3.7c1.2-1.8,3.6-2.9,6.2-2.8c2.5,0.1,4.6,1.1,5.7,3c1.5,2.4,4.2,3.9,7.4,3.9c0.1,0,0.2,0,0.2,0
				c3.1,0,6-1.4,7.6-3.7c1.2-1.8,3.6-2.9,6.2-2.8c2.5,0.1,4.6,1.1,5.7,3c1.5,2.4,4.2,3.9,7.4,3.9c0.1,0,0.2,0,0.2,0
				c3.1,0,6-1.4,7.6-3.7c1.2-1.8,3.6-2.9,6.2-2.8c2.5,0.1,4.6,1.2,5.7,3c0,0,0,0,0,0c1.5,2.4,4.2,3.9,7.4,3.9c0.1,0,0.2,0,0.2,0
				c3.1,0,6-1.4,7.6-3.7c0.3-0.5,0.2-1.1-0.3-1.4C656.6,157,656,157.1,655.7,157.5z"/>
		</g>
	</g>
</g>
<rect x="386.7" y="549.8" class="st57" width="74" height="74"/>
<rect x="580.3" y="349.5" class="st58" width="42.7" height="42.7"/>
<rect x="201.3" y="53.2" class="st58" width="96.7" height="96.7"/>
<rect x="967.3" y="385.8" class="st58" width="96.7" height="96.7"/>
<rect x="776" y="239.2" class="st57" width="74" height="74"/>
<g>
	<path class="st16" d="M695.7,580.7c-25.7,0-48.1,14.7-61,37c12.7,22.3,35.3,37,61,37c25.7,0,48.1-14.9,61-37
		C743.8,595.4,721.4,580.7,695.7,580.7z M695.7,645.4c-15.4,0-27.7-12.5-27.7-27.7c0-15.4,12.5-27.7,27.7-27.7
		c15.4,0,27.7,12.5,27.7,27.7C723.4,633,711,645.4,695.7,645.4z"/>
	<circle class="st16" cx="695.7" cy="617.7" r="17.9"/>
</g>
<g>
	<path class="st16" d="M195,270c-25.7,0-48.1,14.7-61,37c12.7,22.3,35.3,37,61,37s48.1-14.9,61-37C243.1,284.7,220.7,270,195,270z
		 M195,334.7c-15.4,0-27.7-12.5-27.7-27.7c0-15.4,12.5-27.7,27.7-27.7c15.4,0,27.7,12.5,27.7,27.7
		C222.7,322.4,210.4,334.7,195,334.7z"/>
	<circle class="st16" cx="195" cy="307" r="17.9"/>
</g>
<g>
	<path class="st16" d="M971,139.3c-25.7,0-48.1,14.7-61,37c12.7,22.3,35.3,37,61,37s48.1-14.9,61-37
		C1019.1,154.1,996.7,139.3,971,139.3z M971,204c-15.4,0-27.7-12.5-27.7-27.7c0-15.4,12.5-27.7,27.7-27.7
		c15.4,0,27.7,12.5,27.7,27.7C998.7,191.7,986.4,204,971,204z"/>
	<circle class="st16" cx="971" cy="176.3" r="17.9"/>
</g>
<g>
	<circle class="st50" cx="327.3" cy="463.5" r="23.3"/>
	<circle class="st50" cx="816" cy="472.2" r="23.3"/>
	<circle class="st50" cx="808" cy="85.5" r="23.3"/>
	<circle class="st50" cx="130.7" cy="105.5" r="23.3"/>
	<circle class="st50" cx="498.7" cy="255.5" r="23.3"/>
</g>
<g>
	<defs>
		<polygon id="SVGID_5_" points="886.8,667.2 995.4,667.2 941.4,557.9 		"/>
	</defs>
	<clipPath id="SVGID_2_">
		<use xlink:href="#SVGID_5_"  style="overflow:visible;"/>
	</clipPath>
	<g style="clip-path:url(#SVGID_2_);">
		<g class="st0">
			<g>
				<path class="st56" d="M898.8,567.7c0.1,0,0.2,0,0.2,0c3.1,0,6-1.4,7.6-3.7c0,0,0,0,0,0c1.2-1.8,3.6-2.9,6.2-2.8
					c2.5,0.1,4.6,1.1,5.7,3c1.5,2.4,4.2,3.9,7.4,3.9c0.1,0,0.2,0,0.2,0c3.1,0,6-1.4,7.6-3.7c1.2-1.8,3.6-2.9,6.2-2.8
					c2.5,0.1,4.6,1.1,5.7,3c0,0,0,0,0,0c1.5,2.4,4.2,3.9,7.4,3.9c0.1,0,0.2,0,0.2,0c3.1,0,6-1.4,7.6-3.7v0c1.2-1.8,3.6-2.9,6.2-2.8
					c2.5,0.1,4.6,1.2,5.7,3c1.5,2.4,4.2,3.9,7.4,3.9c0.1,0,0.2,0,0.3,0c3.1,0,6-1.4,7.6-3.7c0.3-0.5,0.2-1.1-0.3-1.4
					C-0.5-0.3-1.1-0.2-1.4,0.3c-1.2,1.8-3.6,2.9-6.2,2.8c-2.5-0.1-4.6-1.2-5.7-3c-1.5-2.4-4.2-3.9-7.4-3.9c-3.3-0.1-6.3,1.3-7.9,3.7
					c0,0,0,0,0,0c-1.2,1.8-3.6,2.9-6.2,2.8c-2.5-0.1-4.6-1.1-5.7-3c0,0,0,0,0,0c-1.5-2.4-4.2-3.9-7.4-3.9c-3.2-0.1-6.3,1.3-7.9,3.7
					C-1.2,1.8-3.6,2.9-6.2,2.8c-2.5-0.1-4.6-1.1-5.7-3c-1.5-2.4-4.2-3.9-7.4-3.9c-3.2-0.1-6.3,1.3-7.9,3.7c0,0,0,0,0,0
					C-1.2,1.8-3.6,2.9-6.2,2.8c-2.5-0.1-4.6-1.1-5.7-3c-0.3-0.5-0.9-0.6-1.4-0.3c-0.5,0.3-0.6,0.9-0.3,1.4
					C892.9,566.1,895.7,567.6,898.8,567.7z"/>
			</g>
			<g>
				<path class="st56" d="M986.5,573.7c-1.2,1.8-3.6,2.9-6.2,2.8c-2.5-0.1-4.6-1.1-5.7-3c0,0,0,0,0,0c-1.5-2.4-4.2-3.9-7.4-3.9
					C-3.2-0.1-6.3,1.3-7.9,3.7c0,0,0,0,0,0c-1.2,1.8-3.6,2.9-6.2,2.8c-2.5-0.1-4.6-1.1-5.7-3c0,0,0,0,0,0c-1.5-2.4-4.2-3.9-7.4-3.9
					C-3.2-0.1-6.3,1.3-7.9,3.7c-1.2,1.8-3.6,2.9-6.2,2.8c-2.5-0.1-4.6-1.2-5.7-3c-1.5-2.4-4.2-3.9-7.4-3.9c-3.2-0.1-6.3,1.3-7.9,3.7
					C-1.2,1.8-3.6,2.9-6.2,2.8c-2.5-0.1-4.6-1.2-5.7-3c-0.3-0.5-0.9-0.6-1.4-0.3c-0.5,0.3-0.6,0.9-0.3,1.4c1.5,2.4,4.2,3.9,7.4,3.9
					c0.1,0,0.2,0,0.3,0c3.1,0,6-1.4,7.6-3.7c1.2-1.8,3.6-2.9,6.2-2.8c2.5,0.1,4.6,1.2,5.7,3c1.5,2.4,4.2,3.9,7.4,3.9
					c0.1,0,0.2,0,0.2,0c3.1,0,6-1.4,7.6-3.7c1.2-1.8,3.6-2.9,6.2-2.8c2.5,0.1,4.6,1.2,5.7,3c0,0,0,0,0,0c1.5,2.4,4.2,3.9,7.4,3.9
					c0.1,0,0.2,0,0.2,0c3.1,0,6-1.4,7.6-3.7c0,0,0,0,0,0c1.2-1.8,3.6-2.9,6.2-2.8c2.5,0.1,4.6,1.1,5.7,3c0,0,0,0,0,0
					c1.5,2.4,4.2,3.9,7.4,3.9c0.1,0,0.2,0,0.3,0c3.1,0,6-1.4,7.6-3.7c0.3-0.5,0.2-1.1-0.3-1.4C987.4,573.1,986.8,573.2,986.5,573.7z
					"/>
			</g>
			<g>
				<path class="st56" d="M986.5,592.7c-1.2,1.8-3.6,2.9-6.2,2.8c-2.5-0.1-4.6-1.1-5.7-3c0,0,0,0,0,0c-1.5-2.4-4.2-3.9-7.4-3.9
					C-3.2-0.1-6.3,1.3-7.9,3.7c-1.2,1.8-3.6,2.9-6.2,2.8c-2.5-0.1-4.6-1.2-5.7-3c-1.5-2.4-4.2-3.9-7.4-3.9c-3.2-0.1-6.3,1.3-7.9,3.7
					C-1.2,1.8-3.6,2.8-6.2,2.8c-2.5-0.1-4.6-1.1-5.7-3c-1.5-2.4-4.2-3.9-7.4-3.9c-3.2-0.1-6.3,1.3-7.9,3.7c-1.2,1.8-3.6,2.9-6.2,2.8
					C-2.5-0.1-4.6-1.1-5.7-3c-0.3-0.5-0.9-0.6-1.4-0.3c-0.5,0.3-0.6,0.9-0.3,1.4c1.5,2.4,4.2,3.9,7.4,3.9c0.1,0,0.2,0,0.2,0
					c3.1,0,6-1.4,7.6-3.7c1.2-1.8,3.6-2.8,6.2-2.8c2.5,0.1,4.6,1.1,5.7,3c1.5,2.4,4.2,3.9,7.4,3.9c0.1,0,0.2,0,0.2,0
					c3.1,0,6-1.4,7.6-3.7c1.2-1.8,3.6-2.8,6.2-2.8c2.5,0.1,4.6,1.2,5.7,3c1.5,2.4,4.2,3.9,7.4,3.9c0.1,0,0.2,0,0.3,0
					c3.1,0,6-1.4,7.6-3.7c1.2-1.8,3.6-2.9,6.2-2.8c2.5,0.1,4.6,1.2,5.7,3c0,0,0,0,0,0c1.5,2.4,4.2,3.9,7.4,3.9c0.1,0,0.2,0,0.3,0
					c3.1,0,6-1.4,7.6-3.7c0.3-0.5,0.2-1.1-0.3-1.4C987.4,592.2,986.8,592.3,986.5,592.7z"/>
			</g>
			<g>
				<path class="st56" d="M986.5,583.2c-1.2,1.8-3.6,2.9-6.2,2.8c-2.5-0.1-4.6-1.1-5.7-3c0,0,0,0,0,0c-1.5-2.4-4.2-3.9-7.4-3.9
					C-3.2-0.1-6.3,1.3-7.9,3.7c-1.2,1.8-3.6,2.9-6.2,2.8c-2.5-0.1-4.6-1.1-5.7-3c0,0,0,0,0,0c-1.5-2.4-4.2-3.9-7.4-3.9
					C-3.2-0.1-6.3,1.3-7.9,3.7c0,0,0,0,0,0c-1.2,1.8-3.6,2.9-6.2,2.8c-2.5-0.1-4.6-1.1-5.7-3c-1.5-2.4-4.2-3.9-7.4-3.9
					C-3.2-0.1-6.3,1.3-7.9,3.7c-1.2,1.8-3.6,2.8-6.2,2.8c-2.5-0.1-4.6-1.2-5.7-3c-0.3-0.5-0.9-0.6-1.4-0.3c-0.5,0.3-0.6,0.9-0.3,1.4
					c1.5,2.4,4.2,3.9,7.4,3.9c0.1,0,0.2,0,0.3,0c3.1,0,6-1.4,7.6-3.7c1.2-1.8,3.6-2.9,6.2-2.8c2.5,0.1,4.6,1.1,5.7,3
					c1.5,2.4,4.2,3.9,7.4,3.9c0.1,0,0.2,0,0.2,0c3.1,0,6-1.4,7.6-3.7c0,0,0,0,0,0c1.2-1.8,3.6-2.9,6.2-2.8c2.5,0.1,4.6,1.1,5.7,3
					c0,0,0,0,0,0c1.5,2.4,4.2,3.9,7.4,3.9c0.1,0,0.2,0,0.2,0c3.1,0,6-1.4,7.6-3.7c1.2-1.8,3.6-2.9,6.2-2.8c2.5,0.1,4.6,1.2,5.7,3
					c0,0,0,0,0,0c1.5,2.4,4.2,3.9,7.4,3.9c0.1,0,0.2,0,0.3,0c3.1,0,6-1.4,7.6-3.7c0.3-0.5,0.2-1.1-0.3-1.4
					C987.4,582.6,986.8,582.7,986.5,583.2z"/>
			</g>
			<g>
				<path class="st56" d="M986.5,602.2c-1.2,1.8-3.6,2.8-6.2,2.8c-2.5-0.1-4.6-1.1-5.7-3c0,0,0,0,0,0c-1.5-2.4-4.2-3.9-7.4-3.9
					C-3.3-0.1-6.3,1.3-7.9,3.7c-1.2,1.8-3.6,2.9-6.2,2.8c-2.5-0.1-4.6-1.1-5.7-3c-1.5-2.4-4.2-3.9-7.4-3.9c-3.2-0.1-6.3,1.3-7.9,3.7
					C-1.2,1.8-3.6,2.9-6.2,2.8c-2.5-0.1-4.6-1.1-5.7-3c-1.5-2.4-4.2-3.9-7.4-3.9c-3.2-0.1-6.3,1.3-7.9,3.7c-1.2,1.8-3.6,2.9-6.2,2.8
					C-2.5-0.1-4.6-1.1-5.7-3c-0.3-0.5-0.9-0.6-1.4-0.3c-0.5,0.3-0.6,0.9-0.3,1.4c1.5,2.4,4.2,3.9,7.4,3.9c0.1,0,0.2,0,0.2,0
					c3.1,0,6-1.4,7.6-3.7c1.2-1.8,3.6-2.9,6.2-2.8c2.5,0.1,4.6,1.2,5.7,3c1.5,2.4,4.2,3.9,7.4,3.9c0.1,0,0.2,0,0.2,0
					c3.1,0,6-1.4,7.6-3.7c1.2-1.8,3.6-2.9,6.2-2.8c2.5,0.1,4.6,1.1,5.7,3c1.5,2.4,4.2,3.9,7.4,3.9c0.1,0,0.2,0,0.2,0
					c3.1,0,6-1.4,7.6-3.7c1.2-1.8,3.6-2.9,6.2-2.8c2.5,0.1,4.6,1.2,5.7,3c0,0,0,0,0,0c1.5,2.4,4.2,3.9,7.4,3.9c0.1,0,0.2,0,0.2,0
					c3.1,0,6-1.4,7.6-3.7c0.3-0.5,0.2-1.1-0.3-1.4C987.4,601.7,986.8,601.8,986.5,602.2z"/>
			</g>
		</g>
		<g class="st0">
			<g>
				<path class="st56" d="M898.8,615.9c0.1,0,0.2,0,0.2,0c3.1,0,6-1.4,7.6-3.7c0,0,0,0,0,0c1.2-1.8,3.6-2.9,6.2-2.8
					c2.5,0.1,4.6,1.2,5.7,3c1.5,2.4,4.2,3.9,7.4,3.9c0.1,0,0.2,0,0.2,0c3.1,0,6-1.4,7.6-3.7c1.2-1.8,3.6-2.9,6.2-2.8
					c2.5,0.1,4.6,1.2,5.7,3c0,0,0,0,0,0c1.5,2.4,4.2,3.9,7.4,3.9c0.1,0,0.2,0,0.2,0c3.1,0,6-1.4,7.6-3.7v0c1.2-1.8,3.6-2.9,6.2-2.8
					c2.5,0.1,4.6,1.1,5.7,3c1.5,2.4,4.2,3.9,7.4,3.9c0.1,0,0.2,0,0.3,0c3.1,0,6-1.4,7.6-3.7c0.3-0.5,0.2-1.1-0.3-1.4
					C-0.5-0.3-1.1-0.2-1.4,0.3c-1.2,1.8-3.6,2.9-6.2,2.8c-2.5-0.1-4.6-1.2-5.7-3c-1.5-2.4-4.2-3.9-7.4-3.9c-3.3-0.1-6.3,1.3-7.9,3.7
					c0,0,0,0,0,0c-1.2,1.8-3.6,2.9-6.2,2.8c-2.5-0.1-4.6-1.1-5.7-3c0,0,0,0,0,0c-1.5-2.4-4.2-3.9-7.4-3.9c-3.2-0.1-6.3,1.3-7.9,3.7
					C-1.2,1.8-3.6,2.9-6.2,2.8c-2.5-0.1-4.6-1.1-5.7-3c-1.5-2.4-4.2-3.9-7.4-3.9c-3.2-0.1-6.3,1.3-7.9,3.7c0,0,0,0,0,0
					C-1.2,1.8-3.6,2.9-6.2,2.8c-2.5-0.1-4.6-1.1-5.7-3c-0.3-0.5-0.9-0.6-1.4-0.3c-0.5,0.3-0.6,0.9-0.3,1.4
					C892.9,614.4,895.7,615.8,898.8,615.9z"/>
			</g>
			<g>
				<path class="st56" d="M986.5,621.9c-1.2,1.8-3.6,2.9-6.2,2.8c-2.5-0.1-4.6-1.1-5.7-3c0,0,0,0,0,0c-1.5-2.4-4.2-3.9-7.4-3.9
					C-3.2-0.1-6.3,1.3-7.9,3.7c0,0,0,0,0,0c-1.2,1.8-3.6,2.9-6.2,2.8c-2.5-0.1-4.6-1.1-5.7-3c0,0,0,0,0,0c-1.5-2.4-4.2-3.9-7.4-3.9
					C-3.2-0.1-6.3,1.3-7.9,3.7c-1.2,1.8-3.6,2.9-6.2,2.8c-2.5-0.1-4.6-1.2-5.7-3c-1.5-2.4-4.2-3.9-7.4-3.9c-3.2-0.1-6.3,1.3-7.9,3.7
					C-1.2,1.8-3.6,2.9-6.2,2.8c-2.5-0.1-4.6-1.1-5.7-3c-0.3-0.5-0.9-0.6-1.4-0.3s-0.6,0.9-0.3,1.4c1.5,2.4,4.2,3.9,7.4,3.9
					c0.1,0,0.2,0,0.3,0c3.1,0,6-1.4,7.6-3.7c1.2-1.8,3.6-2.9,6.2-2.8c2.5,0.1,4.6,1.1,5.7,3c1.5,2.4,4.2,3.9,7.4,3.9
					c0.1,0,0.2,0,0.2,0c3.1,0,6-1.4,7.6-3.7c1.2-1.8,3.6-2.9,6.2-2.8c2.5,0.1,4.6,1.2,5.7,3c0,0,0,0,0,0c1.5,2.4,4.2,3.9,7.4,3.9
					c0.1,0,0.2,0,0.2,0c3.1,0,6-1.4,7.6-3.7c0,0,0,0,0,0c1.2-1.8,3.6-2.9,6.2-2.8c2.5,0.1,4.6,1.2,5.7,3c0,0,0,0,0,0
					c1.5,2.4,4.2,3.9,7.4,3.9c0.1,0,0.2,0,0.3,0c3.1,0,6-1.4,7.6-3.7c0.3-0.5,0.2-1.1-0.3-1.4C987.4,621.4,986.8,621.5,986.5,621.9z
					"/>
			</g>
			<g>
				<path class="st56" d="M986.5,641c-1.2,1.8-3.6,2.9-6.2,2.8c-2.5-0.1-4.6-1.1-5.7-3c0,0,0,0,0,0c-1.5-2.4-4.2-3.9-7.4-3.9
					C-3.2-0.1-6.3,1.3-7.9,3.7c-1.2,1.8-3.6,2.9-6.2,2.8c-2.5-0.1-4.6-1.2-5.7-3c-1.5-2.4-4.2-3.9-7.4-3.9c-3.2-0.1-6.3,1.3-7.9,3.7
					C-1.2,1.8-3.6,2.8-6.2,2.8c-2.5-0.1-4.6-1.1-5.7-3c-1.5-2.4-4.2-3.9-7.4-3.9c-3.2-0.1-6.3,1.3-7.9,3.7c-1.2,1.8-3.6,2.9-6.2,2.8
					C-2.5-0.1-4.6-1.1-5.7-3c-0.3-0.5-0.9-0.6-1.4-0.3c-0.5,0.3-0.6,0.9-0.3,1.4c1.5,2.4,4.2,3.9,7.4,3.9c0.1,0,0.2,0,0.2,0
					c3.1,0,6-1.4,7.6-3.7c1.2-1.8,3.6-2.8,6.2-2.8c2.5,0.1,4.6,1.2,5.7,3c1.5,2.4,4.2,3.9,7.4,3.9c0.1,0,0.2,0,0.2,0
					c3.1,0,6-1.4,7.6-3.7c1.2-1.8,3.6-2.8,6.2-2.8c2.5,0.1,4.6,1.2,5.7,3c1.5,2.4,4.2,3.9,7.4,3.9c0.1,0,0.2,0,0.3,0
					c3.1,0,6-1.4,7.6-3.7c1.2-1.8,3.6-2.9,6.2-2.8c2.5,0.1,4.6,1.1,5.7,3c0,0,0,0,0,0c1.5,2.4,4.2,3.9,7.4,3.9c0.1,0,0.2,0,0.3,0
					c3.1,0,6-1.4,7.6-3.7c0.3-0.5,0.2-1.1-0.3-1.4C987.4,640.4,986.8,640.5,986.5,641z"/>
			</g>
			<g>
				<path class="st56" d="M986.5,631.5c-1.2,1.8-3.6,2.9-6.2,2.8c-2.5-0.1-4.6-1.1-5.7-3c0,0,0,0,0,0c-1.5-2.4-4.2-3.9-7.4-3.9
					C-3.2-0.1-6.3,1.3-7.9,3.7c-1.2,1.8-3.6,2.9-6.2,2.8c-2.5-0.1-4.6-1.1-5.7-3c0,0,0,0,0,0c-1.5-2.4-4.2-3.9-7.4-3.9
					C-3.2-0.1-6.3,1.3-7.9,3.7c0,0,0,0,0,0c-1.2,1.8-3.6,2.9-6.2,2.8c-2.5-0.1-4.6-1.1-5.7-3c-1.5-2.4-4.2-3.9-7.4-3.9
					C-3.2-0.1-6.3,1.3-7.9,3.7c-1.2,1.8-3.6,2.8-6.2,2.8c-2.5-0.1-4.6-1.1-5.7-3c-0.3-0.5-0.9-0.6-1.4-0.3s-0.6,0.9-0.3,1.4
					c1.5,2.4,4.2,3.9,7.4,3.9c0.1,0,0.2,0,0.3,0c3.1,0,6-1.4,7.6-3.7c1.2-1.8,3.6-2.9,6.2-2.8c2.5,0.1,4.6,1.2,5.7,3
					c1.5,2.4,4.2,3.9,7.4,3.9c0.1,0,0.2,0,0.2,0c3.1,0,6-1.4,7.6-3.7c0,0,0,0,0,0c1.2-1.8,3.6-2.9,6.2-2.8c2.5,0.1,4.6,1.2,5.7,3
					c0,0,0,0,0,0c1.5,2.4,4.2,3.9,7.4,3.9c0.1,0,0.2,0,0.2,0c3.1,0,6-1.4,7.6-3.7c1.2-1.8,3.6-2.9,6.2-2.8c2.5,0.1,4.6,1.1,5.7,3
					c0,0,0,0,0,0c1.5,2.4,4.2,3.9,7.4,3.9c0.1,0,0.2,0,0.3,0c3.1,0,6-1.4,7.6-3.7c0.3-0.5,0.2-1.1-0.3-1.4
					C987.4,630.9,986.8,631,986.5,631.5z"/>
			</g>
			<g>
				<path class="st56" d="M986.5,650.5c-1.2,1.8-3.6,2.8-6.2,2.8c-2.5-0.1-4.6-1.1-5.7-3c0,0,0,0,0,0c-1.5-2.4-4.2-3.9-7.4-3.9
					C-3.3-0.1-6.3,1.3-7.9,3.7c-1.2,1.8-3.6,2.9-6.2,2.8c-2.5-0.1-4.6-1.1-5.7-3c-1.5-2.4-4.2-3.9-7.4-3.9c-3.2-0.1-6.3,1.3-7.9,3.7
					C-1.2,1.8-3.6,2.9-6.2,2.8c-2.5-0.1-4.6-1.2-5.7-3c-1.5-2.4-4.2-3.9-7.4-3.9c-3.2-0.1-6.3,1.3-7.9,3.7c-1.2,1.8-3.6,2.9-6.2,2.8
					C-2.5-0.1-4.6-1.1-5.7-3c-0.3-0.5-0.9-0.6-1.4-0.3c-0.5,0.3-0.6,0.9-0.3,1.4c1.5,2.4,4.2,3.9,7.4,3.9c0.1,0,0.2,0,0.2,0
					c3.1,0,6-1.4,7.6-3.7c1.2-1.8,3.6-2.9,6.2-2.8c2.5,0.1,4.6,1.1,5.7,3c1.5,2.4,4.2,3.9,7.4,3.9c0.1,0,0.2,0,0.2,0
					c3.1,0,6-1.4,7.6-3.7c1.2-1.8,3.6-2.9,6.2-2.8c2.5,0.1,4.6,1.1,5.7,3c1.5,2.4,4.2,3.9,7.4,3.9c0.1,0,0.2,0,0.2,0
					c3.1,0,6-1.4,7.6-3.7c1.2-1.8,3.6-2.9,6.2-2.8c2.5,0.1,4.6,1.2,5.7,3c0,0,0,0,0,0c1.5,2.4,4.2,3.9,7.4,3.9c0.1,0,0.2,0,0.2,0
					c3.1,0,6-1.4,7.6-3.7c0.3-0.5,0.2-1.1-0.3-1.4C987.4,649.9,986.8,650.1,986.5,650.5z"/>
			</g>
		</g>
	</g>
</g>
<g>
	<g>
		<line class="st60" x1="31" y1="0.8" x2="31" y2="3.3"/>
		<line class="st61" x1="31" y1="8.4" x2="31" y2="177.1"/>
		<line class="st60" x1="31" y1="179.7" x2="31" y2="182.2"/>
	</g>
</g>
<g>
	<g>
		<line class="st60" x1="1120.7" y1="538.2" x2="1120.7" y2="540.7"/>
		<line class="st61" x1="1120.7" y1="545.7" x2="1120.7" y2="714.5"/>
		<line class="st60" x1="1120.7" y1="717" x2="1120.7" y2="719.5"/>
	</g>
</g>
</svg>
