<?xml version="1.0" encoding="utf-8"?>
<!-- Generator: Adobe Illustrator 22.1.0, SVG Export Plug-In . SVG Version: 6.00 Build 0)  -->
<svg version="1.1" id="Layer_1" xmlns="http://www.w3.org/2000/svg" xmlns:xlink="http://www.w3.org/1999/xlink" x="0px" y="0px"
	 viewBox="0 0 17.5 17.5" style="enable-background:new 0 0 17.5 17.5;" xml:space="preserve">
<style type="text/css">
	.st0{fill:#707584;}
	.st1{fill:none;stroke:#707584;stroke-linecap:round;stroke-miterlimit:10;}
</style>
<g>
	<g>
		<g>
			<path class="st0" d="M16,17.5H0v-16h8.5C8.8,1.5,9,1.7,9,2S8.8,2.5,8.5,2.5H1v14h14v-6.2c0-0.3,0.2-0.5,0.5-0.5S16,10,16,10.2
				V17.5z"/>
		</g>
		<g>
			<path class="st1" d="M15.5,8.2"/>
		</g>
		<g>
			<path class="st1" d="M10.5,2"/>
		</g>
	</g>
	<g>
		<path class="st0" d="M6.9,13.6c-0.1,0-0.2,0-0.3-0.1c-0.1-0.1-0.2-0.3-0.2-0.4l0.3-3.2c0-0.1,0-0.2,0.1-0.3l7-9.4
			C14,0,14.3-0.1,14.5,0.1l2.8,2c0.1,0.1,0.2,0.2,0.2,0.3c0,0.1,0,0.3-0.1,0.4l-7,9.4c-0.1,0.1-0.1,0.1-0.2,0.2l-3,1.1
			C7,13.6,7,13.6,6.9,13.6z M7.7,10.1l-0.2,2.3l2.2-0.8l6.6-8.9l-2-1.5L7.7,10.1z"/>
	</g>
</g>
</svg>
