<svg id="Layer_1" data-name="Layer 1" xmlns="http://www.w3.org/2000/svg" viewBox="0 0 86 86"><defs><style>.cls-1{fill:none;stroke:#d0d1d7;}.cls-1,.cls-3{stroke-miterlimit:10;}.cls-2,.cls-3{fill:#d0d1d7;}.cls-3{stroke:#fff;}</style></defs><title>exports-icon</title><circle class="cls-1" cx="43" cy="43" r="42.5" transform="translate(-9.37 12.09) rotate(-14.45)"/><path class="cls-2" d="M41.35,60.68H22.44a4.94,4.94,0,0,1-4.94-4.93V17.91H60.27v7.4H68.5V55.75a4.94,4.94,0,0,1-4.94,4.93H53.69M19.15,19.56V55.75a3.29,3.29,0,1,0,6.58,0V22H38.57l1.65,3.29H58.63V19.56Z"/><polygon class="cls-3" points="53.69 68.09 52.05 43.41 56.98 43.41 47.11 31.89 37.24 43.41 42.18 43.41 40.53 68.09 53.69 68.09"/></svg>