<?xml version="1.0" encoding="utf-8"?>
<!-- Generator: Adobe Illustrator 22.1.0, SVG Export Plug-In . SVG Version: 6.00 Build 0)  -->
<svg version="1.1" id="Layer_1" xmlns="http://www.w3.org/2000/svg" xmlns:xlink="http://www.w3.org/1999/xlink" x="0px" y="0px"
	 viewBox="0 0 44.2 44.2" style="enable-background:new 0 0 44.2 44.2;" xml:space="preserve">
<style type="text/css">
	.st0{fill:#8AB3DC;}
</style>
<g>
	<path class="st0" d="M0,43.7c0,0.1,0,0.3,0.1,0.4s0.2,0.1,0.3,0.1h0.1l10-3.2C14,43.1,18,44.2,22,44.2c12.2,0,22.1-9.9,22.1-22.1
		S34.3,0,22.1,0S0,9.9,0,22.1c0,4.1,1.1,8.1,3.2,11.5L0,43.7z M0.9,22.1c0-11.7,9.5-21.2,21.2-21.2s21.2,9.5,21.2,21.2
		s-9.5,21.2-21.2,21.2c-4,0-7.9-1.1-11.2-3.2c-0.1,0-0.2-0.1-0.2-0.1h-0.1l-9.4,3l3-9.4c0-0.1,0-0.3,0-0.4C2,30,0.9,26.1,0.9,22.1z"
		/>
	<path class="st0" d="M15.8,18.1c0.2,0,0.5-0.2,0.5-0.5c0-1.7,0.8-3.4,2.1-4.5c1.3-1.1,3.1-1.6,4.8-1.3c2.4,0.4,4.3,2.4,4.7,4.7
		c0.5,2.9-1.1,5.7-3.9,6.6c-1.4,0.5-2.3,1.7-2.3,3.2v3.2c0,0.2,0.2,0.5,0.5,0.5s0.5-0.2,0.5-0.5v-3.2c0-1,0.7-2,1.7-2.3
		c3.2-1.1,5.1-4.3,4.5-7.7c-0.5-2.7-2.7-5-5.4-5.4c-2-0.4-4,0.2-5.6,1.5c-1.5,1.3-2.4,3.2-2.4,5.2C15.3,17.9,15.5,18.1,15.8,18.1z"
		/>
	<path class="st0" d="M22.1,32.5L22.1,32.5c-0.3,0-0.5,0.2-0.5,0.5s0.2,0.5,0.5,0.5c0.2,0,0.5-0.2,0.5-0.5S22.4,32.5,22.1,32.5z"/>
</g>
</svg>
