<?xml version="1.0" encoding="utf-8"?>
<!-- Generator: Adobe Illustrator 22.1.0, SVG Export Plug-In . SVG Version: 6.00 Build 0)  -->
<svg version="1.1" id="Layer_1" xmlns="http://www.w3.org/2000/svg" xmlns:xlink="http://www.w3.org/1999/xlink" x="0px" y="0px"
	 viewBox="0 0 100 95.6" style="enable-background:new 0 0 100 95.6;" xml:space="preserve">
<style type="text/css">
	.st0{fill:#FFF6EC;}
	.st1{fill:#FFFFFF;}
	.st2{fill:#83C0E9;}
	.st3{fill:#F27123;}
	.st4{fill:#FAB37F;}
	.st5{fill:#82BFE8;}
	.st6{fill:#18204E;}
	.st7{fill:#F37224;}
	.st8{fill:#264275;}
	.st9{fill:#FBB47F;}
	.st10{fill:#274275;}
	.st11{fill:#FDF7BD;}
	.st12{fill:#FCCFA9;}
	.st13{fill:#6A3515;}
	.st14{fill:#5898D1;}
	.st15{fill:#2E3191;}
	.st16{fill:#F6921E;}
	.st17{fill:#86364A;}
</style>
<g>
	<g>
		<g>
			<g>
				<g>
					<path class="st0" d="M98.8,43.2C98.7,43.2,98.7,43.2,98.8,43.2c-0.1,0.2-0.1,0.5-0.2,0.8c-0.4,2.3-3.2,3.3-5.5,3.9
						C-22.8,6-34.8,5.1-58.1,5.1c-3.8,0-18.1-0.3-22.9-1.4c-3.7-0.8-8.4-2.3-10.7-5.3c-0.4-0.6-0.8-1.2-0.9-1.9
						C0.2,53.7-1.6,77.1,3.9,85C9,92.4,38.5,96.3,54.4,95.4c12.7-0.7,25.3-3.4,37.2-7.7c2.5-0.9,5.1-2,6.6-4.2
						c1.3-1.9,1.5-4.4,1.6-6.8C100.3,65.4,99.9,54.4,98.8,43.2z"/>
				</g>
				<g>
					<path class="st1" d="M72,34c-8.3,0-58-0.3-70.3,7.6c-1.7,1.1-1.4,3.1-0.1,4.7c2.3,3,6.9,4.5,10.7,5.3c4.7,1.1,19,1.4,22.9,1.4
						c23.3,0,35.3,0.9,58.1-5.1c2.3-0.6,5-1.6,5.5-3.9C100.1,35.9,80.3,34,72,34z"/>
				</g>
				<g>
					<g>
						<path class="st2" d="M85.8,84.7c0,0-0.1,0-0.1,0c0,0,0,0-0.1,0c-1.3-0.5-3,0.1-3.5,1.4c-0.5,1.2,0.3,2.3,1.4,2.8
							c1.1,0.5,2.6,0.4,3.3-0.7C87.6,86.9,87,85.3,85.8,84.7z"/>
					</g>
					<g>
						<path class="st3" d="M89.5,76.7c-0.1,0-0.1,0-0.1,0.1c0,0-0.1,0-0.1,0c0,0,0,0-0.1,0c0,0-0.1,0-0.1,0.1
							C-0.9,0.6-1.1,1.9-0.6,2.8c0.6,0.9,1.8,1.4,2.8,0.8C93.1,79.4,91.5,76.2,89.5,76.7z"/>
					</g>
					<g>
						<path class="st4" d="M93.8,80.6C93.7,80.6,93.7,80.6,93.8,80.6c-0.1,0.1-0.2,0.1-0.2,0.1c-2.1,1.2-0.3,4.3,1.8,3.6
							c1-0.3,1.3-1.4,1-2.3C96.1,80.8,94.9,80.2,93.8,80.6z"/>
					</g>
					<g>
						<path class="st3" d="M80.9,79.5c-1-0.5-2.2,0-2.8,1c-0.1,0.1-0.1,0.2-0.2,0.4c-0.1,0.2,0,0.3,0,0.5c0,0.8,0.4,1.5,1.1,1.9
							c1.1,0.5,2.6,0,3-1.2C82.3,81.1,81.8,79.9,80.9,79.5z"/>
					</g>
					<g>
						<path class="st5" d="M95.9,73.8C95.9,73.8,95.9,73.8,95.9,73.8c-0.1,0-0.2,0-0.2,0c-2.3,0.6-1.8,4.1,0.6,4
							c1-0.1,1.8-0.9,1.8-2C98.1,74.7,97,73.7,95.9,73.8z"/>
					</g>
					<g>
						<path class="st6" d="M87,73.2c0.9-0.1,1.3-0.8,1.4-1.6c0-0.2,0.1-0.3,0-0.5c0-0.2-0.1-0.3-0.2-0.4c-0.5-0.8-1.3-1.2-2.3-1
							C-1,0.2-1.5,1.2-1.1,2.1C85.1,72.8,86,73.4,87,73.2z"/>
					</g>
					<g>
						<path class="st4" d="M96.4,67.1c0,0-0.1-0.1-0.1-0.1c0,0,0,0,0,0c0,0,0,0,0,0c-0.1,0-0.1-0.1-0.2-0.1
							C-0.9-0.1-1.8,0.3-1.9,1.3c-0.1,0.7,0.2,1.6,1,1.8C96.8,70.4,97.9,68,96.4,67.1z"/>
					</g>
					<g>
						<path class="st4" d="M78.5,71.1c0.2,0,0.3,0,0.4-0.1c0.8-0.2,1.3-0.8,1.4-1.6c0-1-0.8-1.8-1.8-1.8c-1,0-1.8,0.8-1.8,1.8
							C76.7,70.4,77.5,71.1,78.5,71.1z"/>
					</g>
					<g>
						<path class="st7" d="M78.3,87c0,0-0.1,0-0.1,0c0,0-0.1,0-0.1-0.1c-0.9-0.3-2,0-2.6,0.9c-0.6,0.9-0.2,2.1,0.8,2.5
							c0.9,0.4,2.1,0.1,2.7-0.7C79.6,88.7,79.3,87.5,78.3,87z"/>
					</g>
					<g>
						<path class="st6" d="M19.5,88c0,0-0.1,0-0.1,0c0,0-0.1,0-0.1-0.1c-0.9-0.3-2,0-2.6,0.9c-0.6,0.9-0.2,2.1,0.8,2.5
							c0.9,0.4,2.1,0.1,2.7-0.7C20.8,89.7,20.4,88.5,19.5,88z"/>
					</g>
					<g>
						<path class="st8" d="M5.8,76.4c0,0-0.1,0-0.1,0c0,0-0.1,0-0.1-0.1c-0.9-0.3-2,0-2.6,0.9c-0.6,0.9-0.2,2.1,0.8,2.5
							c0.9,0.4,2.1,0.1,2.7-0.7C7.1,78.1,6.8,76.9,5.8,76.4z"/>
					</g>
					<g>
						<path class="st6" d="M76,83.7c0.3-1.2-0.6-2.3-1.7-2.4c0,0-0.1,0-0.1,0c-0.1,0-0.1,0-0.2,0c-1.1,0-1.9,0.7-1.8,1.8
							c0,0.9,0.5,1.8,1.5,2C74.7,85.3,75.7,84.7,76,83.7z"/>
					</g>
					<g>
						<path class="st6" d="M3.7,64.8c0.2-0.6-0.3-1.2-0.9-1.3c0,0,0,0,0,0c0,0-0.1,0-0.1,0c-0.6,0-1,0.4-1,1c0,0.5,0.3,1,0.8,1.1
							C3,65.6,3.5,65.3,3.7,64.8z"/>
					</g>
					<g>
						<path class="st9" d="M71.7,85.5c-0.1-0.1-0.3-0.1-0.4-0.1c-1-0.3-2,0.1-2.6,1.1c-0.6,1,0,2.4,1.1,2.9c0.9,0.4,2.1,0,2.7-0.8
							C73.1,87.6,72.7,86.2,71.7,85.5z"/>
					</g>
					<g>
						<path class="st5" d="M67.8,91.8c0-0.1,0-0.2,0-0.2c0,0,0,0,0,0v0c0-0.1,0-0.1,0-0.2c0-0.9-0.8-1.7-1.6-1.9c-1-0.2-2,0.5-2,1.5
							C64.1,93,67.1,93.8,67.8,91.8z"/>
					</g>
					<g>
						<path class="st10" d="M71.1,81.1c0.1-1-0.7-1.8-1.7-1.9c0,0-0.1,0-0.1,0c0,0,0,0-0.1,0c0,0,0,0,0,0c-0.1,0-0.1,0-0.2,0
							C-1,0.3-1.8,1.4-1.7,2.4c0.1,1.1,1,1.8,2.1,1.6C70.3,83,71,82,71.1,81.1z"/>
					</g>
					<g>
						<path class="st4" d="M72.8,77.1c0.1,0,0.1,0,0.2,0.1c0,0,0,0,0.1,0c0,0,0.1,0,0.1,0l0,0c0.9,0.3,2-0.2,2.2-1.2
							c0.2-0.9-0.3-2.1-1.2-2.5C72.1,72.6,71.1,76.1,72.8,77.1z"/>
					</g>
					<g>
						<path class="st5" d="M12.7,84.1C12.7,84.1,12.7,84.1,12.7,84.1c0.1-0.1,0.1-0.1,0.1-0.1c0,0,0,0,0-0.1c0,0,0.1-0.1,0.1-0.1
							c0.4-0.8,0.1-2-0.5-2.6c-0.8-0.8-2.3-0.7-3,0.2C7.9,83.3,11.1,85.6,12.7,84.1z"/>
					</g>
					<g>
						<path class="st6" d="M54.9,91c-1-0.2-2,0.4-2.3,1.4c0,0.1,0,0.1,0,0.2c0,0,0,0,0,0.1c0,0,0,0.1,0,0.1c0,0,0,0.1,0,0.1
							c0,1,0.9,1.9,1.9,1.9c0.9,0,1.6-0.7,1.8-1.5C56.4,92.2,55.9,91.2,54.9,91z"/>
					</g>
					<g>
						<path class="st3" d="M36.6,91.4C36.6,91.4,36.6,91.4,36.6,91.4c-0.1,0.1-0.1,0.1-0.1,0.2c-0.5,0.8-0.4,1.8,0.4,2.3
							c0.8,0.6,2.1,0.5,2.7-0.4c0.4-0.6,0.4-1.5-0.1-2.1C38.7,90.5,37.3,90.6,36.6,91.4z"/>
					</g>
					<g>
						<path class="st5" d="M47.6,91.2c-1,0-1.8,0.8-1.5,1.8c0.2,0.9,1.2,1.5,2.1,1.4c0.9-0.1,1.6-0.9,1.4-1.8
							C49.3,91.6,48.5,91.2,47.6,91.2z"/>
					</g>
					<g>
						<path class="st4" d="M84.6,75.9c0,0-0.1,0-0.1,0c0,0-0.1,0-0.1,0c-1,0-1.9,0.8-2,1.8c-0.1,1,0.7,1.7,1.6,1.8
							c0.9,0.1,1.8-0.5,2-1.4C86.2,77.1,85.5,76.1,84.6,75.9z"/>
					</g>
					<g>
						<path class="st4" d="M35.9,84.8C35.9,84.8,35.9,84.8,35.9,84.8c-0.1,0-0.1,0-0.2,0c0,0,0,0-0.1,0c-0.1,0-0.1,0-0.2,0
							C-1,0-1.9,0.7-1.8,1.8c0.1,0.9,0.9,1.7,1.7,1.8c1,0.2,1.9-0.4,2-1.4C37.5,86,36.8,85,35.9,84.8z"/>
					</g>
					<g>
						<path class="st6" d="M31.4,90.3C31.4,90.3,31.4,90.3,31.4,90.3c-0.1,0-0.1,0-0.2,0c-0.1,0-0.1,0-0.2,0c0,0,0,0-0.1,0
							c0,0,0,0-0.1,0c0,0-0.1,0-0.1,0c-0.8,0.3-1.3,1.1-1,1.9c0.3,0.9,1.2,1.3,2.1,1.1c0.8-0.2,1.3-0.8,1.2-1.6
							C32.9,90.9,32.2,90.4,31.4,90.3z"/>
					</g>
					<g>
						<path class="st3" d="M31.4,87.8c0.4-0.8,0-1.8-0.8-2.3c0,0-0.1,0-0.1-0.1c0,0,0,0-0.1,0c0,0,0,0,0,0c-0.1,0-0.1-0.1-0.2-0.1
							C-0.9-0.2-1.9,0.2-2.1,1.2c-0.2,0.9,0.1,1.8,1,2.2C30,89,31,88.6,31.4,87.8z"/>
					</g>
					<g>
						<path class="st6" d="M33.7,80.1c-0.2-0.9-1.2-1.4-2.1-1.2c-0.1,0-0.3,0-0.4,0.2c-1.6,1.1-0.6,4,1.5,3.3
							C33.5,82,33.9,80.9,33.7,80.1z"/>
					</g>
					<g>
						<path class="st4" d="M25.4,81.8c-0.1,0-0.2,0-0.2,0.1c0,0,0,0-0.1,0c0,0-0.1,0.1-0.1,0.1c0,0-0.1,0-0.1,0.1c0,0,0,0,0,0
							C-0.1,0.1-0.1,0.1-0.2,0.2c-0.4,0.6-0.3,1.4,0.2,1.9c0.4,0.5,1.1,0.5,1.7,0.3c0.9-0.3,1.2-1.2,0.7-2
							C27,81.8,26.2,81.6,25.4,81.8z"/>
					</g>
					<g>
						<path class="st6" d="M78.4,72.7c-0.1,0-0.2,0-0.2,0.1c0,0,0,0-0.1,0c0,0-0.1,0.1-0.1,0.1c0,0-0.1,0-0.1,0.1c0,0,0,0,0,0
							C-0.1,0.1-0.1,0.1-0.2,0.2c-0.4,0.6-0.3,1.4,0.2,1.9c0.4,0.5,1.1,0.5,1.7,0.3c0.9-0.3,1.2-1.2,0.7-2
							C80,72.7,79.2,72.5,78.4,72.7z"/>
					</g>
					<g>
						<path class="st6" d="M90.9,84.3c-0.1,0-0.2,0-0.2,0.1c0,0,0,0-0.1,0c0,0-0.1,0.1-0.1,0.1c0,0-0.1,0-0.1,0.1c0,0,0,0,0,0
							C-0.1,0.1-0.1,0.1-0.2,0.2c-0.4,0.6-0.3,1.4,0.2,1.9c0.4,0.5,1.1,0.5,1.7,0.3c0.9-0.3,1.2-1.2,0.7-2
							C92.4,84.3,91.6,84.1,90.9,84.3z"/>
					</g>
					<g>
						<path class="st5" d="M25,87.4C25,87.4,25,87.4,25,87.4c-0.1,0-0.1,0-0.1,0c0,0,0,0-0.1,0c-0.1,0-0.1,0-0.2,0
							C-0.9,0-1.9,0.7-1.9,1.6c0,1,0.9,1.8,1.8,1.9C26.7,91.1,26.8,88,25,87.4z"/>
					</g>
					<g>
						<path class="st4" d="M19.3,82.6c-0.2-0.1-0.4-0.1-0.5,0c-0.7,0-1.3,0.4-1.5,1.1c-0.2,0.9,0.5,1.8,1.3,2
							c0.9,0.2,1.9-0.2,2.1-1.1C20.9,83.7,20.1,82.9,19.3,82.6z"/>
					</g>
					<g>
						<path class="st6" d="M24,78.6c0.1,0.1,0.2,0.3,0.4,0.3c0.7,0.3,1.5,0.1,1.9-0.4c0.1-0.1,0.1-0.1,0.2-0.2c0,0,0,0,0,0
							c0,0,0,0,0,0c0-0.1,0.1-0.1,0.1-0.2c0,0,0-0.1,0-0.1c0,0,0,0,0,0c0.1-0.8-0.4-1.7-1.2-1.9c-0.9-0.3-1.9,0.2-2.1,1.2
							C-0.1,0.5,0,1,0.4,1.4C23.7,78.5,23.9,78.6,24,78.6z"/>
					</g>
					<g>
						<path class="st3" d="M30.9,76.6c0.1,0.1,0.2,0.2,0.3,0.2c0.7,0.4,1.5,0.3,2-0.4c0.5-0.7,0.4-1.7-0.4-2.3
							C-0.7-0.5-1.5-0.4-2,0.2c-0.5,0.6-0.5,1.3-0.2,1.9C30.7,76.4,30.7,76.5,30.9,76.6z"/>
					</g>
					<g>
						<path class="st4" d="M29.3,67.8c0-0.9-0.7-1.8-1.6-2c0,0-0.1,0-0.1,0c0,0-0.1,0-0.1,0c-1,0-1.7,0.7-1.6,1.7
							c0.1,0.9,0.8,1.5,1.6,1.7C28.5,69.4,29.3,68.7,29.3,67.8z"/>
					</g>
					<g>
						<path class="st3" d="M13.5,85.7c-0.8-0.2-1.6,0.2-2,0.8c-0.1,0.1-0.2,0.2-0.2,0.4c-0.5,2.1,2.8,2.8,3.4,0.8
							C14.9,86.9,14.4,86,13.5,85.7z"/>
					</g>
					<g>
						<path class="st8" d="M19,78c-0.5-1.1-2-1.4-2.8-0.5c0,0,0,0.1-0.1,0.1c0,0-0.1,0-0.1,0.1c-0.6,0.8-0.7,2-0.1,2.8
							c0.6,0.8,1.8,1.2,2.6,0.5C19.3,80.2,19.4,78.9,19,78z"/>
					</g>
					<g>
						<path class="st5" d="M21.6,70.8c0-0.1-0.1-0.1-0.1-0.1c0,0,0,0,0-0.1c0,0,0,0-0.1-0.1c0,0,0,0-0.1-0.1c-0.7-0.6-1.8-0.7-2.5,0
							C-0.7,0.7-1.4,1.7-0.7,2.6C19.6,75.2,22.8,73,21.6,70.8z"/>
					</g>
					<g>
						<path class="st3" d="M12.5,76.2c-0.4-0.7-1.2-1-1.9-0.8c-0.2,0-0.3,0-0.5,0.1c-0.1,0.1-0.2,0.2-0.3,0.3
							C-1.1,1.3,0.3,3.6,2,2.7C12.7,78,13,77,12.5,76.2z"/>
					</g>
					<g>
						<path class="st6" d="M13.7,74.5c2,0.9,2.6-2.2,1-3.1c-0.1-0.1-0.3-0.1-0.4-0.1c0,0,0,0,0,0c-0.8-0.1-1.5,0.6-1.7,1.3
							C12.3,73.4,12.9,74.2,13.7,74.5z"/>
					</g>
					<g>
						<path class="st4" d="M6.6,82.5C6.5,82.5,6.5,82.5,6.6,82.5c-0.1,0-0.1,0-0.2,0c0,0,0,0-0.1,0c-0.1,0-0.1,0-0.2,0
							C-1,0.3-1.8,1.4-1.5,2.5c0.2,1,1.4,1.5,2.4,1.3C9,85.8,8.7,82.4,6.6,82.5z"/>
					</g>
					<g>
						<path class="st3" d="M4.3,74.9c0.9-1.5-1.5-3.1-2.6-1.7c0,0,0,0,0,0.1c0,0,0,0.1-0.1,0.1c0,0.1-0.1,0.1-0.1,0.2
							c0,0,0,0.1-0.1,0.1C1,75.2,3.5,76.5,4.3,74.9z"/>
					</g>
					<g>
						<path class="st4" d="M9.3,69.3c0.3-0.5,0.1-1.2-0.4-1.6c-0.5-0.4-1.2-0.3-1.7,0.2c-0.2,0.2-0.3,0.5-0.3,0.7
							C6.8,69.9,8.6,70.6,9.3,69.3z"/>
					</g>
					<g>
						<path class="st3" d="M98.9,65.6c0.3-0.5,0.1-1.2-0.4-1.6c-0.5-0.4-1.2-0.3-1.7,0.2c-0.2,0.2-0.3,0.5-0.3,0.7
							C96.4,66.1,98.2,66.8,98.9,65.6z"/>
					</g>
					<g>
						<path class="st3" d="M27.3,72.5c0.3-0.5,0.1-1.2-0.4-1.6c-0.5-0.4-1.2-0.3-1.7,0.2c-0.2,0.2-0.3,0.5-0.3,0.7
							C24.8,73.1,26.6,73.8,27.3,72.5z"/>
					</g>
					<g>
						<path class="st3" d="M15.5,66.4c0.7-0.4,0.8-1.4,0.6-2.2c-0.4-1-1.6-1.4-2.6-0.9c-0.1,0-0.1,0.1-0.1,0.1c0,0,0,0-0.1,0
							c0,0-0.1,0.1-0.1,0.1c0,0,0,0,0,0C12,65,13.9,67.4,15.5,66.4z"/>
					</g>
					<g>
						<path class="st4" d="M73.6,66.6c0,0,0.1,0,0.1,0c0,0,0.1,0,0.1,0c0.7,0.2,1.6,0.1,1.9-0.7c0.3-0.7-0.2-1.5-0.8-1.9
							C-0.7-0.5-1.6-0.2-1.9,0.5c-0.3,0.6-0.2,1.3,0.2,1.8C73.3,66.4,73.4,66.5,73.6,66.6z"/>
					</g>
					<g>
						<path class="st3" d="M89.7,63.1C89.6,63.1,89.6,63,89.7,63.1c-0.1-0.1-0.2-0.2-0.2-0.2c0,0,0,0,0,0c-1.3-0.9-2.9,0.9-1.8,2
							C88.8,66.1,90.6,64.6,89.7,63.1C89.7,63.1,89.7,63.1,89.7,63.1z"/>
					</g>
				</g>
			</g>
			<g>
				<g>
					<g>
						<path class="st11" d="M22.1,7.5c-0.1-1.5-0.2-3.1-1.3-4.1c0,0-0.8,1.7-1.1,2.4c-0.1,0.4-0.3,0.8-0.5,1.2
							C-0.2,0.3-0.4,0.6-0.5,0.9c-0.3,0.6-0.2,1.3-0.1,2c0,0.3,0.1,0.6,0.3,0.8c0.1,0.1,0.2,0.2,0.4,0.2c0.6,0.3,1.3,0.4,1.9,0
							c0.2-0.2,0.4-0.4,0.6-0.7C22.2,9.4,22.2,8.4,22.1,7.5z"/>
					</g>
					<g>
						<path class="st12" d="M20.6,7.8c-0.1-0.2-0.1-0.5-0.2-0.7c-0.4,0.5-0.7,1.1-0.7,1.8c0,0.4,0.1,0.8,0.3,1.1
							c0.1,0.1,0.3,0.3,0.4,0.2c0.1,0,0.1-0.1,0.1-0.2c0.2-0.6,0.2-1.2,0.1-1.8C20.7,8.1,20.7,8,20.6,7.8z"/>
					</g>
					<g>
						<path class="st13" d="M20.9,14.8c-0.2-1.6-0.5-3.2-0.4-4.9c0-0.2-0.4-0.2-0.4,0c0,1.7,0.2,3.3,0.4,4.9
							C20.6,15,21,15,20.9,14.8L20.9,14.8z"/>
					</g>
					<g>
						<path class="st8" d="M18.3,46.1c0.3,0.6,1.1,0.8,1.7,0.9c0.4,0.1,0.8,0.1,1.1,0.1c0.4-0.1,0.7-0.2,1-0.6
							c0.1-0.1,0.1-0.3,0.2-0.4c0.4-9.7,0.8-18.7,0.3-28.1c0-0.5-0.2-1-0.4-1.5c-0.4-0.8-1-1.8-1.5-1.8c-0.6,0-1.1,1.2-1.4,2.1
							C-0.1,0.4-0.2,0.8-0.2,1.1c-0.3,9.3-0.6,18.6-0.9,27.8C18.2,45.9,18.3,46,18.3,46.1z"/>
					</g>
					<g>
						<g>
							<path class="st6" d="M22.8,22.8c-1.3-0.6-2.6-1.3-3.8-2.2c0,0.5,0,1,0,1.5c1.2,0.8,2.5,1.5,3.9,2.1
								C22.8,23.8,22.8,23.3,22.8,22.8z"/>
						</g>
						<g>
							<path class="st6" d="M22.9,27.2c-1.4-0.5-2.7-1.1-4-2c0,0.5,0,1,0,1.5c1.3,0.8,2.6,1.4,4,1.8C22.9,28.1,22.9,27.7,22.9,27.2z
								"/>
						</g>
						<g>
							<path class="st6" d="M22.6,18.1c-0.5-0.2-1-0.5-1.4-0.7c-0.6-0.3-1.2-0.6-1.7-1c-0.1,0.1-0.1,0.3-0.1,0.4
								C-0.1,0.3-0.2,0.6-0.2,1c1.1,0.8,2.4,1.4,3.6,1.8C22.7,19.1,22.6,18.6,22.6,18.1z"/>
						</g>
						<g>
							<path class="st6" d="M22.5,41.9c0-0.4,0-0.9,0.1-1.3c-0.8-0.2-1.6-0.5-2.4-1c-0.6-0.4-1.1-0.9-1.7-1.3c0,0.5,0,1-0.1,1.5
								c0.6,0.4,1.1,0.9,1.8,1.2C20.9,41.5,21.7,41.8,22.5,41.9z"/>
						</g>
						<g>
							<path class="st6" d="M22.4,44.7c-1.4-0.6-2.8-1.3-4.1-2.2c0,0.5,0,1-0.1,1.5c1.3,0.9,2.6,1.6,4.1,2.1
								C22.3,45.7,22.4,45.2,22.4,44.7z"/>
						</g>
						<g>
							<path class="st6" d="M22.8,31.5c-1.4-0.5-2.8-1.2-4.1-2.1c0,0.5,0,1,0,1.5c1.3,0.8,2.7,1.4,4.1,1.9
								C22.8,32.4,22.8,32,22.8,31.5z"/>
						</g>
						<g>
							<path class="st6" d="M22.7,36.1c-1.5-0.5-2.8-1.4-4.1-2.4c0,0.5,0,1-0.1,1.5c1.3,0.9,2.6,1.7,4.1,2.2
								C22.7,37,22.7,36.6,22.7,36.1z"/>
						</g>
					</g>
				</g>
				<g>
					<g>
						<path class="st11" d="M71.8,4.3c-0.4-1.6-1.4-3.1-2.5-4.3c0,0-2.1,4-2.2,6.1c0,0.8,0,1.7,0.5,2.3C68,9,68.7,9.3,69.4,9.5
							c0.2,0.1,0.5,0.1,0.8,0.1c0.2-0.1,0.4-0.3,0.6-0.4C71.9,7.8,72.2,6,71.8,4.3z"/>
					</g>
					<g>
						<path class="st12" d="M69.3,4.6c-0.2,0.4-0.4,0.7-0.5,1.1c-0.1,0.2-0.2,0.3-0.2,0.5c0,0.2,0,0.3,0,0.5c0,0.2,0,0.5,0,0.7
							c0,0.2,0,0.3,0.1,0.5c0.1,0.2,0.4,0.4,0.6,0.5c0.1,0,0.1,0.1,0.2,0c0,0,0.1,0,0.1-0.1c0.4-0.5,0.7-1.1,0.7-1.7
							C70.1,5.4,69.3,4.6,69.3,4.6z"/>
					</g>
					<g>
						<path class="st13" d="M69.8,11.7c0.1-1.4,0-2.9-0.2-4.3c0-0.2-0.4-0.1-0.4,0.1c0.2,1.4,0.3,2.8,0.2,4.2
							C69.4,11.9,69.8,11.9,69.8,11.7L69.8,11.7z"/>
					</g>
					<g>
						<path class="st0" d="M67.7,43.1c0.2,0.3,0.4,0.6,0.8,0.7c1.1,0.4,2.3-0.2,3.3-0.6c0.1,0,0.2-0.1,0.2-0.1
							c0.1-0.1,0.3-0.3,0.3-0.7c0-9.3-0.2-18.7-0.6-27.3c0-0.6-0.2-1.1-0.5-1.6c-0.5-0.8-1.1-1.8-1.6-1.8c-0.4,0-1,1.3-1.3,2.2
							C-0.2,0.4-0.2,0.9-0.2,1.3c0.1,8.6-0.4,19.4-0.5,27.2C67.7,42.5,67.7,42.8,67.7,43.1z"/>
					</g>
					<g>
						<g>
							<path class="st4" d="M71.8,16.6c0-0.5,0-0.9-0.1-1.4c-1.2-0.4-2.3-0.9-3.4-1.4c-0.1,0.4-0.2,0.8-0.2,1.3c0,0,0,0.1,0,0.1
								C69.3,15.8,70.5,16.3,71.8,16.6z"/>
						</g>
						<g>
							<path class="st4" d="M72.1,24.7c-1.4-0.5-2.7-1.1-4-1.9c0,0.5,0,1,0,1.5c1.3,0.7,2.6,1.4,4,1.8
								C72.1,25.6,72.1,25.1,72.1,24.7z"/>
						</g>
						<g>
							<path class="st4" d="M68.2,19.6c1.2,0.6,2.5,1.1,3.8,1.6c0-0.5,0-0.9-0.1-1.4c-1.3-0.5-2.6-1-3.8-1.7
								C68.2,18.6,68.2,19.1,68.2,19.6z"/>
						</g>
						<g>
							<path class="st4" d="M72.3,34.6c-1.6-0.6-3-1.5-4.4-2.4c0,0.5,0,1,0,1.5c1.4,0.9,2.9,1.7,4.4,2.2
								C72.3,35.5,72.3,35.1,72.3,34.6z"/>
						</g>
						<g>
							<path class="st4" d="M72.3,39.4c-1.6-0.5-3.1-1.4-4.5-2.2c0,0.5,0,1,0,1.5c1.5,0.8,3,1.7,4.6,2.1
								C72.3,40.3,72.3,39.9,72.3,39.4z"/>
						</g>
						<g>
							<path class="st4" d="M72.2,29.6c-1.5-0.4-2.9-1.3-4.2-2.2c0,0.5,0,1,0,1.5c1.3,0.9,2.7,1.6,4.2,2
								C72.2,30.5,72.2,30.1,72.2,29.6z"/>
						</g>
						<g>
							<path class="st4" d="M67.9,43.4c0.3,0.2,0.5,0.3,0.8,0.5c0.7,0.2,1.5,0,2.2-0.3c-1.1-0.5-2.2-1.2-3.2-1.8c0,0.2,0,0.4,0,0.6
								c0,0.3,0,0.5,0,0.8C67.7,43.2,67.8,43.3,67.9,43.4z"/>
						</g>
					</g>
				</g>
				<g>
					<g>
						<path class="st11" d="M28.9,11.1c-0.2-1.2-0.7-2.3-1.3-3.3c0,0-0.6,2-1,2.7c-0.2,0.4-0.5,0.9-0.6,1.3c-0.2,0.6-0.3,1.3-0.2,2
							c0.1,0.4,0.2,0.8,0.5,1.1c0.3,0.3,0.7,0.5,1.1,0.4c0.4-0.1,0.7-0.4,0.9-0.7C28.9,13.5,29.1,12.3,28.9,11.1z"/>
					</g>
					<g>
						<path class="st12" d="M27.4,11.3L27.4,11.3c-0.1,0.3-0.2,0.4-0.4,0.6c-0.2,0.4-0.5,0.7-0.6,1.1c-0.1,0.4,0.1,0.9,0.5,1.1
							c0,0,0.1,0,0.1,0c0,0,0.1,0,0.1-0.1c0.4-0.3,0.6-0.8,0.6-1.3C27.8,12.3,27.6,11.8,27.4,11.3z"/>
					</g>
					<g>
						<path class="st13" d="M27.5,18.7c-0.1-1.6-0.5-3.1-0.3-4.7c0-0.2-0.3-0.2-0.4,0c-0.2,1.6,0.1,3.2,0.3,4.7
							C27.1,18.9,27.5,18.9,27.5,18.7L27.5,18.7z"/>
					</g>
					<g>
						<path class="st0" d="M28.1,48.6c0.5,0.2,1,0.2,1.5,0.2c0.5,0,1,0.1,1.4-0.1c0.4-0.2,0.8-0.6,0.9-1c-0.5-9.2-1-17.9-1.7-25.5
							C-0.1-0.6-0.3-1.2-0.7-1.7c-0.8-0.9-1.7-2-2.4-1.9c-0.6,0.1-1.2,1.4-1.5,2.7c-0.2,0.6-0.2,1.2-0.2,1.8
							c0.6,8.3,1.2,16.6,1.8,24.9C27.4,48.2,27.7,48.4,28.1,48.6z"/>
					</g>
					<g>
						<g>
							<path class="st4" d="M26.5,36.6c1.5,0.9,3.1,1.5,4.9,1.6c0-0.4-0.1-0.9-0.1-1.3c-1.8-0.2-3.4-0.9-4.9-1.9
								C26.4,35.5,26.4,36.1,26.5,36.6z"/>
						</g>
						<g>
							<path class="st4" d="M30.3,23c-1.6-0.4-3.2-1-4.6-1.9c0,0,0,0.1,0,0.1c-0.1,0.4-0.2,0.8-0.2,1.2c1.5,0.9,3.2,1.5,5,1.8
								C30.4,23.9,30.3,23.4,30.3,23z"/>
						</g>
						<g>
							<path class="st4" d="M27.1,45.7c1.5,0.8,3.2,1.4,4.8,1.6c0-0.4,0-0.9-0.1-1.3c-1.6-0.3-3.4-1-4.8-1.8
								C27,44.7,27,45.2,27.1,45.7z"/>
						</g>
						<g>
							<path class="st4" d="M26.7,39.7c0,0.5,0.1,1,0.1,1.5c0.6,0.3,1.1,0.6,1.7,0.8c1,0.4,2.1,0.5,3.1,0.6c0-0.4,0-0.9-0.1-1.3
								C-1-0.1-1.9-0.2-2.8-0.6C28,40.4,27.3,40,26.7,39.7z"/>
						</g>
						<g>
							<path class="st4" d="M26.1,31.6c1.6,0.9,3.2,1.4,5,1.8c0-0.4-0.1-0.9-0.1-1.3c-1.8-0.4-3.4-1-5-2C26,30.5,26,31.1,26.1,31.6z
								"/>
						</g>
						<g>
							<path class="st4" d="M25.8,27.2c1.6,0.7,3.2,1.4,5,1.6c0-0.4-0.1-0.9-0.1-1.3c-1.7-0.2-3.4-1-5-1.7
								C25.7,26.2,25.7,26.7,25.8,27.2z"/>
						</g>
					</g>
				</g>
				<g>
					<g>
						<path class="st11" d="M88.5,8.3c-0.5,0.6-1.2,2.3-1.6,3.5c-0.2,0.7-0.4,1.5,0,2.2c0.2,0.4,0.6,0.6,0.9,0.8
							c0.3,0.2,0.8,0.3,1.1,0.1c0.1-0.1,0.2-0.2,0.3-0.3C90.5,12.9,90.1,10.2,88.5,8.3z"/>
					</g>
					<g>
						<path class="st12" d="M88.7,10.9c0,0-0.7,0.8-0.7,1.6c0,0.2,0,0.5,0.1,0.7c0,0.1,0.1,0.2,0.1,0.3c0.1,0.2,0.3,0.3,0.5,0.4
							c0,0,0.1,0,0.1,0c0,0,0.1,0,0.1,0c0.2-0.1,0.3-0.3,0.3-0.5C89.4,11.9,88.8,11.1,88.7,10.9z"/>
					</g>
					<g>
						<path class="st13" d="M87.8,18c0.3-1.6,1.3-3,1.1-4.6c0-0.2-0.4-0.2-0.4,0c0.1,1.6-0.8,3-1.1,4.5C87.4,18.2,87.7,18.3,87.8,18
							L87.8,18z"/>
					</g>
					<g>
						<path class="st8" d="M84.5,44.6c0.7,0.1,1.4,0,1.9-0.3c0.2-0.1,0.5-0.3,0.6-0.5c0.7-7.8,1.4-15.3,2.1-21.7
							c0.1-0.8,0-1.5-0.3-2.3c-0.3-1-0.8-2.1-1.3-2.1c-0.5,0-1.1,0.7-1.7,1.5c-0.5,0.8-0.9,1.6-1,2.5c-0.7,5.9-1.3,13.7-2,22
							C83.4,44.3,83.9,44.5,84.5,44.6z"/>
					</g>
					<g>
						<g>
							<path class="st6" d="M84.7,39.8c0.8,0.7,1.7,1.1,2.6,1.6c0-0.5,0.1-0.9,0.1-1.4c-0.6-0.3-1.2-0.7-1.8-1.1
								C-0.8-0.7-1.5-1.5-2.1-2.4c-0.1,0.6-0.1,1.3-0.2,1.9C83.8,38.9,84.2,39.3,84.7,39.8z"/>
						</g>
						<g>
							<path class="st6" d="M87.7,37.1c0-0.5,0.1-1,0.1-1.5c-0.5-0.4-0.9-0.7-1.4-1.1c-0.9-0.7-1.8-1.5-2.5-2.3
								c0,0.6-0.1,1.1-0.1,1.7c0.6,0.5,1.1,1,1.7,1.5C86.2,36,86.9,36.6,87.7,37.1z"/>
						</g>
						<g>
							<path class="st6" d="M88.2,30.9c-1.5-0.8-2.8-1.8-3.9-3c-0.1,0.5-0.1,1.1-0.2,1.7c1.2,1.1,2.5,2,4,2.8
								C88.2,31.8,88.2,31.3,88.2,30.9z"/>
						</g>
						<g>
							<path class="st6" d="M84.5,44.6c0.6,0.1,1.2,0,1.8-0.3c-1.2-0.8-2.3-1.8-3.2-3c0,0.6-0.1,1.2-0.1,1.8
								C83.5,43.7,84,44.2,84.5,44.6z"/>
						</g>
						<g>
							<path class="st6" d="M85.8,19.4c-0.2,0.4-0.4,0.8-0.6,1.2c1.2,1,2.4,1.9,3.8,2.7c0-0.4,0.1-0.8,0.1-1.1c0-0.1,0-0.2,0-0.3
								C88,21.1,86.9,20.3,85.8,19.4z"/>
						</g>
						<g>
							<path class="st6" d="M84.6,24.9c1.2,1,2.6,1.9,4,2.5c0-0.5,0.1-0.9,0.1-1.4c-1.4-0.7-2.7-1.7-4-2.7
								C84.7,23.9,84.7,24.4,84.6,24.9z"/>
						</g>
					</g>
				</g>
				<g>
					<g>
						<path class="st11" d="M81.2,5.6c-0.2-1.3-0.9-3.1-1.9-4c0,0-1.7,3.9-1.9,5.7c-0.1,1.1,0,2.4,0.9,3.2c0.2,0.2,0.5,0.3,0.7,0.5
							c0.1,0.1,0.3,0.1,0.4,0.1c0.2,0,0.4-0.1,0.5-0.2c0.7-0.6,1.2-1.5,1.3-2.4C81.5,7.5,81.3,6.6,81.2,5.6z"/>
					</g>
					<g>
						<path class="st12" d="M79.7,7.7c-0.1-0.4-0.3-0.8-0.4-1.3c-0.7,0.8-1,1.9-0.9,3c0,0.1,0,0.3,0.1,0.4c0.1,0.1,0.2,0.2,0.4,0.3
							c0.1,0.1,0.2,0.1,0.4,0.1c0.1,0,0.1-0.1,0.1-0.1c0.2-0.3,0.4-0.6,0.5-0.9C80,8.7,79.9,8.2,79.7,7.7z"/>
					</g>
					<g>
						<path class="st13" d="M79.4,13.9c-0.5-1.4-0.5-2.8-0.2-4.2c0.1-0.2-0.3-0.3-0.4-0.1c-0.3,1.5-0.3,3,0.2,4.4
							C79.1,14.2,79.5,14.1,79.4,13.9L79.4,13.9z"/>
					</g>
					<g>
						<path class="st5" d="M77,45.7c0.2,0.4,0.6,0.6,1,0.8c0.5,0.2,0.9,0.2,1.4,0.2c0.2,0,0.5-0.1,0.7-0.2c0.3-0.2,0.8-0.5,1-0.8
							c0.2-9.2,0.4-18.1,0.4-27.9c0-0.7-0.2-1.4-0.5-2.1c-0.5-0.9-1.1-2-1.7-2c-0.5,0-1.1,1.1-1.5,2.1c-0.3,0.7-0.4,1.4-0.3,2.1
							c0.7,10.1-0.1,13.2-0.4,22.6C77.1,41.5,77.1,43.4,77,45.7z"/>
					</g>
					<g>
						<g>
							<path class="st14" d="M81.5,27.5c0-0.4,0-0.9,0-1.3c-1.3-0.4-2.5-1-3.7-1.8c0,0.5,0,1,0,1.5C79,26.6,80.2,27.2,81.5,27.5z"/>
						</g>
						<g>
							<path class="st14" d="M81.4,30.5c-1.3-0.5-2.5-1.1-3.7-1.8c0,0.5,0,1-0.1,1.5c1.2,0.7,2.4,1.3,3.7,1.7
								C81.4,31.4,81.4,31,81.4,30.5z"/>
						</g>
						<g>
							<path class="st14" d="M81.5,21.9c-1.4-0.7-2.7-1.3-3.9-2.2c0,0.6,0.1,1.1,0.1,1.6c1.2,0.8,2.5,1.4,3.8,2.1
								C81.5,22.8,81.5,22.4,81.5,21.9z"/>
						</g>
						<g>
							<path class="st14" d="M81.2,43.8c-1.4-0.6-2.8-1.3-4.1-2.2c0,0.4,0,0.9,0,1.5c1.3,0.8,2.6,1.5,4.1,2
								C81.1,44.7,81.2,44.2,81.2,43.8z"/>
						</g>
						<g>
							<path class="st14" d="M81.2,40.9c0-0.4,0-0.9,0-1.3c-0.9-0.2-1.7-0.5-2.5-1c-0.5-0.3-1-0.7-1.5-1.1c0,0.5,0,1-0.1,1.5
								c0.5,0.4,1,0.8,1.6,1.1C79.6,40.5,80.4,40.8,81.2,40.9z"/>
						</g>
						<g>
							<path class="st14" d="M81.4,35.1c-1.4-0.5-2.6-1.3-3.8-2.2c0,0.5-0.1,1-0.1,1.5c1.2,0.9,2.5,1.6,3.9,2
								C81.3,36,81.4,35.6,81.4,35.1z"/>
						</g>
						<g>
							<path class="st14" d="M81.6,17.8c0-0.2,0-0.4,0-0.6c-0.6-0.2-1.2-0.6-1.7-0.9c-0.6-0.3-1.2-0.6-1.7-1
								C-0.1,0.2-0.1,0.3-0.2,0.5c-0.1,0.3-0.2,0.5-0.2,0.8c1.2,0.8,2.6,1.6,3.9,2C81.6,18.4,81.6,18.1,81.6,17.8z"/>
						</g>
					</g>
				</g>
				<g>
					<g>
						<path class="st11" d="M13.3,11.4C13,9.9,12,8.6,11,7.4c0,0-1.9,3.6-2.4,5.4c-0.1,0.5-0.3,1-0.1,1.5c0.2,0.9,1.3,1.4,2.3,1.6
							c0.6,0.1,1.2,0.1,1.8-0.2c0.7-0.4,0.8-1.3,0.9-2.1C13.4,12.8,13.4,12.1,13.3,11.4z"/>
					</g>
					<g>
						<path class="st12" d="M11.5,12.3c-0.2-0.5-0.5-0.7-0.5-0.7c0,0.3-0.2,0.5-0.3,0.7c-0.3,0.5-0.4,1.2-0.3,1.7
							c0,0.1,0,0.1,0.1,0.2c0.1,0.1,0.1,0.1,0.2,0.1c0.2,0.1,0.4,0.1,0.5,0.1c0.2-0.1,0.3-0.2,0.3-0.3
							C11.8,13.6,11.7,12.9,11.5,12.3z"/>
					</g>
					<g>
						<path class="st13" d="M11.3,18.3c0.2-1.4,0-2.8-0.1-4.2c0-0.2-0.4-0.2-0.4,0c0.1,1.3,0.3,2.8,0.1,4.1
							C10.9,18.4,11.3,18.5,11.3,18.3L11.3,18.3z"/>
					</g>
					<g>
						<path class="st5" d="M8.8,45.7c0,0.1,0.1,0.2,0.2,0.2c0.8,0.6,1.8,0.8,2.8,0.8c0.4,0,0.8,0,1.1-0.3c0.3-0.2,0.4-0.6,0.5-1
							C-0.2-7.2-0.5-16.1-0.4-23.4c0-0.5-0.1-1-0.3-1.5c-0.4-1-0.8-2.5-1.3-2.5c-0.4,0-1.1,1.2-1.5,2.1c-0.3,0.5-0.4,1.1-0.4,1.7
							C-0.4,7.5-0.5,15.6-0.6,23.7C8.7,45.6,8.7,45.7,8.8,45.7z"/>
					</g>
					<g>
						<g>
							<path class="st14" d="M12.6,24.3c0.1,0,0.2,0.1,0.3,0.1c0-0.5,0-0.9,0-1.4c0,0,0,0-0.1,0c-1.2-0.6-2.2-1.2-3.1-2.1
								C-0.1-0.1-0.1-0.1-0.2-0.1c-0.1,0.4-0.2,0.7-0.2,1.1c0,0.1,0,0.2,0,0.4c0.8,0.7,1.6,1.3,2.6,1.7
								C12.1,24.1,12.4,24.2,12.6,24.3z"/>
						</g>
						<g>
							<path class="st14" d="M13.2,41.5c0-0.4,0-0.9,0-1.4c-1.6-0.7-3-1.6-4.3-2.7c0,0,0,0,0,0c0,0.5,0,1.1,0,1.6
								c1.3,1,2.7,1.8,4.3,2.5C13.1,41.5,13.2,41.5,13.2,41.5z"/>
						</g>
						<g>
							<path class="st14" d="M13.3,43.9c-1.6-0.4-3.2-1.3-4.5-2.3c0,0.5,0,1.1,0,1.6c1.4,1,2.9,1.8,4.6,2.1
								C13.3,44.8,13.3,44.4,13.3,43.9z"/>
						</g>
						<g>
							<path class="st14" d="M13.1,37.2c0-0.5,0-0.9,0-1.4c-1.5-0.7-3-1.4-4.1-2.6c0,0,0,0-0.1-0.1c0,0.6,0,1.1,0,1.7
								C10.1,35.8,11.6,36.4,13.1,37.2C13,37.2,13.1,37.2,13.1,37.2z"/>
						</g>
						<g>
							<path class="st14" d="M13,32.8c0-0.5,0-0.9,0-1.4c-1.4-0.7-2.7-1.5-3.9-2.5c0,0,0,0,0,0c0,0.5,0,1,0,1.6
								c1.2,0.9,2.5,1.7,3.9,2.3C12.9,32.8,12.9,32.8,13,32.8z"/>
						</g>
						<g>
							<path class="st14" d="M12.9,28.8c0-0.5,0-0.9,0-1.4c-1.4-0.6-2.5-2-3.7-2.9c0,0.5,0,1-0.1,1.5c1.2,1,2.2,2.1,3.7,2.6
								C12.8,28.8,12.9,28.8,12.9,28.8z"/>
						</g>
					</g>
				</g>
			</g>
		</g>
		<g>
			<g>
				<g>
					<polygon class="st6" points="27.5,56.3 44,90 49.6,80.1 37.9,56.3 					"/>
				</g>
				<g>
					<g>
						<path class="st15" d="M27.5,56.4l4.2,8.4l4.2,8.4c1.4,2.8,2.7,5.6,4.1,8.4c1.3,2.8,2.7,5.6,4.1,8.4l-0.1,0l5.5-9.9l0,0.1
							l-3-5.9l-2.9-5.9l-2.9-5.9l-2.9-6l0.1,0.1L27.5,56.4z M27.5,56.3l10.4-0.1c0.1,0,0.1,0,0.1,0.1l0,0l3,5.9l2.9,5.9l2.9,5.9
							l2.9,5.9l0,0c0,0,0,0.1,0,0.1L44.1,90c0,0-0.1,0-0.1,0c0,0,0,0,0,0c-1.4-2.8-2.8-5.6-4.2-8.4c-1.4-2.8-2.8-5.6-4.2-8.4
							l-4.1-8.4L27.5,56.3z"/>
					</g>
				</g>
			</g>
			<g>
				<g>
					<polygon class="st6" points="63.5,80.1 51.8,56.3 41.4,56.3 57.9,90 					"/>
				</g>
				<g>
					<g>
						<path class="st15" d="M63.5,80.1l-6-11.8l-5.9-11.8l0.1,0.1l-10.4,0l0.2-0.3l8.2,16.8L58,89.9l-0.2,0L63.5,80.1z M63.5,80.1
							L58,90c0,0-0.1,0.1-0.1,0c0,0,0,0,0,0l-8.3-16.8l-8.3-16.8c0-0.1,0-0.2,0.1-0.2c0,0,0.1,0,0.1,0l10.4,0c0.1,0,0.1,0,0.1,0.1
							l5.8,11.9L63.5,80.1z"/>
					</g>
				</g>
			</g>
			<g>
				<g>
					<polygon class="st3" points="70.6,69.8 64,56.3 55.2,56.3 65.9,78 					"/>
				</g>
				<g>
					<path class="st16" d="M70.6,69.8l-1.7-3.4c-0.6-1.1-1.1-2.2-1.7-3.3l-1.6-3.3l-1.6-3.4l0.1,0.1l-4.4-0.1l-2.2,0l-2.2,0l0.1-0.1
						c0.9,1.8,1.8,3.6,2.7,5.4c0.9,1.8,1.8,3.6,2.7,5.4c0.9,1.8,1.8,3.6,2.7,5.4c0.9,1.8,1.8,3.6,2.6,5.4l-0.3,0
						c0.8-1.3,1.6-2.7,2.4-4L70.6,69.8z M70.6,69.8l-2.2,4.1c-0.7,1.4-1.5,2.8-2.3,4.1c0,0.1-0.2,0.1-0.2,0.1c0,0-0.1,0-0.1-0.1l0,0
						C-0.9-1.8-1.8-3.6-2.7-5.4c-0.9-1.8-1.8-3.6-2.7-5.4c-0.9-1.8-1.8-3.6-2.6-5.4c-0.9-1.8-1.7-3.6-2.6-5.4c0,0,0-0.1,0-0.1
						c0,0,0,0,0,0l2.2,0l2.2,0l4.4-0.1c0.1,0,0.1,0,0.1,0.1l0,0l1.7,3.4l1.6,3.4c0.5,1.1,1.1,2.3,1.6,3.4
						C69.6,67.5,70.1,68.7,70.6,69.8z"/>
				</g>
			</g>
		</g>
	</g>
	<g>
		<g>
			<g>
				<path class="st11" d="M41.7,15.2c-0.2-1.2-0.6-2.4-1.1-3.6c0,0-0.7,1-1,1.5c-0.2,0.4-0.4,0.9-0.5,1.3c-0.2,0.8-0.4,1.7-0.2,2.4
					c0.1,0.2,0.2,0.4,0.4,0.6c0.1,0.1,0.3,0.1,0.5,0.2c0.3,0.1,0.6,0.3,0.9,0.3c0.3,0,0.6-0.2,0.8-0.5C41.9,16.9,41.8,16,41.7,15.2z
					"/>
			</g>
			<g>
				<path class="st12" d="M40.4,14.7l-0.1-0.3c-0.1,0.3-0.3,0.6-0.4,0.9c-0.1,0.3-0.2,0.6-0.2,1c0,0.3,0.2,0.7,0.5,0.8
					c0,0,0.1,0,0.1,0c0,0,0.1,0,0.1-0.1c0.3-0.3,0.5-0.8,0.4-1.2C40.8,15.5,40.6,15.1,40.4,14.7z"/>
			</g>
			<g>
				<path class="st17" d="M40.4,19.8c0.1-1,0.1-2,0-3c0-0.2-0.3-0.2-0.3,0c0.1,1,0,2,0,3C40.1,19.9,40.4,19.9,40.4,19.8L40.4,19.8z"
					/>
			</g>
		</g>
		<g>
			<g>
				<path class="st11" d="M52.7,11.5c0,0-0.5,1.2-0.7,1.7c-0.3,0.7-0.6,1.5-0.6,2.2c-0.1,0.8,0.1,1.6,0.6,2.2
					c0.3,0.4,0.8,0.6,1.2,0.6c0.4,0,0.7-0.3,0.9-0.6c0.2-0.3,0.3-0.7,0.4-1C54.8,14.7,54.1,12.7,52.7,11.5z"/>
			</g>
			<g>
				<g>
					<path class="st12" d="M53,14.8c-0.1,0.1-0.1,0.3-0.2,0.4c-0.1,0.3-0.3,0.6-0.3,0.9c-0.1,0.3,0,0.7,0.2,0.9
						c0.1,0.1,0.2,0.2,0.3,0.2c0.1,0,0.3-0.1,0.4-0.2c0.1-0.1,0.2-0.2,0.2-0.4C53.6,15.4,53.2,15,53,14.8z"/>
				</g>
			</g>
			<g>
				<path class="st17" d="M53.1,20.1c0.1-1.2,0.3-2.2,0.1-3.4c0-0.2-0.3-0.1-0.3,0.1c0.2,1.2,0,2.2-0.1,3.3
					C52.8,20.2,53.1,20.2,53.1,20.1L53.1,20.1z"/>
			</g>
		</g>
		<g>
			<path class="st9" d="M43.8,28.3c0,0.7,0,1.4,0,2.1c0,0.7,0,1.4-0.1,2.1c0,1.1-0.1,2.3-0.1,3.4c0,1.1,0,2.2-0.1,3.4
				c0,0.4,0,0.9-0.1,1.5c0,0.6-0.1,1.3-0.2,1.9c-0.1,0.6-0.4,1.1-0.7,1.6c-0.3,0.5-0.7,0.7-1.3,0.7c-0.5,0-1-0.2-1.3-0.5
				C-0.3-0.4-0.6-0.8-0.8-1.4c-0.2-0.6-0.3-1.2-0.4-1.9c-0.1-0.7-0.1-1.4-0.1-2.1c0-0.7,0-1.3,0-1.9c0-0.6,0-1,0-1.3
				c0-1.5,0-3,0-4.5c0-1.5,0-3,0-4.5c-0.4-0.4-0.8-0.8-1-1.4c-0.3-0.5-0.4-1.1-0.4-1.7c0-0.9,0.3-1.7,0.8-2.3c0.5-0.6,1.3-1,2.2-1
				c0.8,0,1.5,0.3,1.9,0.9c0.5,0.6,0.8,1.4,1,2.2c0.2,0.9,0.3,1.7,0.4,2.6C43.7,27,43.8,27.7,43.8,28.3z"/>
			<path class="st7" d="M41.2,45.2c-0.6,0-1.2-0.2-1.6-0.7c-0.4-0.4-0.7-0.9-0.9-1.5c-0.2-0.6-0.3-1.3-0.4-2
				C-0.1-0.7-0.1-1.4-0.1-2.1c0-0.7,0-1.3,0-1.9c0-0.6,0-1,0-1.3c0-1.5,0-3,0-4.5c0-1.5,0-2.9,0-4.4c-0.4-0.4-0.8-0.9-1-1.4
				C-0.3-0.6-0.4-1.2-0.4-1.8c0-1,0.3-1.9,0.9-2.6c0.6-0.7,1.5-1.1,2.5-1.1c0.9,0,1.7,0.4,2.2,1.1c0.5,0.7,0.9,1.5,1.1,2.4
				c0.2,0.9,0.3,1.8,0.4,2.7c0,0.9,0.1,1.6,0.1,2.2c0,0.7,0,1.4,0,2.1L44,32.4c0,1.1-0.1,2.3-0.1,3.4c0,1.1,0,2.3-0.1,3.4
				c0,0.4,0,0.9-0.1,1.5c0,0.7-0.1,1.3-0.3,1.9c-0.2,0.7-0.4,1.2-0.7,1.7C42.4,44.9,41.9,45.2,41.2,45.2z M40.4,20.7
				C-0.8,0-1.5,0.3-2,0.8c-0.5,0.6-0.7,1.3-0.7,2.1c0,0.5,0.1,1,0.3,1.5c0.2,0.5,0.5,0.9,0.9,1.3l0.1,0.1l0,0.2c0,1.5,0,3-0.1,4.5
				c0,1.5,0,3,0,4.5c0,0.3,0,0.8,0,1.3c0,0.6,0,1.2,0,1.9c0,0.7,0,1.3,0.1,2c0.1,0.7,0.2,1.3,0.4,1.8c0.2,0.5,0.4,0.9,0.7,1.3
				c0.3,0.3,0.6,0.4,1,0.4c0.4,0,0.7-0.2,1-0.5c0.3-0.4,0.5-0.9,0.6-1.5c0.1-0.6,0.2-1.2,0.2-1.8c0-0.6,0-1.1,0.1-1.5
				c0.1-1.1,0.1-2.2,0.1-3.4c0-1.1,0-2.3,0.1-3.4l0.1-2.1c0-0.7,0-1.4,0-2.1c0-0.5,0-1.3-0.1-2.2c0-0.9-0.2-1.7-0.4-2.6
				C-0.2-0.8-0.5-1.5-0.9-2.1C41.6,20.9,41.1,20.7,40.4,20.7z"/>
		</g>
		<g>
			<path class="st9" d="M62.5,36.9c0,1.3-0.2,2.5-0.6,3.5c-0.4,1-1,1.9-1.7,2.6c-0.7,0.7-1.6,1.3-2.7,1.6c-1,0.4-2.2,0.6-3.4,0.6
				C-0.7,0-1.4-0.1-2.3-0.4c-0.8-0.2-1.6-0.6-2.3-1.1c-0.7-0.5-1.3-1-1.8-1.7c-0.5-0.7-0.7-1.4-0.7-2.2c0-0.6,0.2-1,0.5-1.4
				c0.4-0.4,0.8-0.5,1.4-0.5c0.6,0,1,0.1,1.4,0.3c0.4,0.2,0.7,0.5,1.1,0.7c0.4,0.3,0.8,0.5,1.2,0.7c0.5,0.2,1.1,0.3,1.8,0.3
				c0.9,0,1.6-0.3,2.2-0.9c0.6-0.6,0.8-1.4,0.8-2.2c0-0.8-0.2-1.5-0.6-2.1c-0.4-0.6-1-0.9-1.9-0.9c-0.4,0-0.8,0-1.1,0.1
				C-0.3,0.1-0.6,0.2-0.9,0.3c-0.3,0.1-0.6,0.2-0.9,0.3s-0.6,0.2-0.9,0.2c-0.2,0-0.6,0-0.9,0c-0.4-0.1-0.8-0.2-1.1-0.3
				C-0.4-0.2-0.7-0.3-1-0.5c-0.3-0.2-0.5-0.4-0.6-0.7c-0.1-0.2-0.1-0.6-0.2-1.3c-0.1-0.7-0.1-1.4-0.1-2.2c0-0.8-0.1-1.5-0.1-2.2
				c0-0.7,0-1.2,0-1.4c0-0.2,0-0.5,0-0.9c0-0.4,0-0.8,0-1.2c0-0.4,0.1-0.8,0.1-1.2c0-0.4,0.1-0.6,0.2-0.8c0.1-0.2,0.5-0.4,1-0.6
				c0.5-0.2,1.1-0.3,1.8-0.5c0.7-0.2,1.5-0.3,2.3-0.4c0.8-0.1,1.6-0.2,2.3-0.3c0.7-0.1,1.4-0.2,2-0.2c0.6,0,1-0.1,1.3-0.1
				c0.3,0,0.6,0,1,0.1c0.3,0.1,0.7,0.2,0.9,0.4c0.3,0.2,0.5,0.4,0.7,0.6c0.2,0.3,0.3,0.6,0.3,1c0,0.6-0.2,1.1-0.6,1.4
				C-0.4,0.4-0.9,0.6-1.4,0.8c-0.4,0.1-0.9,0.2-1.5,0.3c-0.6,0.1-1.2,0.2-1.8,0.2c-0.6,0.1-1.2,0.1-1.7,0.2c-0.6,0-1.1,0.1-1.5,0.1
				l0.1,4.8c0.4-0.1,0.9-0.2,1.3-0.2c0.4-0.1,0.9-0.1,1.4-0.1c2.4,0,4.1,0.6,5.4,1.8C61.9,32.8,62.5,34.6,62.5,36.9z"/>
			<path class="st7" d="M54,45.6c-0.7,0-1.5-0.1-2.4-0.4c-0.9-0.3-1.7-0.6-2.4-1.1c-0.8-0.5-1.4-1.1-1.9-1.8
				C-0.5-0.7-0.8-1.5-0.8-2.4c0-0.7,0.2-1.2,0.6-1.7c0.4-0.4,1-0.6,1.7-0.6c0.6,0,1.2,0.1,1.6,0.4c0.4,0.2,0.8,0.5,1.2,0.8
				c0.3,0.3,0.7,0.5,1.2,0.7c0.4,0.2,1,0.3,1.6,0.3c0.8,0,1.4-0.3,1.9-0.8c0.5-0.6,0.7-1.2,0.7-2c0-0.7-0.2-1.4-0.5-1.9
				C-0.3-0.5-0.8-0.7-1.5-0.7c-0.4,0-0.7,0-1,0.1c-0.3,0.1-0.6,0.2-0.9,0.3c-0.3,0.1-0.6,0.2-0.9,0.3c-0.3,0.1-0.7,0.2-1,0.2
				C-0.3,0.1-0.6,0-1.1-0.1c-0.4-0.1-0.8-0.2-1.2-0.4c-0.4-0.2-0.8-0.4-1.1-0.6c-0.4-0.3-0.6-0.5-0.7-0.9c-0.1-0.2-0.1-0.5-0.2-1.4
				C-0.1-0.7-0.1-1.4-0.1-2.2c0-0.8-0.1-1.5-0.1-2.2c0-0.7,0-1.2,0-1.5v-0.9c0-0.4,0-0.8,0.1-1.3c0-0.5,0.1-0.9,0.1-1.2
				c0.1-0.5,0.2-0.8,0.3-1c0.2-0.3,0.6-0.5,1.2-0.7c0.5-0.2,1.2-0.4,1.9-0.5c0.7-0.2,1.5-0.3,2.3-0.4c0.8-0.1,1.6-0.2,2.4-0.3
				c0.7-0.1,1.4-0.2,2.1-0.2c0.6,0,1.1-0.1,1.3-0.1c0.3,0,0.7,0,1.1,0.1c0.4,0.1,0.7,0.2,1,0.4c0.3,0.2,0.6,0.5,0.8,0.8
				c0.2,0.3,0.3,0.7,0.3,1.2c0,0.7-0.3,1.3-0.8,1.7c-0.5,0.4-1,0.7-1.5,0.9c-0.4,0.1-0.9,0.3-1.5,0.4c-0.6,0.1-1.2,0.2-1.8,0.3
				C-0.6,0.1-1.2,0.1-1.8,0.2c-0.4,0-0.8,0.1-1.1,0.1l0.1,4c0.3-0.1,0.6-0.1,0.9-0.1c0.5-0.1,0.9-0.1,1.4-0.1c2.4,0,4.4,0.7,5.7,1.9
				c1.3,1.3,2,3.2,2,5.6c0,1.4-0.2,2.6-0.6,3.6c-0.4,1.1-1,2-1.8,2.7c-0.8,0.7-1.7,1.3-2.8,1.7C56.5,45.4,55.3,45.6,54,45.6z
				 M48.8,38.4c-0.5,0-0.8,0.1-1.1,0.4c-0.3,0.3-0.4,0.7-0.4,1.1c0,0.7,0.2,1.4,0.7,2c0.5,0.6,1,1.1,1.7,1.6c0.7,0.4,1.5,0.8,2.2,1
				c0.8,0.2,1.5,0.4,2.2,0.4c1.2,0,2.3-0.2,3.3-0.5c1-0.4,1.8-0.9,2.5-1.5c0.7-0.7,1.3-1.5,1.6-2.5c0.4-1,0.6-2.1,0.6-3.4
				c0-2.2-0.6-3.9-1.7-5.1c-1.2-1.1-2.9-1.7-5.1-1.7c-0.4,0-0.9,0-1.3,0.1c-0.4,0.1-0.9,0.1-1.3,0.2l-0.5,0.1l-0.1-5.7l0.4,0
				c0.4,0,0.9-0.1,1.5-0.1c0.6,0,1.1-0.1,1.7-0.2c0.6-0.1,1.2-0.2,1.8-0.2c0.6-0.1,1-0.2,1.4-0.3c0.5-0.2,0.9-0.4,1.3-0.7
				c0.3-0.3,0.5-0.7,0.5-1.1c0-0.3-0.1-0.5-0.2-0.8c-0.1-0.2-0.3-0.4-0.6-0.5c-0.2-0.1-0.5-0.3-0.8-0.3c-0.3-0.1-0.6-0.1-0.9-0.1
				C-0.3,0-0.7,0-1.3,0.1c-0.6,0-1.3,0.1-2,0.2c-0.7,0.1-1.5,0.2-2.3,0.3c-0.8,0.1-1.6,0.3-2.3,0.4c-0.7,0.2-1.3,0.3-1.8,0.5
				C-0.6,0.2-0.8,0.4-0.8,0.4l0,0c0,0-0.1,0.1-0.1,0.6c0,0.4-0.1,0.8-0.1,1.2c0,0.4,0,0.8,0,1.2v0.9c0,0.3,0,0.7,0,1.4
				c0,0.7,0,1.4,0.1,2.2c0,0.8,0.1,1.5,0.1,2.2c0.1,0.8,0.1,1.1,0.2,1.2c0.1,0.2,0.2,0.3,0.4,0.5c0.3,0.2,0.6,0.4,1,0.5
				c0.4,0.1,0.7,0.3,1.1,0.3c0.3,0.1,0.6,0.1,0.8,0c0.3,0,0.6-0.1,0.9-0.2c0.3-0.1,0.6-0.2,0.9-0.3c0.3-0.1,0.6-0.2,1-0.3
				c0.4-0.1,0.8-0.1,1.2-0.1c1,0,1.7,0.4,2.2,1.1c0.4,0.7,0.6,1.4,0.6,2.3c0,1-0.3,1.8-0.9,2.5c-0.6,0.7-1.5,1.1-2.5,1.1
				C-0.8,0-1.4-0.1-2-0.4c-0.5-0.2-0.9-0.5-1.3-0.8c-0.4-0.3-0.7-0.5-1.1-0.7C49.6,38.5,49.2,38.4,48.8,38.4z"/>
		</g>
	</g>
</g>
</svg>
