<?xml version="1.0" encoding="utf-8"?>
<!-- Generator: Adobe Illustrator 22.1.0, SVG Export Plug-In . SVG Version: 6.00 Build 0)  -->
<svg version="1.1" id="Layer_1" xmlns="http://www.w3.org/2000/svg" xmlns:xlink="http://www.w3.org/1999/xlink" x="0px" y="0px"
	 viewBox="0 0 13.6 15" style="enable-background:new 0 0 13.6 15;" xml:space="preserve">
<style type="text/css">
	.st0{fill:#256AAA;}
</style>
<g>
	<g>
		<path class="st0" d="M8.4,15l-3.3-1.6l0-0.3c-0.2-1-0.6-3.8-1-4.6C4.1,8.3,3.9,8.1,3.7,7.9C2.8,6.8,2,5.6,1.2,4.5
			C0.9,4.1,0.7,3.7,0.4,3.3c-0.4-0.6-0.5-1.4-0.2-2C0.6,0.5,1.5,0,2.4,0h8.8c0.9,0,1.8,0.5,2.2,1.3c0.3,0.7,0.3,1.4-0.2,2
			C-0.3,0.4-0.5,0.8-0.8,1.2c-0.8,1.1-1.6,2.3-2.5,3.4C9.7,8.1,9.6,8.3,9.5,8.5c-0.3,0.7-0.7,3.8-1,5.8L8.4,15z M6.1,12.7l1.5,0.8
			C7.8,12,8.2,9,8.6,8.1C8.7,7.8,9,7.5,9.2,7.3c0.9-1.1,1.7-2.2,2.4-3.3c0.3-0.4,0.5-0.8,0.8-1.2c0.3-0.4,0.2-0.8,0.1-1
			C12.3,1.3,11.8,1,11.2,1H2.4C1.9,1,1.3,1.3,1.1,1.7C1,2,0.9,2.3,1.2,2.7C1.5,3.1,1.7,3.5,2,3.9C2.8,5,3.6,6.2,4.4,7.2
			c0.2,0.3,0.5,0.6,0.6,0.9C5.5,9,5.9,11.8,6.1,12.7z"/>
	</g>
</g>
</svg>
