<?xml version="1.0" encoding="utf-8"?>
<!-- Generator: Adobe Illustrator 22.1.0, SVG Export Plug-In . SVG Version: 6.00 Build 0)  -->
<svg version="1.1" id="Layer_1" xmlns="http://www.w3.org/2000/svg" xmlns:xlink="http://www.w3.org/1999/xlink" x="0px" y="0px"
	 viewBox="0 0 297 122.7" style="enable-background:new 0 0 297 122.7;" xml:space="preserve">
<style type="text/css">
	.st0{fill:#F2F2F2;}
	.st1{opacity:0.9;}
	.st2{fill:#274174;}
	.st3{fill:#DDF3FF;}
	.st4{fill:#5499DA;}
	.st5{fill:none;stroke:#B1B4BD;stroke-width:0.75;stroke-miterlimit:10;}
	.st6{fill:none;stroke:#B1B4BD;stroke-width:0.75;stroke-miterlimit:10;stroke-dasharray:3.0066,3.0066;}
	.st7{fill:#D0D1D7;}
	.st8{fill:none;stroke:#D0D1D7;stroke-miterlimit:10;}
	.st9{opacity:0.35;}
	.st10{opacity:0.15;clip-path:url(#SVGID_2_);}
	.st11{opacity:0.15;}
	.st12{clip-path:url(#SVGID_4_);}
	.st13{fill:#DCDCE1;}
	.st14{fill:none;stroke:#CBCBCA;stroke-miterlimit:10;}
	.st15{fill:#D0D1D7;stroke:#FFFFFF;stroke-miterlimit:10;}
	.st16{fill:none;stroke:#FFFFFF;stroke-width:2;stroke-linecap:round;stroke-miterlimit:10;}
	.st17{fill:#FFFFFF;}
	.st18{fill:#FFFFFF;stroke:#D0D1D7;stroke-width:2;stroke-miterlimit:10;}
	.st19{fill:#D0D1D7;stroke:#FFFFFF;stroke-width:2;stroke-miterlimit:10;}
	.st20{fill:none;stroke:#FFFFFF;stroke-width:3;stroke-linecap:round;stroke-miterlimit:10;}
	.st21{fill:#707584;}
	.st22{opacity:0.2;}
	.st23{fill:none;stroke:#707584;stroke-linecap:round;stroke-miterlimit:10;}
	.st24{fill:none;stroke:#707584;stroke-linecap:round;stroke-linejoin:round;stroke-miterlimit:10;}
	.st25{fill:none;stroke:#256AAA;stroke-miterlimit:10;}
	.st26{fill:none;stroke:#256AAA;stroke-linecap:round;stroke-linejoin:round;stroke-miterlimit:10;}
	.st27{fill:none;stroke:#707584;stroke-miterlimit:10;}
	.st28{fill:#E3EFFC;stroke:#707584;stroke-miterlimit:10;}
	.st29{fill:none;stroke:#274174;stroke-miterlimit:10;}
	.st30{fill:#256AAA;}
	.st31{fill:none;stroke:#256AAA;stroke-linecap:round;stroke-miterlimit:10;}
	.st32{fill:none;stroke:#274174;stroke-linecap:round;stroke-miterlimit:10;}
	.st33{fill:none;stroke:#256AAA;stroke-width:2;stroke-linecap:round;stroke-miterlimit:10;}
	.st34{fill:none;stroke:#D0D1D7;stroke-linecap:round;stroke-linejoin:round;stroke-miterlimit:10;}
	.st35{fill:none;stroke:#FFFFFF;stroke-miterlimit:10;}
	.st36{fill:#FFFFFF;stroke:#D0D1D7;stroke-width:4;stroke-miterlimit:10;}
	.st37{fill:none;stroke:#D0D1D7;stroke-width:4;stroke-miterlimit:10;}
	.st38{fill:none;stroke:#D0D1D7;stroke-width:2;stroke-miterlimit:10;}
	.st39{fill:none;stroke:#FFFFFF;stroke-width:4;stroke-miterlimit:10;}
	.st40{fill-rule:evenodd;clip-rule:evenodd;fill:none;stroke:#707584;stroke-linecap:round;stroke-miterlimit:10;}
	.st41{fill:#89664C;}
	.st42{fill:#FFDD67;}
	.st43{fill:#D3976E;}
	.st44{fill:#FED0AC;}
	.st45{fill:#3E4347;}
	.st46{fill:#664E27;}
	.st47{fill:none;stroke:#D0D1D7;stroke-width:6;stroke-miterlimit:10;}
	.st48{fill:#D4D9E3;}
	.st49{fill:#F37120;}
	.st50{fill:#FDE3D2;}
	.st51{fill:#B1B4BD;}
	.st52{fill:#EFF0F2;}
	.st53{fill:none;stroke:#F37120;stroke-width:0.75;stroke-miterlimit:10;}
	.st54{opacity:0.9;fill:none;stroke:#F37120;stroke-miterlimit:10;}
	.st55{opacity:0.9;fill:#F37120;}
	.st56{fill:none;stroke:#F37120;stroke-miterlimit:10;}
	.st57{fill:#F8AA79;}
	.st58{fill:#6B3200;}
	.st59{fill:#F37120;stroke:#FDE3D2;stroke-miterlimit:10;}
	.st60{clip-path:url(#SVGID_6_);}
	.st61{fill:none;stroke:#FDE3D2;stroke-width:2;stroke-miterlimit:10;}
	.st62{fill:none;stroke:#FDE3D2;stroke-width:2;stroke-miterlimit:10;stroke-dasharray:5.0381,5.0381;}
	.st63{opacity:0.9;fill:none;stroke:#7AC3FA;stroke-miterlimit:10;}
	.st64{fill:#7AC3FA;}
	.st65{fill:none;stroke:#7AC3FA;stroke-miterlimit:10;}
	.st66{fill:none;stroke:#FFFFFF;stroke-width:2;stroke-linecap:round;stroke-linejoin:round;stroke-miterlimit:10;}
</style>
<g>
	<rect x="0" y="0" class="st0" width="297" height="122.7"/>
</g>
<g>
	<g>
		<g>
			<g>
				<path class="st21" d="M56,62.5c-2,0-3.9-0.8-5.4-2.2c-3.1-3-3.2-8.1-0.1-11.3l0,0c1.5-1.5,3.5-2.4,5.6-2.5
					c2.1-0.1,4.1,0.7,5.6,2.2c3.1,3,3.2,8.1,0.1,11.3c-1.5,1.5-3.5,2.4-5.6,2.5C56.2,62.4,56.1,62.5,56,62.5z M51.3,49.7
					C-2.7,2.8-2.7,7.2,0.1,9.8c1.3,1.3,3.1,1.9,4.9,1.9c1.9-0.1,3.6-0.8,4.9-2.2c2.7-2.8,2.7-7.2-0.1-9.8c-1.3-1.3-3.1-1.9-4.9-1.9
					C54.3,47.6,52.6,48.4,51.3,49.7L51.3,49.7z"/>
			</g>
			<g>
				
					<rect x="63.7" y="58.6" transform="matrix(0.6754 -0.7375 0.7375 0.6754 -24.8128 67.4016)" class="st21" width="1" height="6.6"/>
			</g>
		</g>
		<g>
			<path class="st21" d="M46.7,74.5l0.1-0.1c0.5,0.5,1.1,0.8,1.8,0.8c0.9,0,1.5-0.5,1.5-1.2v0c0-0.6-0.4-0.9-1.6-1.2
				C-1.2-0.2-1.7-0.6-1.7-1.3v0c0-0.7,0.7-1.3,1.6-1.3c0.6,0,1.2,0.2,1.7,0.6L50,71c-0.4-0.3-1-0.5-1.6-0.5c-0.9,0-1.4,0.5-1.4,1.1
				v0c0,0.6,0.4,0.9,1.6,1.2c1.3,0.3,1.7,0.6,1.7,1.3v0c0,0.7-0.6,1.3-1.7,1.3C47.9,75.3,47.2,75,46.7,74.5z"/>
			<path class="st21" d="M51.1,73.5L51.1,73.5c0-1.1,0.7-1.8,1.7-1.8c1.1,0,1.6,1,1.6,1.8c0,0,0,0,0,0h-3.1c0,1,0.7,1.7,1.6,1.7
				c0.5,0,1-0.3,1.3-0.7l0.1,0.1c-0.3,0.4-0.8,0.8-1.4,0.8C51.9,75.3,51.1,74.6,51.1,73.5z M54.3,73.4c0-0.8-0.5-1.6-1.5-1.6
				C-0.9,0-1.5,0.7-1.5,1.6H54.3z"/>
			<path class="st21" d="M55.2,74.3L55.2,74.3c0-0.7,0.7-1.1,1.6-1.1c0.5,0,1,0.1,1.3,0.2v-0.3c0-0.8-0.5-1.2-1.3-1.2
				C-0.4,0-0.8,0.1-1.2,0.3L55.5,72c0.4-0.2,0.8-0.3,1.2-0.3c0.5,0,0.9,0.1,1.1,0.4c0.2,0.2,0.3,0.6,0.3,1v2.2h-0.1v-0.8
				C-0.1,0.4-0.7,0.9-1.6,0.9C55.8,75.3,55.2,75,55.2,74.3z M58.1,74v-0.4c-0.4-0.1-0.8-0.2-1.3-0.2c-0.8,0-1.4,0.3-1.4,1v0
				c0,0.6,0.5,0.9,1.2,0.9C57.4,75.2,58.1,74.6,58.1,74z"/>
			<path class="st21" d="M59.4,71.8h0.1v1.1c0.2-0.6,0.7-1.2,1.4-1.2v0.1c0,0,0,0,0,0c-0.9,0-1.4,1-1.4,1.6v1.8h-0.1V71.8z"/>
			<path class="st21" d="M61.4,73.5L61.4,73.5c0-1,0.8-1.8,1.8-1.8c0.6,0,1.1,0.3,1.4,0.7l-0.1,0.1c-0.3-0.3-0.7-0.6-1.3-0.6
				C-0.9,0-1.6,0.8-1.6,1.7v0c0,0.9,0.7,1.7,1.6,1.7c0.6,0,1-0.3,1.3-0.7l0.1,0.1c-0.3,0.4-0.8,0.7-1.4,0.7
				C62.1,75.3,61.4,74.5,61.4,73.5z"/>
			<path class="st21" d="M65.5,70.1h0.1v2.6c0.1-0.4,0.6-1,1.4-1c0.9,0,1.5,0.6,1.5,1.6v2h-0.1v-2c0-0.9-0.5-1.5-1.3-1.5
				C-0.8,0-1.4,0.7-1.4,1.5v1.9h-0.1V70.1z"/>
		</g>
	</g>
	<g>
		<g>
			<g>
				<g>
					<circle class="st21" cx="97.7" cy="49.7" r="1.3"/>
				</g>
				<g>
					<circle class="st21" cx="109.5" cy="49.7" r="1.3"/>
				</g>
			</g>
			<g>
				<g>
					<path class="st21" d="M114.8,52.9H93v-6.3h21.8V52.9z M94,51.9h19.8v-4.3H94V51.9z"/>
				</g>
				<g>
					<path class="st21" d="M114,64.6H93V51.9h21.8v12.1c0,0.3-0.2,0.5-0.5,0.5C114.2,64.5,114.1,64.6,114,64.6z M94,63.6h19.8V52.9
						H94V63.6z"/>
				</g>
			</g>
			<g>
				<path class="st21" d="M112.1,57.3H95.4c-0.3,0-0.5-0.2-0.5-0.5s0.2-0.5,0.5-0.5h16.6c0.3,0,0.5,0.2,0.5,0.5
					S112.3,57.3,112.1,57.3z"/>
			</g>
			<g>
				<path class="st21" d="M112.1,60.5H95.4c-0.3,0-0.5-0.2-0.5-0.5s0.2-0.5,0.5-0.5h16.6c0.3,0,0.5,0.2,0.5,0.5
					S112.3,60.5,112.1,60.5z"/>
			</g>
			<g>
				<path class="st21" d="M99,62.9c-0.3,0-0.5-0.2-0.5-0.5v-8.1c0-0.3,0.2-0.5,0.5-0.5s0.5,0.2,0.5,0.5v8.1
					C99.5,62.7,99.3,62.9,99,62.9z"/>
			</g>
			<g>
				<path class="st21" d="M104.1,62.6c-0.3,0-0.5-0.2-0.5-0.5v-7.7c0-0.3,0.2-0.5,0.5-0.5s0.5,0.2,0.5,0.5v7.7
					C104.6,62.4,104.4,62.6,104.1,62.6z"/>
			</g>
			<g>
				<path class="st21" d="M109.2,62.6c-0.3,0-0.5-0.2-0.5-0.5v-7.7c0-0.3,0.2-0.5,0.5-0.5s0.5,0.2,0.5,0.5v7.7
					C109.7,62.4,109.5,62.6,109.2,62.6z"/>
			</g>
		</g>
		<g>
			<path class="st21" d="M96.7,70.4h1.6c1.5,0,2.6,1.1,2.6,2.4v0c0,1.4-1.1,2.4-2.6,2.4h-1.6V70.4z M98.3,75.1c1.4,0,2.4-1,2.4-2.3
				v0c0-1.3-1-2.3-2.5-2.3h-1.4v4.6H98.3z"/>
			<path class="st21" d="M101.7,74.3L101.7,74.3c0-0.7,0.7-1.1,1.6-1.1c0.5,0,1,0.1,1.3,0.2v-0.3c0-0.8-0.5-1.2-1.3-1.2
				C-0.4,0-0.8,0.1-1.2,0.3l-0.1-0.1c0.4-0.2,0.8-0.3,1.2-0.3c0.5,0,0.9,0.1,1.1,0.4c0.2,0.2,0.3,0.6,0.3,1v2.2h-0.1v-0.8
				C-0.1,0.4-0.7,0.9-1.6,0.9C102.3,75.3,101.7,75,101.7,74.3z M104.6,74v-0.4c-0.4-0.1-0.8-0.2-1.3-0.2c-0.8,0-1.4,0.3-1.4,1v0
				c0,0.6,0.5,0.9,1.2,0.9C104,75.2,104.6,74.6,104.6,74z"/>
			<path class="st21" d="M106.1,74.4v-2.5h-0.6v-0.1h0.6v-1.2h0.1v1.2h1.3v0.1h-1.3v2.5c0,0.5,0.3,0.8,0.8,0.8c0.2,0,0.4,0,0.5-0.1
				v0.2c-0.2,0.1-0.4,0.1-0.5,0.1C106.4,75.3,106.1,75,106.1,74.4z"/>
			<path class="st21" d="M108.2,73.5L108.2,73.5c0-1.1,0.7-1.8,1.7-1.8c1.1,0,1.6,1,1.6,1.8c0,0,0,0,0,0h-3.1c0,1,0.7,1.7,1.6,1.7
				c0.5,0,1-0.3,1.3-0.7l0.1,0.1c-0.3,0.4-0.8,0.8-1.4,0.8C109,75.3,108.2,74.6,108.2,73.5z M111.3,73.4c0-0.8-0.5-1.6-1.5-1.6
				C-0.9,0-1.5,0.7-1.5,1.6H111.3z"/>
		</g>
	</g>
	<g>
		<g>
			<g>
				<g>
					<g>
						<path class="st21" d="M151.8,65.4h-3.3v-2.5l-2.3-1l-1.8,1.8l-2.4-2.4l1.8-1.8l-1-2.3h-2.5v-3.3h2.5l1-2.3l-1.8-1.8l2.4-2.4
							l1.8,1.8l2.3-1v-2.5h3.3v2.5l2.3,1l1.8-1.8l2.4,2.4l-1.8,1.8l1,2.3h2.5v3.3h-2.5l-1,2.3l1.8,1.8l-2.4,2.4l-1.8-1.8l-2.3,1
							V65.4z M149.5,64.4h1.3v-2.2l3.6-1.5l1.5,1.5l0.9-0.9l-1.5-1.5l1.5-3.6h2.2v-1.3h-2.2l-1.5-3.6l1.5-1.5l-0.9-0.9l-1.5,1.5
							l-3.6-1.5v-2.2h-1.3v2.2l-3.6,1.5l-1.5-1.5l-0.9,0.9l1.5,1.5l-1.5,3.6h-2.2v1.3h2.2l1.5,3.6l-1.5,1.5l0.9,0.9l1.5-1.5l3.6,1.5
							V64.4z"/>
					</g>
				</g>
			</g>
			<g>
				<path class="st21" d="M149.8,59c-1.9,0-3.4-1.5-3.4-3.4s1.5-3.4,3.4-3.4s3.4,1.5,3.4,3.4S151.7,59,149.8,59z M149.8,53.1
					C-1.3,0-2.4,1.1-2.4,2.4s1.1,2.4,2.4,2.4s2.4-1.1,2.4-2.4S151.1,53.1,149.8,53.1z"/>
			</g>
		</g>
		<g>
			<path class="st21" d="M136.8,74.5l0.1-0.1c0.5,0.5,1.1,0.8,1.8,0.8c0.9,0,1.5-0.5,1.5-1.2v0c0-0.6-0.4-0.9-1.6-1.2
				C-1.2-0.2-1.7-0.6-1.7-1.3v0c0-0.7,0.7-1.3,1.6-1.3c0.6,0,1.2,0.2,1.7,0.6l-0.1,0.1c-0.4-0.3-1-0.5-1.6-0.5
				C-0.9,0-1.4,0.5-1.4,1.1v0c0,0.6,0.4,0.9,1.6,1.2c1.3,0.3,1.7,0.6,1.7,1.3v0c0,0.7-0.6,1.3-1.7,1.3C138,75.3,137.3,75,136.8,74.5
				z"/>
			<path class="st21" d="M141.3,73.5L141.3,73.5c0-1.1,0.7-1.8,1.7-1.8c1.1,0,1.6,1,1.6,1.8c0,0,0,0,0,0h-3.1c0,1,0.7,1.7,1.6,1.7
				c0.5,0,1-0.3,1.3-0.7l0.1,0.1c-0.3,0.4-0.8,0.8-1.4,0.8C142.1,75.3,141.3,74.6,141.3,73.5z M144.4,73.4c0-0.8-0.5-1.6-1.5-1.6
				C-0.9,0-1.5,0.7-1.5,1.6H144.4z"/>
			<path class="st21" d="M145.8,74.4v-2.5h-0.6v-0.1h0.6v-1.2h0.1v1.2h1.3v0.1H146v2.5c0,0.5,0.3,0.8,0.8,0.8c0.2,0,0.4,0,0.5-0.1
				v0.2c-0.2,0.1-0.4,0.1-0.5,0.1C146.1,75.3,145.8,75,145.8,74.4z"/>
			<path class="st21" d="M148.4,74.4v-2.5h-0.6v-0.1h0.6v-1.2h0.1v1.2h1.3v0.1h-1.3v2.5c0,0.5,0.3,0.8,0.8,0.8c0.2,0,0.4,0,0.5-0.1
				v0.2c-0.2,0.1-0.4,0.1-0.5,0.1C148.7,75.3,148.4,75,148.4,74.4z"/>
			<path class="st21" d="M150.8,70.4h0.2v0.4h-0.2V70.4z M150.8,71.8h0.1v3.5h-0.1V71.8z"/>
			<path class="st21" d="M152.3,71.8h0.1v1c0.1-0.4,0.6-1,1.4-1c0.9,0,1.5,0.6,1.5,1.6v2h-0.1v-2c0-0.9-0.5-1.5-1.3-1.5
				C-0.8,0-1.4,0.7-1.4,1.5v1.9h-0.1V71.8z"/>
			<path class="st21" d="M156.5,75.9l0.1-0.1c0.4,0.3,0.9,0.5,1.5,0.5c0.9,0,1.6-0.5,1.6-1.6V74c-0.3,0.6-0.9,1-1.6,1
				C-1,0-1.7-0.7-1.7-1.7v0c0-0.9,0.8-1.7,1.7-1.7c0.7,0,1.3,0.4,1.6,1v-0.9h0.1v3c0,0.5-0.2,0.9-0.4,1.2c-0.3,0.3-0.7,0.4-1.3,0.4
				C157.5,76.4,157,76.2,156.5,75.9z M159.7,73.4L159.7,73.4c0-0.8-0.7-1.5-1.6-1.5c-0.9,0-1.6,0.7-1.6,1.5v0c0,0.8,0.7,1.5,1.6,1.5
				C158.9,74.9,159.7,74.2,159.7,73.4z"/>
			<path class="st21" d="M160.7,74.8l0.1-0.1c0.4,0.3,0.9,0.5,1.3,0.5c0.6,0,1.1-0.3,1.1-0.8v0c0-0.5-0.6-0.7-1.1-0.9
				C-0.7-0.2-1.2-0.4-1.2-0.9v0c0-0.5,0.5-0.9,1.2-0.9c0.4,0,0.8,0.1,1.2,0.4l-0.1,0.1c-0.3-0.2-0.8-0.4-1.1-0.4
				C-0.6,0-1.1,0.3-1.1,0.7v0c0,0.5,0.5,0.6,1.1,0.8c0.7,0.2,1.3,0.4,1.3,1v0c0,0.5-0.5,0.9-1.3,0.9
				C161.7,75.3,161.1,75.1,160.7,74.8z"/>
		</g>
	</g>
	<g>
		<g>
			<path class="st21" d="M190.1,70.4h2c0.6,0,1.1,0.2,1.4,0.5c0.2,0.2,0.3,0.5,0.3,0.9v0c0,0.8-0.7,1.3-1.6,1.4l1.6,2.1h-0.2
				l-1.6-2.1h0h-1.8v2.1h-0.2V70.4z M192,73c1.1,0,1.7-0.5,1.7-1.2v0c0-0.8-0.6-1.2-1.6-1.2h-1.8V73H192z"/>
			<path class="st21" d="M194.8,74.5l0.1-0.1c0.5,0.5,1.1,0.8,1.8,0.8c0.9,0,1.5-0.5,1.5-1.2v0c0-0.6-0.4-0.9-1.6-1.2
				C-1.2-0.2-1.7-0.6-1.7-1.3v0c0-0.7,0.7-1.3,1.6-1.3c0.6,0,1.2,0.2,1.7,0.6l-0.1,0.1c-0.4-0.3-1-0.5-1.6-0.5
				C-0.9,0-1.4,0.5-1.4,1.1v0c0,0.6,0.4,0.9,1.6,1.2c1.3,0.3,1.7,0.6,1.7,1.3v0c0,0.7-0.6,1.3-1.7,1.3C196,75.3,195.4,75,194.8,74.5
				z"/>
			<path class="st21" d="M199.3,74.5l0.1-0.1c0.5,0.5,1.1,0.8,1.8,0.8c0.9,0,1.5-0.5,1.5-1.2v0c0-0.6-0.4-0.9-1.6-1.2
				C-1.2-0.2-1.7-0.6-1.7-1.3v0c0-0.7,0.7-1.3,1.6-1.3c0.6,0,1.2,0.2,1.7,0.6l-0.1,0.1c-0.4-0.3-1-0.5-1.6-0.5
				C-0.9,0-1.4,0.5-1.4,1.1v0c0,0.6,0.4,0.9,1.6,1.2c1.3,0.3,1.7,0.6,1.7,1.3v0c0,0.7-0.6,1.3-1.7,1.3
				C200.5,75.3,199.8,75,199.3,74.5z"/>
		</g>
		<g>
			<g>
				<path class="st21" d="M198.8,62.3c-0.3,0-0.5-0.2-0.5-0.4c-0.5-4.3-3.9-7.8-8.2-8.2c-0.3,0-0.5-0.3-0.4-0.6
					c0-0.3,0.3-0.5,0.6-0.4c4.8,0.5,8.6,4.3,9.1,9.1C199.3,62,199.1,62.3,198.8,62.3C198.9,62.3,198.8,62.3,198.8,62.3z"/>
			</g>
			<g>
				<path class="st21" d="M195.3,62.3h-5.6v-5.6l0.7,0.3c2.1,0.8,3.8,2.5,4.7,4.6L195.3,62.3z M190.6,61.3h3.1
					C-0.7-1.3-1.8-2.4-3.1-3.1V61.3z"/>
			</g>
			<g>
				<path class="st21" d="M202.6,62.3c-0.3,0-0.5-0.2-0.5-0.5c0-6.6-5.3-11.9-11.9-11.9c-0.3,0-0.5-0.2-0.5-0.5s0.2-0.5,0.5-0.5
					c7.1,0,12.9,5.8,12.9,12.9C203.1,62,202.8,62.3,202.6,62.3z"/>
			</g>
		</g>
	</g>
	<g>
		<g>
			<path class="st21" d="M235.1,70.4h3.4v0.1h-3.2v2.3h2.9v0.1h-2.9v2.3h-0.2V70.4z"/>
			<path class="st21" d="M239.4,70.4h0.2v0.4h-0.2V70.4z M239.4,71.8h0.1v3.5h-0.1V71.8z"/>
			<path class="st21" d="M241,70.1h0.1v5.1H241V70.1z"/>
			<path class="st21" d="M242.7,74.4v-2.5h-0.6v-0.1h0.6v-1.2h0.1v1.2h1.3v0.1h-1.3v2.5c0,0.5,0.3,0.8,0.8,0.8c0.2,0,0.4,0,0.5-0.1
				v0.2c-0.2,0.1-0.4,0.1-0.5,0.1C243,75.3,242.7,75,242.7,74.4z"/>
			<path class="st21" d="M244.7,73.5L244.7,73.5c0-1.1,0.7-1.8,1.7-1.8c1.1,0,1.6,1,1.6,1.8c0,0,0,0,0,0h-3.1c0,1,0.7,1.7,1.6,1.7
				c0.5,0,1-0.3,1.3-0.7l0.1,0.1c-0.3,0.4-0.8,0.8-1.4,0.8C245.5,75.3,244.7,74.6,244.7,73.5z M247.9,73.4c0-0.8-0.5-1.6-1.5-1.6
				C-0.9,0-1.5,0.7-1.5,1.6H247.9z"/>
			<path class="st21" d="M249.1,71.8h0.1v1.1c0.2-0.6,0.7-1.2,1.4-1.2v0.1c0,0,0,0,0,0c-0.9,0-1.4,1-1.4,1.6v1.8h-0.1V71.8z"/>
		</g>
		<g>
			<g>
				<path class="st21" d="M244.2,63.2l-3.3-1.6l0-0.3c-0.2-1-0.6-3.8-1-4.6c-0.1-0.2-0.3-0.4-0.4-0.6c-0.9-1.1-1.7-2.3-2.5-3.4
					C-0.3-0.4-0.5-0.8-0.8-1.2c-0.4-0.6-0.5-1.4-0.2-2c0.4-0.8,1.3-1.3,2.2-1.3h8.8c0.9,0,1.8,0.5,2.2,1.3c0.3,0.7,0.3,1.4-0.2,2
					C-0.3,0.4-0.5,0.8-0.8,1.2c-0.8,1.1-1.6,2.3-2.5,3.4c-0.2,0.3-0.4,0.5-0.5,0.7c-0.3,0.7-0.7,3.8-1,5.8L244.2,63.2z M241.8,60.9
					l1.5,0.8c0.2-1.4,0.6-4.5,1-5.4c0.2-0.3,0.4-0.6,0.6-0.9c0.9-1.1,1.7-2.2,2.4-3.3c0.3-0.4,0.5-0.8,0.8-1.2
					c0.3-0.4,0.2-0.8,0.1-1c-0.2-0.4-0.8-0.7-1.3-0.7h-8.8c-0.6,0-1.1,0.3-1.3,0.7c-0.1,0.2-0.2,0.6,0.1,1c0.3,0.4,0.5,0.8,0.8,1.2
					c0.8,1.1,1.6,2.3,2.4,3.3c0.2,0.3,0.5,0.6,0.6,0.9C241.2,57.2,241.7,60,241.8,60.9z"/>
			</g>
		</g>
	</g>
</g>
</svg>
