<?xml version="1.0" encoding="utf-8"?>
<!-- Generator: Adobe Illustrator 22.1.0, SVG Export Plug-In . SVG Version: 6.00 Build 0)  -->
<svg version="1.1" id="Layer_1" xmlns="http://www.w3.org/2000/svg" xmlns:xlink="http://www.w3.org/1999/xlink" x="0px" y="0px"
	 viewBox="0 0 86 86" style="enable-background:new 0 0 86 86;" xml:space="preserve">
<style type="text/css">
	.st0{fill:#D0D1D7;}
	.st1{fill:#FFFFFF;}
</style>
<g>
	<g>
		<path class="st0" d="M43,86c-11.5,0-22.3-4.5-30.4-12.6C4.5,65.3,0,54.5,0,43C0,19.3,19.3,0,43,0c11.5,0,22.3,4.5,30.4,12.6
			C81.5,20.7,86,31.5,86,43C86,66.7,66.7,86,43,86z M43,1C19.8,1,1,19.8,1,43c0,11.2,4.4,21.8,12.3,29.7C21.2,80.6,31.8,85,43,85
			c23.2,0,42-18.8,42-42c0-11.2-4.4-21.8-12.3-29.7S54.2,1,43,1z"/>
	</g>
	<g>
		<g>
			<path class="st0" d="M56.2,45.6l26.1-3.3h-32l5.8-3.3l16.3-9.3l-18.5,5.7l15.1-18.8L49.8,31.7l5.5-18.9l-9,16.3L43,3v32.2l0,0
				l-3.4-5.9l-9.2-16.2l3.5,8.2l-3.5-8.2L36,31.5L17.3,16.6l0,0l0,0l0,0l15.1,19l-18.7-5.4l0,0l0,0l0,0l0,0l21.8,12.1H3.6l26.5,3.3
				L13.8,55l20.5-8.9l0,0L13.8,55l18.4-5.6L17.3,68.1l20.4-20.4l0,0L17.3,68.1l19-15.1l-5.4,18.8l8.8-15.8v0l3.3-6l0,0v33l3.4-27.6
				l9.3,16.2L50,53.2l18.8,15L48.3,47.7l20.5,20.4l-15.2-19l18.8,5.4L56.2,45.6z M43,42.4L43,42.4L43,42.4L43,42.4L43,42.4L43,42.4z
				 M39.4,34.1l0.1,0.3l0,0L39.4,34.1L39.4,34.1z"/>
		</g>
		<g>
			<g>
				<polygon class="st1" points="3.6,42.3 43,42.3 38.6,46.6 43,82.9 43,42.3 43,3 38.6,37.9 				"/>
			</g>
			<g>
				<polygon class="st1" points="56.1,38.9 52,38.5 51.4,38.4 48,38 47.4,38 47.3,37.9 47.3,37.9 43.2,42.1 43,42.3 82.3,42.3 				
					"/>
			</g>
		</g>
	</g>
</g>
</svg>
