<?xml version="1.0" encoding="utf-8"?>
<!-- Generator: Adobe Illustrator 22.1.0, SVG Export Plug-In . SVG Version: 6.00 Build 0)  -->
<svg version="1.1" id="Layer_1" xmlns="http://www.w3.org/2000/svg" xmlns:xlink="http://www.w3.org/1999/xlink" x="0px" y="0px"
	 viewBox="0 0 1149 720" style="enable-background:new 0 0 1149 720;" xml:space="preserve">
<style type="text/css">
	.st0{fill:#B8E2FF;}
	.st1{fill:#F2F2F2;}
	.st2{opacity:0.9;}
	.st3{fill:#274174;}
	.st4{fill:#DDF3FF;}
	.st5{fill:#5499DA;}
	.st6{fill:none;stroke:#B1B4BD;stroke-width:0.75;stroke-miterlimit:10;}
	.st7{fill:none;stroke:#B1B4BD;stroke-width:0.75;stroke-miterlimit:10;stroke-dasharray:3.0066,3.0066;}
	.st8{fill:#D0D1D7;}
	.st9{fill:none;stroke:#D0D1D7;stroke-miterlimit:10;}
	.st10{opacity:0.35;}
	.st11{opacity:0.15;clip-path:url(#SVGID_2_);}
	.st12{opacity:0.15;}
	.st13{clip-path:url(#SVGID_4_);}
	.st14{fill:#DCDCE1;}
	.st15{fill:none;stroke:#CBCBCA;stroke-miterlimit:10;}
	.st16{fill:#D0D1D7;stroke:#FFFFFF;stroke-miterlimit:10;}
	.st17{fill:none;stroke:#FFFFFF;stroke-width:2;stroke-linecap:round;stroke-miterlimit:10;}
	.st18{fill:#FFFFFF;}
	.st19{fill:#FFFFFF;stroke:#D0D1D7;stroke-width:2;stroke-miterlimit:10;}
	.st20{fill:#D0D1D7;stroke:#FFFFFF;stroke-width:2;stroke-miterlimit:10;}
	.st21{fill:none;stroke:#FFFFFF;stroke-width:3;stroke-linecap:round;stroke-miterlimit:10;}
	.st22{fill:#707584;}
	.st23{opacity:0.2;}
	.st24{fill:none;stroke:#707584;stroke-linecap:round;stroke-miterlimit:10;}
	.st25{fill:none;stroke:#707584;stroke-linecap:round;stroke-linejoin:round;stroke-miterlimit:10;}
	.st26{fill:none;stroke:#256AAA;stroke-miterlimit:10;}
	.st27{fill:none;stroke:#256AAA;stroke-linecap:round;stroke-linejoin:round;stroke-miterlimit:10;}
	.st28{fill:none;stroke:#707584;stroke-miterlimit:10;}
	.st29{fill:#E3EFFC;stroke:#707584;stroke-miterlimit:10;}
	.st30{fill:none;stroke:#274174;stroke-miterlimit:10;}
	.st31{fill:#256AAA;}
	.st32{fill:none;stroke:#256AAA;stroke-linecap:round;stroke-miterlimit:10;}
	.st33{fill:none;stroke:#274174;stroke-linecap:round;stroke-miterlimit:10;}
	.st34{fill:none;stroke:#256AAA;stroke-width:2;stroke-linecap:round;stroke-miterlimit:10;}
	.st35{fill:none;stroke:#D0D1D7;stroke-linecap:round;stroke-linejoin:round;stroke-miterlimit:10;}
	.st36{fill:none;stroke:#FFFFFF;stroke-miterlimit:10;}
	.st37{fill:#FFFFFF;stroke:#D0D1D7;stroke-width:4;stroke-miterlimit:10;}
	.st38{fill:none;stroke:#D0D1D7;stroke-width:4;stroke-miterlimit:10;}
	.st39{fill:none;stroke:#D0D1D7;stroke-width:2;stroke-miterlimit:10;}
	.st40{fill:none;stroke:#FFFFFF;stroke-width:4;stroke-miterlimit:10;}
	.st41{fill-rule:evenodd;clip-rule:evenodd;fill:none;stroke:#707584;stroke-linecap:round;stroke-miterlimit:10;}
	.st42{fill:#89664C;}
	.st43{fill:#FFDD67;}
	.st44{fill:#D3976E;}
	.st45{fill:#FED0AC;}
	.st46{fill:#3E4347;}
	.st47{fill:#664E27;}
	.st48{fill:none;stroke:#D0D1D7;stroke-width:6;stroke-miterlimit:10;}
	.st49{fill:#D4D9E3;}
	.st50{fill:#F37120;}
	.st51{fill:#FDE3D2;}
	.st52{fill:#B1B4BD;}
	.st53{fill:#EFF0F2;}
	.st54{fill:none;stroke:#F37120;stroke-width:0.75;stroke-miterlimit:10;}
	.st55{opacity:0.9;fill:none;stroke:#F37120;stroke-miterlimit:10;}
	.st56{opacity:0.9;fill:#F37120;}
	.st57{fill:none;stroke:#F37120;stroke-miterlimit:10;}
	.st58{fill:#F8AA79;}
	.st59{fill:#6B3200;}
	.st60{fill:#F37120;stroke:#FDE3D2;stroke-miterlimit:10;}
	.st61{clip-path:url(#SVGID_6_);}
	.st62{fill:none;stroke:#FDE3D2;stroke-width:2;stroke-miterlimit:10;}
	.st63{fill:none;stroke:#FDE3D2;stroke-width:2;stroke-miterlimit:10;stroke-dasharray:5.0381,5.0381;}
	.st64{opacity:0.9;fill:none;stroke:#7AC3FA;stroke-miterlimit:10;}
	.st65{fill:#7AC3FA;}
	.st66{fill:none;stroke:#7AC3FA;stroke-miterlimit:10;}
	.st67{fill:none;stroke:#FFFFFF;stroke-width:2;stroke-linecap:round;stroke-linejoin:round;stroke-miterlimit:10;}
	.st68{fill:#021C50;}
	.st69{fill:#8E929F;}
	.st70{fill:#1A1A1A;}
</style>
<g>
	<g>
		<path class="st8" d="M1148,1v718H1V1H1148 M1149,0H0v720h1149V0L1149,0z"/>
	</g>
</g>
<g>
	<g>
		<g>
			<g>
				<g>
					<path class="st8" d="M376,450.9c3.9,2.3,3.9,5.9,0,8.2L213,553.9c-3.9,2.3-10.2,2.3-14.1,0L34.7,459.1c-3.9-2.3-3.9-5.9,0-8.2
						l163.1-94.8c3.9-2.3,10.2-2.3,14.1,0L376,450.9z M212.3,553.5l163.1-94.8c3.5-2,3.5-5.3,0-7.4l-164.1-94.8c-3.5-2-9.2-2-12.7,0
						L35.4,451.3c-3.5,2-3.5,5.3,0,7.4l164.1,94.8C203.1,555.5,208.8,555.5,212.3,553.5"/>
				</g>
			</g>
		</g>
		<g class="st2">
			<g>
				<g>
					<path class="st3" d="M376,387.6c3.9,2.3,3.9,5.9,0,8.2L213,490.5c-3.9,2.3-10.2,2.3-14.1,0L34.7,395.8c-3.9-2.3-3.9-5.9,0-8.2
						l163.1-94.8c3.9-2.3,10.2-2.3,14.1,0L376,387.6z"/>
				</g>
			</g>
		</g>
		<g class="st2">
			<g>
				<g>
					<path class="st49" d="M376,324.2c3.9,2.3,3.9,5.9,0,8.2L213,427.2c-3.9,2.3-10.2,2.3-14.1,0L34.7,332.4c-3.9-2.3-3.9-5.9,0-8.2
						l163.1-94.8c3.9-2.3,10.2-2.3,14.1,0L376,324.2z"/>
				</g>
			</g>
		</g>
		<g>
			<g>
				<g>
					<path class="st3" d="M376,260.9c3.9,2.3,3.9,5.9,0,8.2L213,363.8c-3.9,2.3-10.2,2.3-14.1,0L34.7,269.1c-3.9-2.3-3.9-5.9,0-8.2
						l163.1-94.8c3.9-2.3,10.2-2.3,14.1,0L376,260.9z M212.3,363.4l163.1-94.8c3.5-2,3.5-5.3,0-7.4l-164.1-94.8c-3.5-2-9.2-2-12.7,0
						L35.4,261.3c-3.5,2-3.5,5.3,0,7.4l164.1,94.8C203.1,365.4,208.8,365.4,212.3,363.4"/>
				</g>
			</g>
		</g>
	</g>
	<g>
		<g>
			<g>
				<g>
					<path class="st8" d="M745.1,450.9c3.9,2.3,3.9,5.9,0,8.2l-163.1,94.8c-3.9,2.3-10.2,2.3-14.1,0l-164.1-94.8
						C-3.9-2.3-3.9-5.9-0.1-8.2l163.1-94.8c3.9-2.3,10.2-2.3,14.1,0L745.1,450.9z M581.4,553.5l163.1-94.8c3.5-2,3.5-5.3,0-7.4
						l-164.1-94.8c-3.5-2-9.2-2-12.7,0l-163.1,94.8c-3.5,2-3.5,5.3,0,7.4l164.1,94.8C572.2,555.5,577.9,555.5,581.4,553.5"/>
				</g>
			</g>
		</g>
		<g class="st2">
			<g>
				<g>
					<path class="st50" d="M745.1,387.6c3.9,2.3,3.9,5.9,0,8.2l-163.1,94.8c-3.9,2.3-10.2,2.3-14.1,0l-164.1-94.8
						C-3.9-2.3-3.9-5.9-0.1-8.2l163.1-94.8c3.9-2.3,10.2-2.3,14.1,0L745.1,387.6z"/>
				</g>
			</g>
		</g>
		<g class="st2">
			<g>
				<g>
					<path class="st51" d="M745.1,324.2c3.9,2.3,3.9,5.9,0,8.2l-163.1,94.8c-3.9,2.3-10.2,2.3-14.1,0l-164.1-94.8
						C-3.9-2.3-3.9-5.9-0.1-8.2l163.1-94.8c3.9-2.3,10.2-2.3,14.1,0L745.1,324.2z"/>
				</g>
			</g>
		</g>
		<g>
			<g>
				<g>
					<path class="st50" d="M745.1,260.9c3.9,2.3,3.9,5.9,0,8.2l-163.1,94.8c-3.9,2.3-10.2,2.3-14.1,0l-164.1-94.8
						C-3.9-2.3-3.9-5.9-0.1-8.2l163.1-94.8c3.9-2.3,10.2-2.3,14.1,0L745.1,260.9z M581.4,363.4l163.1-94.8c3.5-2,3.5-5.3,0-7.4
						l-164.1-94.8c-3.5-2-9.2-2-12.7,0l-163.1,94.8c-3.5,2-3.5,5.3,0,7.4l164.1,94.8C572.2,365.4,577.9,365.4,581.4,363.4"/>
				</g>
			</g>
		</g>
	</g>
	<g>
		<g>
			<g>
				<g>
					<path class="st8" d="M1114.3,450.9c3.9,2.3,3.9,5.9,0,8.2l-163.1,94.8c-3.9,2.3-10.2,2.3-14.1,0L773,459.1
						C-3.9-2.3-3.9-5.9,0-8.2L936,356.2c3.9-2.3,10.2-2.3,14.1,0L1114.3,450.9z M950.6,553.5l163.1-94.8c3.5-2,3.5-5.3,0-7.4
						l-164.1-94.8c-3.5-2-9.2-2-12.7,0l-163.1,94.8c-3.5,2-3.5,5.3,0,7.4l164.1,94.8C941.4,555.5,947.1,555.5,950.6,553.5"/>
				</g>
			</g>
		</g>
		<g class="st2">
			<g>
				<g>
					<path class="st52" d="M1114.3,387.6c3.9,2.3,3.9,5.9,0,8.2l-163.1,94.8c-3.9,2.3-10.2,2.3-14.1,0L773,395.8
						C-3.9-2.3-3.9-5.9,0-8.2L936,292.8c3.9-2.3,10.2-2.3,14.1,0L1114.3,387.6z"/>
				</g>
			</g>
		</g>
		<g class="st2">
			<g>
				<g>
					<path class="st53" d="M1114.3,324.2c3.9,2.3,3.9,5.9,0,8.2l-163.1,94.8c-3.9,2.3-10.2,2.3-14.1,0L773,332.4
						C-3.9-2.3-3.9-5.9,0-8.2L936,229.5c3.9-2.3,10.2-2.3,14.1,0L1114.3,324.2z"/>
				</g>
			</g>
		</g>
		<g>
			<g>
				<g>
					<path class="st52" d="M1114.3,260.9c3.9,2.3,3.9,5.9,0,8.2l-163.1,94.8c-3.9,2.3-10.2,2.3-14.1,0L773,269.1
						C-3.9-2.3-3.9-5.9,0-8.2L936,166.1c3.9-2.3,10.2-2.3,14.1,0L1114.3,260.9z M950.6,363.4l163.1-94.8c3.5-2,3.5-5.3,0-7.4
						l-164.1-94.8c-3.5-2-9.2-2-12.7,0l-163.1,94.8c-3.5,2-3.5,5.3,0,7.4l164.1,94.8C941.4,365.4,947.1,365.4,950.6,363.4"/>
				</g>
			</g>
		</g>
	</g>
</g>
</svg>
