<?xml version="1.0" encoding="utf-8"?>
<!-- Generator: Adobe Illustrator 22.1.0, SVG Export Plug-In . SVG Version: 6.00 Build 0)  -->
<svg version="1.1" id="Layer_1" xmlns="http://www.w3.org/2000/svg" xmlns:xlink="http://www.w3.org/1999/xlink" x="0px" y="0px"
	 viewBox="0 0 21.1 14.5" style="enable-background:new 0 0 21.1 14.5;" xml:space="preserve">
<style type="text/css">
	.st0{fill:#256AAA;}
</style>
<g>
	<path class="st0" d="M14.5,14.5c-0.1,0-0.1,0-0.2,0C14.1,14.4,14,14.2,14,14v-2.6c0-0.4-0.3-0.8-0.6-0.8c-0.4,0-1.2-0.1-2.2-0.1
		C-3,0-7.2,0.5-10.4,3c-0.2,0.1-0.4,0.1-0.6,0C0,13.4-0.1,13.1,0,12.9c1.3-4.1,4.7-9,13.3-9c0.4,0,0.7-0.4,0.7-0.8V0.5
		c0-0.2,0.1-0.4,0.3-0.5s0.4,0,0.6,0.1l6,6.8c0.2,0.2,0.2,0.5,0,0.7l-6,6.8C14.8,14.4,14.6,14.5,14.5,14.5z M11.2,9.4
		c1.1,0,1.9,0.1,2.3,0.1c0.9,0.1,1.5,0.9,1.5,1.8v1.3l4.8-5.5L15,1.6v1.3c0,1-0.7,1.8-1.7,1.8c-7,0-10.3,3.5-11.8,6.9
		C4.6,9.8,8.4,9.4,11.2,9.4z"/>
</g>
</svg>
