<?xml version="1.0" encoding="utf-8"?>
<!-- Generator: Adobe Illustrator 22.1.0, SVG Export Plug-In . SVG Version: 6.00 Build 0)  -->
<svg version="1.1" id="Layer_1" xmlns="http://www.w3.org/2000/svg" xmlns:xlink="http://www.w3.org/1999/xlink" x="0px" y="0px"
	 viewBox="0 0 12.7 16" style="enable-background:new 0 0 12.7 16;" xml:space="preserve">
<style type="text/css">
	.st0{fill:#231F20;}
</style>
<g>
	<path class="st0" d="M11.1,6.1l-1.6,0V3.4C9.5,1.5,8.1,0,6.3,0S3.2,1.5,3.2,3.4v2.7H1.6C0.7,6.1,0,6.8,0,7.7v6.6
		C0,15.3,0.7,16,1.6,16h9.5c0.9,0,1.6-0.7,1.6-1.7V7.7C12.7,6.8,12,6.1,11.1,6.1z M4.2,3.4c0-1.3,0.9-2.3,2.1-2.3
		c1.2,0,2.1,1,2.1,2.3v2.7H4.2V3.4z"/>
</g>
</svg>
