<?xml version="1.0" encoding="utf-8"?>
<!-- Generator: Adobe Illustrator 22.1.0, SVG Export Plug-In . SVG Version: 6.00 Build 0)  -->
<svg version="1.1" id="Layer_1" xmlns="http://www.w3.org/2000/svg" xmlns:xlink="http://www.w3.org/1999/xlink" x="0px" y="0px"
	 viewBox="0 0 16 16" style="enable-background:new 0 0 16 16;" xml:space="preserve">
<style type="text/css">
	.st0{fill:#FFFFFF;}
</style>
<g>
	<g>
		<line class="st0" x1="8.2" y1="0.5" x2="8.2" y2="15.5"/>
		<path class="st0" d="M8.2,16c-0.3,0-0.5-0.2-0.5-0.5v-15C7.7,0.2,7.9,0,8.2,0c0.3,0,0.5,0.2,0.5,0.5v15C8.7,15.8,8.5,16,8.2,16z"
			/>
	</g>
	<g>
		<line class="st0" x1="15.5" y1="8" x2="0.5" y2="8"/>
		<path class="st0" d="M15.5,8.5h-15C0.2,8.5,0,8.3,0,8c0-0.3,0.2-0.5,0.5-0.5h15C15.8,7.5,16,7.7,16,8C16,8.3,15.8,8.5,15.5,8.5z"
			/>
	</g>
</g>
</svg>
