<?xml version="1.0" encoding="utf-8"?>
<!-- Generator: Adobe Illustrator 22.1.0, SVG Export Plug-In . SVG Version: 6.00 Build 0)  -->
<svg version="1.1" id="Layer_1" xmlns="http://www.w3.org/2000/svg" xmlns:xlink="http://www.w3.org/1999/xlink" x="0px" y="0px"
	 viewBox="0 0 17.6 19" style="enable-background:new 0 0 17.6 19;" xml:space="preserve">
<style type="text/css">
	.st0{fill:#256AAA;}
</style>
<g>
	<g>
		<path class="st0" d="M17.1,19H0.5C0.2,19,0,18.8,0,18.5v-18C0,0.2,0.2,0,0.5,0h16.6c0.3,0,0.5,0.2,0.5,0.5v18
			C17.6,18.8,17.4,19,17.1,19z M1,18h15.6V1H1V18z"/>
	</g>
	<g>
		<g>
			<path class="st0" d="M13.8,5.8H3.8c-0.3,0-0.5-0.2-0.5-0.5s0.2-0.5,0.5-0.5h10.1c0.3,0,0.5,0.2,0.5,0.5S14.1,5.8,13.8,5.8z"/>
		</g>
		<g>
			<path class="st0" d="M9.5,9.9H3.8c-0.3,0-0.5-0.2-0.5-0.5s0.2-0.5,0.5-0.5h5.7c0.3,0,0.5,0.2,0.5,0.5S9.8,9.9,9.5,9.9z"/>
		</g>
	</g>
</g>
</svg>
