<?xml version="1.0" encoding="utf-8"?>
<!-- Generator: Adobe Illustrator 22.1.0, SVG Export Plug-In . SVG Version: 6.00 Build 0)  -->
<svg version="1.1" id="Layer_1" xmlns="http://www.w3.org/2000/svg" xmlns:xlink="http://www.w3.org/1999/xlink" x="0px" y="0px"
	 viewBox="0 0 86 86" style="enable-background:new 0 0 86 86;" xml:space="preserve">
<style type="text/css">
	.st0{fill:#D0D1D7;}
</style>
<g>
	<path class="st0" d="M41.9,56.1c-2.5-1-7.7-2-9.5-4.2c-1-1.2-0.7-2.6-2.4-3.5c-0.7-0.4-1.5-0.4-2.2-0.6c-2.3-0.9-3-2-4.7-3.4
		C-1.8-1.5-2.8-2.5-5.3-2.2c-0.3,0-0.6,0.1-0.9,0.3c-0.2,0-0.3,0-0.5,0.1c-0.1-0.4-0.4-0.8-0.8-1.1c-1.3-0.9-1.4-3.6-2.1-5
		C-1.3-2.4-2.9-4.7-0.1-7.3c0,0,0,0,0,0c0.3,0.4,0.6,0.8,0.8,1.4c0.6,1.8,3.6,2.2,4.1,0c0.5-2.4,1.2-4.4,2.8-6.4
		c0.5-0.6,0.6-1.4,0.4-2.1c0.5,0.5,1.1,0.8,2,0.6c2.3-0.6,5.4-3.3,7.7-2.6c1.9,0.5,3.1-1.5,2.4-3.1C33,15.2,34,13.6,33.4,12
		C-0.1-0.3-0.4-0.6-0.8-0.9c0.7-0.4,1.4-0.7,2.2-1c1.7-0.7,1.2-2.7-0.1-3.5C21.8,9.5,11.4,18.9,7.2,31.3c-0.3,1.9,0.3,3.8,1.8,6
		c1.9,2.7,1.4,5.6,4.6,7.8c0.2,0.1,0.4,0.2,0.6,0.3c0.1,0.3,0.3,0.6,0.4,0.8c-2.7,5.3-1.4,10.1,2.8,14.2c2,2,3.3,3.3,4.1,6.2
		c0.4,1.6,0.5,3.3,1,5c0.8,2.5,2.1,4.2,4.3,5.7c0.1,0.1,0.2,0.1,0.3,0.1c1.5,0.7,3.3-0.9,2.8-2.5c-0.1-0.6,1.4-0.8,2.2-2
		c0.4-0.5,0.3-1.4,0.7-1.8c0.7-0.9,1.8-1.2,2.8-1.8c1.5-1,2.6-2.1,3.3-3.8c0.5-1.1,0.3-3.2,1-4.1c0.4-0.5,1.9-1,2.5-1.4
		C44.1,58.9,43.5,56.7,41.9,56.1z"/>
</g>
<g>
	<path class="st0" d="M46,8.1c-0.4,1.2-1.5,1.9-2.6,2.3c-0.6,0.2-1.4,0.3-1.7,1c-1,2.6-4.6,1.6-4.1-1.1C37.7,9.6,38,8.6,37.4,8
		C-0.4-0.4-0.8-0.7-1.1-1.2c-0.1-0.2-0.1-0.3-0.1-0.5c2.1-0.4,4.3-0.6,6.5-0.6c1.1,0,2.1,0,3.2,0.1C46.2,6.5,46.3,7.3,46,8.1z"/>
</g>
<g>
	<path class="st0" d="M51.9,6.9c0.3,0.5,0.6,0.9,1,1.3c0.3,0.4,0.9,0.8,1.2,1.1c0.1,0.7,0.1,1.4,0.6,2.1c0.5,0.7,1.2,1.3,1.6,2.1v0
		C-1-0.1-2,0.6-2.3,1.6c-0.3,1.2,0.4,2.1,1.5,2.6c0.2,0.1,0.3,0.1,0.5,0.2c0,0.3,0.1,0.5,0.1,0.8c0.3,0.7,0.9,1.4,1.6,1.7
		C-0.3,0.1-0.6,0.2-1,0.4c-1.5,0.8-1.3,2.8,0,3.6c0.8,0.6,1.7,0.9,2.6,0.9c-0.6,0.2-1.2,0.7-1.3,1.4c-0.3,2.3-0.5,3.8-1.7,5.6
		C-0.9,1.3-1.5,2-1.8,3.7c-0.7,3.9,0.5,9,3.9,11.4c3.9,2.6,10-2.4,12.5,0c0.2,0.2,0.4,0.4,0.6,0.7c-0.5,1.5-0.3,3.3,0.5,4.7
		c0.2,0.4,0.5,0.7,0.9,0.8c0,1.7-0.3,3.6-0.7,5.5c-1.3,2.4-2.7,4.8-4.2,7.1c-0.4,0.6-0.4,1.2-0.2,1.7c-0.2,0.6-0.2,1.1-0.1,1.8
		c0.1,0.3,0.2,0.6,0.4,0.8c0,0.1,0,0.2,0,0.3c7.4-6.9,12.1-16.7,12.1-27.6C80.3,25.7,68.2,11,51.9,6.9z"/>
</g>
<g>
	<path class="st0" d="M43,86C19.3,86,0,66.7,0,43C0,19.3,19.3,0,43,0c11.5,0,22.3,4.5,30.4,12.6S86,31.5,86,43
		C86,66.7,66.7,86,43,86z M43,1C19.8,1,1,19.8,1,43s18.8,42,42,42s42-18.8,42-42c0-11.2-4.4-21.8-12.3-29.7C64.8,5.4,54.2,1,43,1z"
		/>
</g>
</svg>
