<?xml version="1.0" encoding="utf-8"?>
<!-- Generator: Adobe Illustrator 22.1.0, SVG Export Plug-In . SVG Version: 6.00 Build 0)  -->
<svg version="1.1" id="Layer_1" xmlns="http://www.w3.org/2000/svg" xmlns:xlink="http://www.w3.org/1999/xlink" x="0px" y="0px"
	 viewBox="0 0 86 86" style="enable-background:new 0 0 86 86;" xml:space="preserve">
<style type="text/css">
	.st0{fill:none;stroke:#D0D1D7;stroke-miterlimit:10;}
	.st1{fill:#D0D1D7;stroke:#FFFFFF;stroke-miterlimit:10;}
	.st2{fill:none;stroke:#FFFFFF;stroke-width:2;stroke-linecap:round;stroke-miterlimit:10;}
	.st3{fill:#D0D1D7;}
</style>
<g>
	<g>
		<ellipse transform="matrix(0.9684 -0.2495 0.2495 0.9684 -9.3681 12.0879)" class="st0" cx="43" cy="43" rx="42.5" ry="42.5"/>
		<rect x="22.5" y="17" class="st1" width="41" height="52"/>
		<path class="st1" d="M26.4,76.4 M63,33.3h2.6c2.8,0,5,2.3,5,5c0,0.1,0,0.4,0,0.5c0,2.6-2,4.8-4.6,5h-3h-1.8H49.6v-5.3
			c0-0.5-0.4-0.9-0.9-0.9c-0.2,0-0.4,0.1-0.6,0.2L32.6,50.2c-0.4,0.3-0.5,0.9-0.2,1.2c0,0.1,0.1,0.1,0.2,0.2L48.2,64
			c0.1,0.1,0.2,0.1,0.2,0.1h0.1c0.1,0,0.1,0,0.2,0h0h0.1h0.1c0.4-0.1,0.7-0.4,0.7-0.9V58h11.6H63h2.6c3.8,0,6.8-3.1,6.8-6.8V38.8
			c0-0.1,0-0.4,0-0.5c0-3.8-3-6.8-6.8-6.8H63"/>
	</g>
	<g>
		<line class="st2" x1="28.2" y1="26.4" x2="54.1" y2="26.4"/>
		<line class="st2" x1="28.2" y1="32.2" x2="54.1" y2="32.2"/>
		<line class="st2" x1="28.2" y1="37.6" x2="37.1" y2="37.6"/>
		<line class="st2" x1="28.2" y1="42.9" x2="34.8" y2="42.9"/>
	</g>
</g>
<path class="st3" d="M59.8,33.7h5.6c2.7,0,4.8,2.2,4.8,4.8s-2.2,4.8-4.8,4.8h-5.5C59.9,43.3,59.8,33.7,59.8,33.7z"/>
</svg>
