<?xml version="1.0" encoding="utf-8"?>
<!-- Generator: Adobe Illustrator 22.1.0, SVG Export Plug-In . SVG Version: 6.00 Build 0)  -->
<svg version="1.1" id="Layer_1" xmlns="http://www.w3.org/2000/svg" xmlns:xlink="http://www.w3.org/1999/xlink" x="0px" y="0px"
	 viewBox="0 0 13.4 13.5" style="enable-background:new 0 0 13.4 13.5;" xml:space="preserve">
<style type="text/css">
	.st0{fill:#707584;}
</style>
<g>
	<g>
		<path class="st0" d="M9.2,13.5c-0.3,0-0.5-0.2-0.5-0.4C8.2,8.7,4.8,5.3,0.4,4.8C0.2,4.8,0,4.5,0,4.2C0,4,0.3,3.8,0.6,3.8
			c4.8,0.5,8.6,4.3,9.1,9.1C9.7,13.2,9.5,13.4,9.2,13.5C9.2,13.5,9.2,13.5,9.2,13.5z"/>
	</g>
	<g>
		<path class="st0" d="M5.6,13.5H0V7.9l0.7,0.3c2.1,0.8,3.8,2.5,4.7,4.6L5.6,13.5z M1,12.5h3.1C3.4,11.2,2.3,10.1,1,9.4V12.5z"/>
	</g>
	<g>
		<path class="st0" d="M12.9,13.4c-0.3,0-0.5-0.2-0.5-0.5C12.4,6.3,7.1,1,0.5,1C0.2,1,0,0.8,0,0.5S0.2,0,0.5,0
			c7.1,0,12.9,5.8,12.9,12.9C13.4,13.2,13.2,13.4,12.9,13.4z"/>
	</g>
</g>
</svg>
