<?xml version="1.0" encoding="utf-8"?>
<!-- Generator: Adobe Illustrator 22.1.0, SVG Export Plug-In . SVG Version: 6.00 Build 0)  -->
<svg version="1.1" id="Layer_1" xmlns="http://www.w3.org/2000/svg" xmlns:xlink="http://www.w3.org/1999/xlink" x="0px" y="0px"
	 viewBox="0 0 16 16" style="enable-background:new 0 0 16 16;" xml:space="preserve">
<style type="text/css">
	.st0{fill:#707584;}
</style>
<g>
	<g>
		<path class="st0" d="M16,16H0V0.5C0,0.2,0.2,0,0.5,0S1,0.2,1,0.5V15h14V1H8.5v4.5C8.5,5.8,8.3,6,8,6S7.5,5.8,7.5,5.5V0H16V16z"/>
	</g>
	<g>
		<path class="st0" d="M7.9,10.9L3.8,6.2C3.6,6,3.6,5.7,3.8,5.5c0.2-0.2,0.5-0.2,0.7,0l3.4,3.9l3.4-3.9c0.2-0.2,0.5-0.2,0.7,0
			c0.2,0.2,0.2,0.5,0,0.7L7.9,10.9z"/>
	</g>
</g>
</svg>
