<?xml version="1.0" encoding="utf-8"?>
<!-- Generator: Adobe Illustrator 22.1.0, SVG Export Plug-In . SVG Version: 6.00 Build 0)  -->
<svg version="1.1" id="Layer_1" xmlns="http://www.w3.org/2000/svg" xmlns:xlink="http://www.w3.org/1999/xlink" x="0px" y="0px"
	 viewBox="0 0 19.4 18.6" style="enable-background:new 0 0 19.4 18.6;" xml:space="preserve">
<style type="text/css">
	.st0{fill:#8B90A1;}
</style>
<g>
	<g>
		<path class="st0" d="M8,16.5c-2.1,0-4.1-0.8-5.6-2.2c-3.2-3.1-3.3-8.3-0.1-11.7C3.9,1,6,0.1,8.2,0c2.2-0.1,4.3,0.7,5.9,2.2
			c1.6,1.5,2.4,3.6,2.5,5.8c0,2.2-0.8,4.3-2.4,5.9c-1.5,1.6-3.6,2.5-5.8,2.6C8.2,16.5,8.1,16.5,8,16.5z M8.4,1C8.4,1,8.3,1,8.2,1
			C6.3,1.1,4.5,1.9,3.1,3.3l0,0c-2.8,2.9-2.8,7.5,0.1,10.2c1.4,1.3,3.2,2,5.1,2c1.9-0.1,3.8-0.9,5.1-2.3c1.4-1.4,2.1-3.3,2.1-5.2
			c0-1.9-0.8-3.7-2.2-5C12,1.7,10.3,1,8.4,1z"/>
	</g>
	<g>
		<rect x="16" y="12.5" transform="matrix(0.6754 -0.7375 0.7375 0.6754 -6.4033 17.3211)" class="st0" width="1" height="6.9"/>
	</g>
</g>
</svg>
