<?xml version="1.0" encoding="utf-8"?>
<!-- Generator: Adobe Illustrator 22.1.0, SVG Export Plug-In . SVG Version: 6.00 Build 0)  -->
<svg version="1.1" id="Layer_1" xmlns="http://www.w3.org/2000/svg" xmlns:xlink="http://www.w3.org/1999/xlink" x="0px" y="0px"
	 viewBox="0 0 85.9 85.9" style="enable-background:new 0 0 85.9 85.9;" xml:space="preserve">
<style type="text/css">
	.st0{fill:#D0D1D7;}
</style>
<g>
	<path class="st0" d="M73.4,12.6C65.2,4.5,54.4,0,43,0C19.3,0,0,19.3,0,43c0,23.7,19.3,43,43,43s43-19.3,43-43
		C85.9,31.5,81.5,20.7,73.4,12.6z M43,84.9c-23.1,0-42-18.8-42-42S19.8,1,43,1c11.2,0,21.8,4.4,29.7,12.3
		c7.9,7.9,12.3,18.5,12.3,29.7C84.9,66.1,66.1,84.9,43,84.9z"/>
	<path class="st0" d="M51.8,63.3c-4.4,0-8.5-1.7-11.7-4.7c-1.6-1.5-2.8-3.3-3.6-5.2h-9v-1h8.6c-0.7-1.8-1-3.7-1.1-5.6v0.6h-7.5v-1
		H35c0-1.7,0.2-3.4,0.7-5h-8.2v-1H36c0.6-1.8,1.6-3.5,2.8-5H27.5v-1h12.2c0.1-0.1,0.2-0.2,0.2-0.3h0c3.2-3.4,7.5-5.3,12.2-5.5
		c4-0.1,7.8,1.1,10.9,3.5V17.4H23v51h40v-9.1c-3,2.4-6.7,3.9-10.5,4C52.2,63.3,52,63.3,51.8,63.3z M27.5,27.9h15v1h-15V27.9z"/>
	<path class="st0" d="M64.8,55.4l-0.1-0.1L64,54.6l-0.4-0.4c0.1-0.2,0.3-0.4,0.4-0.6c3.1-4.8,3.1-11,0-15.6
		C-0.2-0.2-0.3-0.5-0.5-0.7c-0.2-0.2-0.3-0.4-0.5-0.6c-0.3-0.3-0.6-0.7-0.9-1c-2.7-2.6-6.3-4-10.1-3.9c-3.8,0.1-7.4,1.7-10,4.5h0
		C-5.5,5.7-5.4,14.8,0.2,20.2c2.6,2.5,6,3.9,9.7,3.9c0.2,0,0.3,0,0.5,0c3.2-0.1,6.2-1.3,8.7-3.3l1.3,1.2l0.9,0.8l0.1,0.1l0.4,0.4
		L64,60l3.8,3.5l0.2-0.2l2.5-2.8l-4.6-4.2L64.8,55.4z M44.8,53.7c-4-3.9-4-10.4-0.1-14.5h0c1.9-2,4.5-3.2,7.3-3.3c0.1,0,0.2,0,0.3,0
		c2.6,0,5,1,6.9,2.8c4,3.9,4,10.4,0.1,14.5c-1.9,2-4.5,3.2-7.3,3.3C49.3,56.5,46.7,55.5,44.8,53.7z"/>
	<path class="st0" d="M35,46.4L35,46.4c0,0.1,0,0.3,0,0.4V46.4z"/>
	<polygon class="st0" points="53.5,41.7 51.5,41.7 51.5,45.7 47.5,45.7 47.5,47.7 51.5,47.7 51.5,51.6 53.5,51.6 53.5,47.7
		57.5,47.7 57.5,45.7 53.5,45.7 	"/>
</g>
</svg>
