<?xml version="1.0" encoding="utf-8"?>
<!-- Generator: Adobe Illustrator 22.1.0, SVG Export Plug-In . SVG Version: 6.00 Build 0)  -->
<svg version="1.1" id="Layer_1" xmlns="http://www.w3.org/2000/svg" xmlns:xlink="http://www.w3.org/1999/xlink" x="0px" y="0px"
	 viewBox="0 0 16.6 16.6" style="enable-background:new 0 0 16.6 16.6;" xml:space="preserve">
<style type="text/css">
	.st0{fill:#707584;}
	.st1{fill:none;stroke:#707584;stroke-linecap:round;stroke-miterlimit:10;}
</style>
<g>
	<g>
		<g>
			<path class="st0" d="M16,16.6H0v-16h10.5c0.3,0,0.5,0.2,0.5,0.5s-0.2,0.5-0.5,0.5H1v14h14V7.3c0-0.3,0.2-0.5,0.5-0.5
				S16,7.1,16,7.3V16.6z"/>
		</g>
		<g>
			<path class="st1" d="M15.5,7.3"/>
		</g>
		<g>
			<path class="st1" d="M10.5,1.1"/>
		</g>
	</g>
	<g>
		<path class="st0" d="M8,11.7L4.1,6.6C4,6.3,4,6,4.2,5.9C4.5,5.7,4.8,5.7,4.9,6L8,10.1l7.7-9.9c0.2-0.2,0.5-0.3,0.7-0.1
			c0.2,0.2,0.3,0.5,0.1,0.7L8,11.7z"/>
	</g>
</g>
</svg>
