<?xml version="1.0" encoding="utf-8"?>
<!-- Generator: Adobe Illustrator 22.1.0, SVG Export Plug-In . SVG Version: 6.00 Build 0)  -->
<svg version="1.1" id="Layer_1" xmlns="http://www.w3.org/2000/svg" xmlns:xlink="http://www.w3.org/1999/xlink" x="0px" y="0px"
	 viewBox="0 0 27 27" style="enable-background:new 0 0 27 27;" xml:space="preserve">
<style type="text/css">
	.st0{fill:#FFFFFF;}
</style>
<g>
	<path class="st0" d="M16.8,8.7c-2.2-2.1-5.7-2-7.8,0.2c-1,1.1-1.6,2.5-1.6,3.9c0,1.5,0.6,2.8,1.6,3.9c1,1,2.4,1.5,3.7,1.5
		c1.3,0,2.7-0.5,3.7-1.5l3.1,2.8l0.7-0.7l-3-2.8C19,13.8,18.9,10.6,16.8,8.7z M9.8,16c-0.9-0.8-1.3-1.9-1.3-3.1
		c0-1.2,0.5-2.4,1.3-3.2c0.9-1,2.1-1.4,3.3-1.4c1.1,0,2.2,0.4,3,1.2c1.8,1.7,1.8,4.6,0,6.4C14.4,17.6,11.5,17.7,9.8,16z"/>
	<path class="st0" d="M13.5,0C6.1,0,0,6.1,0,13.5S6.1,27,13.5,27S27,20.9,27,13.5S20.9,0,13.5,0z M13.5,26C6.6,26,1,20.4,1,13.5
		S6.6,1,13.5,1S26,6.6,26,13.5S20.4,26,13.5,26z"/>
</g>
</svg>
