<?xml version="1.0" encoding="utf-8"?>
<!-- Generator: Adobe Illustrator 22.1.0, SVG Export Plug-In . SVG Version: 6.00 Build 0)  -->
<svg version="1.1" id="Layer_1" xmlns="http://www.w3.org/2000/svg" xmlns:xlink="http://www.w3.org/1999/xlink" x="0px" y="0px"
	 viewBox="0 0 1149 720" style="enable-background:new 0 0 1149 720;" xml:space="preserve">
<style type="text/css">
	.st0{opacity:0.9;}
	.st1{fill:#274174;}
	.st2{fill:#DDF3FF;}
	.st3{fill:#5499DA;}
	.st4{fill:none;stroke:#B1B4BD;stroke-width:0.75;stroke-miterlimit:10;}
	.st5{fill:none;stroke:#B1B4BD;stroke-width:0.75;stroke-miterlimit:10;stroke-dasharray:3.0066,3.0066;}
	.st6{fill:#D0D1D7;}
	.st7{fill:none;stroke:#D0D1D7;stroke-miterlimit:10;}
	.st8{opacity:0.35;}
	.st9{opacity:0.15;clip-path:url(#SVGID_2_);}
	.st10{opacity:0.15;}
	.st11{clip-path:url(#SVGID_4_);}
	.st12{fill:#DCDCE1;}
	.st13{fill:none;stroke:#CBCBCA;stroke-miterlimit:10;}
	.st14{fill:#D0D1D7;stroke:#FFFFFF;stroke-miterlimit:10;}
	.st15{fill:none;stroke:#FFFFFF;stroke-width:2;stroke-linecap:round;stroke-miterlimit:10;}
	.st16{fill:#FFFFFF;}
	.st17{fill:#FFFFFF;stroke:#D0D1D7;stroke-width:2;stroke-miterlimit:10;}
	.st18{fill:#D0D1D7;stroke:#FFFFFF;stroke-width:2;stroke-miterlimit:10;}
	.st19{fill:none;stroke:#FFFFFF;stroke-width:3;stroke-linecap:round;stroke-miterlimit:10;}
	.st20{fill:#707584;}
	.st21{opacity:0.2;}
	.st22{fill:none;stroke:#707584;stroke-linecap:round;stroke-miterlimit:10;}
	.st23{fill:none;stroke:#707584;stroke-linecap:round;stroke-linejoin:round;stroke-miterlimit:10;}
	.st24{fill:none;stroke:#256AAA;stroke-miterlimit:10;}
	.st25{fill:none;stroke:#256AAA;stroke-linecap:round;stroke-linejoin:round;stroke-miterlimit:10;}
	.st26{fill:none;stroke:#707584;stroke-miterlimit:10;}
	.st27{fill:#E3EFFC;stroke:#707584;stroke-miterlimit:10;}
	.st28{fill:none;stroke:#274174;stroke-miterlimit:10;}
	.st29{fill:#256AAA;}
	.st30{fill:none;stroke:#256AAA;stroke-linecap:round;stroke-miterlimit:10;}
	.st31{fill:none;stroke:#274174;stroke-linecap:round;stroke-miterlimit:10;}
	.st32{fill:none;stroke:#256AAA;stroke-width:2;stroke-linecap:round;stroke-miterlimit:10;}
	.st33{fill:none;stroke:#D0D1D7;stroke-linecap:round;stroke-linejoin:round;stroke-miterlimit:10;}
	.st34{fill:none;stroke:#FFFFFF;stroke-miterlimit:10;}
	.st35{fill:#FFFFFF;stroke:#D0D1D7;stroke-width:4;stroke-miterlimit:10;}
	.st36{fill:none;stroke:#D0D1D7;stroke-width:4;stroke-miterlimit:10;}
	.st37{fill:none;stroke:#D0D1D7;stroke-width:2;stroke-miterlimit:10;}
	.st38{fill-rule:evenodd;clip-rule:evenodd;fill:none;stroke:#707584;stroke-linecap:round;stroke-miterlimit:10;}
	.st39{fill:#89664C;}
	.st40{fill:#FFDD67;}
	.st41{fill:#D3976E;}
	.st42{fill:#FED0AC;}
	.st43{fill:#3E4347;}
	.st44{fill:#664E27;}
	.st45{fill:none;stroke:#D0D1D7;stroke-width:6;stroke-miterlimit:10;}
	.st46{fill:#D4D9E3;}
	.st47{fill:#F37120;}
	.st48{fill:#FDE3D2;}
	.st49{fill:#B1B4BD;}
	.st50{fill:#EFF0F2;}
	.st51{fill:none;stroke:#F37120;stroke-width:0.75;stroke-miterlimit:10;}
	.st52{opacity:0.9;fill:none;stroke:#F37120;stroke-miterlimit:10;}
	.st53{opacity:0.9;fill:#F37120;}
	.st54{fill:none;stroke:#F37120;stroke-miterlimit:10;}
	.st55{fill:#F8AA79;}
	.st56{fill:#6B3200;}
	.st57{fill:#F37120;stroke:#FDE3D2;stroke-miterlimit:10;}
	.st58{clip-path:url(#SVGID_6_);}
	.st59{fill:none;stroke:#FDE3D2;stroke-width:2;stroke-miterlimit:10;}
	.st60{fill:none;stroke:#FDE3D2;stroke-width:2;stroke-miterlimit:10;stroke-dasharray:5.0381,5.0381;}
	.st61{opacity:0.9;fill:none;stroke:#7AC3FA;stroke-miterlimit:10;}
	.st62{fill:#7AC3FA;}
	.st63{fill:none;stroke:#7AC3FA;stroke-miterlimit:10;}
</style>
<g class="st0">
	<rect class="st1" width="1149" height="720"/>
</g>
<rect x="257" y="242" class="st2" width="293.5" height="293.5"/>
<rect x="154.3" y="465.3" class="st3" width="164.4" height="173.8"/>
<rect x="154.3" y="204.8" class="st3" width="784.1" height="93.3"/>
<rect x="611" y="242" class="st2" width="293.5" height="293.5"/>
<g class="st0">
	<path class="st1" d="M444,340.3V333h5.7c0.9,0,1.8-0.1,2.7-0.3c0.8-0.2,1.6-0.5,2.2-1.1c0.6-0.6,1.2-1.4,1.5-2.5
		c0.4-1.1,0.6-2.5,0.6-4.3v-66.7c0-1.8-0.2-3.3-0.6-4.4c-0.4-1.1-0.9-1.9-1.5-2.5c-0.6-0.6-1.4-1-2.2-1.2c-0.8-0.2-1.7-0.3-2.7-0.3
		H444v-7.2h44.1c12.9,0,22.4,2.2,28.4,6.5c6,4.3,9,10.6,9,18.8c0,3.6-0.5,6.8-1.6,9.6c-1.1,2.8-2.5,5.3-4.2,7.4
		C-1.8,2.1-3.8,3.9-6,5.3c-2.2,1.5-4.5,2.6-6.8,3.6l16.3,28c1.2,2,2.3,3.6,3.4,5c1.1,1.4,2.2,2.6,3.3,3.5c1.1,0.9,2.2,1.6,3.4,2
		c1.2,0.4,2.4,0.6,3.7,0.6h0.5v7.3H533c-4.1,0-7.7-0.2-10.7-0.5c-3.1-0.3-5.7-0.9-8-1.8c-2.3-0.9-4.3-2.2-5.9-3.8s-3.2-3.7-4.6-6.2
		l-16.2-30h-9.1v26.9c0,1.8,0.2,3.2,0.6,4.3c0.4,1.1,0.9,1.9,1.5,2.5c0.6,0.6,1.4,0.9,2.2,1.1c0.8,0.2,1.7,0.3,2.7,0.3h5.9v7.3H444z
		 M478.3,289.9h7.7c3.2,0,5.8-0.4,7.9-1.3c2.1-0.8,3.8-2.1,5.1-3.8s2.2-3.8,2.7-6.3c0.6-2.5,0.8-5.4,0.8-8.8c0-3.5-0.3-6.4-0.9-8.8
		C-0.6-2.4-1.6-4.4-2.9-5.9c-1.3-1.5-3.1-2.6-5.2-3.3c-2.1-0.7-4.7-1-7.7-1h-7.4V289.9z"/>
	<path class="st3" d="M623.8,313.5c0-12,3.9-22.9,11.6-32.9c7.7-10,17.4-15,29.2-15c5.7,0,10.2,1.4,13.4,4.1
		c3.2,2.8,4.7,6.6,4.7,11.6c0,7.4-3.8,13.9-11.5,19.4c-7.7,5.5-17,8.3-28.1,8.3h-2.3c-0.8,0-1.6,0-2.5-0.1c-0.2,1.2-0.3,3.1-0.3,5.7
		c0,12.3,5,18.5,15,18.5c7.8,0,14.3-3.3,19.7-9.8c0.9,0.6,1.4,1.7,1.4,3.4c0,3.6-2.1,7.1-6.4,10.2c-4.3,3.2-10,4.8-17.2,4.8
		C-8,0-14.4-2.5-19.3-7.5C626.2,329.1,623.8,322.2,623.8,313.5z M639.5,302.4h1.3c8.1,0,14.7-2,19.9-5.9c5.2-3.9,7.8-9,7.8-15.2
		c0-6.1-2.6-9.1-7.9-9.1c-4.4,0-8.5,2.8-12.4,8.3C644.5,286,641.6,293.3,639.5,302.4z"/>
	<path class="st3" d="M691.4,340.3l11.5-55c0.5-2.6,0.8-4.7,0.8-6.3c0-4.2-3.2-6.4-9.6-6.4H693l1.2-5.7h25.3l-3.7,17.2l1.4-0.1
		c7.4-12.2,15.8-18.3,25-18.3c9.8,0,14.6,5,14.6,15c0,1.1-0.1,2.2-0.3,3.3h1.3c7.4-12.2,15.7-18.3,24.8-18.3c9.8,0,14.7,5,14.7,15
		c0,2.9-0.8,8-2.5,15.2l-3.6,16.2c-1.2,5.3-1.7,10.1-1.7,14.4c0,4.4,1.6,6.5,4.8,6.5c2.6,0,5.5-1,8.7-3.1l2.5,4
		C-5.8,5.2-11.4,7.7-16.7,7.7c-3.7,0-6.7-1.2-9-3.7s-3.4-5.8-3.4-10c0-4.2,0.8-10.3,2.5-18.5l2.3-10.7c2-8.8,3-14.3,3-16.3
		c0-5.4-2.1-8.1-6.3-8.1c-4.7,0-9.6,3-14.6,9c-5,6-8.5,12.3-10.5,18.9l-2.2,9.8c-0.5,2.5-1.3,7.4-2.3,14.6c-1,7.3-1.5,11.8-1.5,13.6
		h-13.2c0-2,0.6-6.8,1.7-14.2c1.2-7.4,2.1-12.9,2.9-16.6l3.2-14.1c1.4-5.6,2.1-9.8,2.1-12.8c0-5.4-2.1-8.1-6.4-8.1
		C-5.1,0-10.3,3.5-15.7,10.4c-5.4,6.9-8.8,13.8-10.2,20.5l-7.3,35H691.4z"/>
</g>
<g>
	<g>
		<rect x="217.2" y="149.5" class="st61" width="721" height="431"/>
		<rect x="217.2" y="149.5" class="st61" width="721" height="31.3"/>
		<g>
			<circle class="st62" cx="239.7" cy="166.4" r="5.4"/>
			<circle class="st62" cx="257.3" cy="166.4" r="5.4"/>
			<circle class="st62" cx="275" cy="166.4" r="5.4"/>
		</g>
	</g>
	<g class="st0">
		<line class="st63" x1="245.3" y1="551.5" x2="245.3" y2="205.8"/>
		<line class="st63" x1="257.3" y1="551.5" x2="257.3" y2="205.8"/>
	</g>
	<g class="st0">
		<line class="st63" x1="318.5" y1="551.5" x2="318.5" y2="205.8"/>
		<line class="st63" x1="330.5" y1="551.5" x2="330.5" y2="205.8"/>
	</g>
	<g class="st0">
		<line class="st63" x1="391.7" y1="551.5" x2="391.7" y2="205.8"/>
		<line class="st63" x1="403.7" y1="551.5" x2="403.7" y2="205.8"/>
	</g>
	<g class="st0">
		<line class="st63" x1="464.8" y1="551.5" x2="464.8" y2="205.8"/>
		<line class="st63" x1="476.8" y1="551.5" x2="476.8" y2="205.8"/>
	</g>
	<g class="st0">
		<line class="st63" x1="538" y1="551.5" x2="538" y2="205.8"/>
		<line class="st63" x1="550" y1="551.5" x2="550" y2="205.8"/>
	</g>
	<g class="st0">
		<line class="st63" x1="611.2" y1="551.5" x2="611.2" y2="205.8"/>
		<line class="st63" x1="623.2" y1="551.5" x2="623.2" y2="205.8"/>
	</g>
	<g class="st0">
		<line class="st63" x1="684.3" y1="551.5" x2="684.3" y2="205.8"/>
		<line class="st63" x1="696.3" y1="551.5" x2="696.3" y2="205.8"/>
	</g>
	<g class="st0">
		<line class="st63" x1="757.5" y1="551.5" x2="757.5" y2="205.8"/>
		<line class="st63" x1="769.5" y1="551.5" x2="769.5" y2="205.8"/>
	</g>
	<g class="st0">
		<line class="st63" x1="830.7" y1="551.5" x2="830.7" y2="205.8"/>
		<line class="st63" x1="842.7" y1="551.5" x2="842.7" y2="205.8"/>
	</g>
	<g class="st0">
		<line class="st63" x1="903.8" y1="551.5" x2="903.8" y2="205.8"/>
		<line class="st63" x1="915.8" y1="551.5" x2="915.8" y2="205.8"/>
	</g>
	<line class="st34" x1="218.5" y1="242.5" x2="936.5" y2="242.5"/>
	<line class="st34" x1="218.5" y1="298.3" x2="936.5" y2="298.3"/>
	<line class="st34" x1="218.5" y1="354.1" x2="936.5" y2="354.1"/>
	<line class="st34" x1="218.5" y1="409.9" x2="936.5" y2="409.9"/>
	<line class="st34" x1="218.5" y1="465.7" x2="936.5" y2="465.7"/>
	<line class="st34" x1="218.5" y1="521.5" x2="936.5" y2="521.5"/>
</g>
<g>
	<g>
		<line class="st7" x1="185" y1="310.8" x2="185" y2="454.7"/>
		<g>
			<polygon class="st6" points="180.9,314.1 181.6,314.7 185,311.1 188.4,314.7 189.1,314.1 185,309.7 			"/>
		</g>
		<g>
			<polygon class="st6" points="180.9,451.4 181.6,450.8 185,454.4 188.4,450.8 189.1,451.4 185,455.8 			"/>
		</g>
	</g>
</g>
<g>
	<path class="st16" d="M550.8,603.2L523,575.4l27.8-27.8V603.2z"/>
	<path class="st16" d="M650.9,575.4l-27.8,27.8v-55.6L650.9,575.4z"/>
</g>
</svg>
