<?xml version="1.0" encoding="utf-8"?>
<!-- Generator: Adobe Illustrator 22.1.0, SVG Export Plug-In . SVG Version: 6.00 Build 0)  -->
<svg version="1.1" id="Layer_1" xmlns="http://www.w3.org/2000/svg" xmlns:xlink="http://www.w3.org/1999/xlink" x="0px" y="0px"
	 viewBox="0 0 86 86" style="enable-background:new 0 0 86 86;" xml:space="preserve">
<style type="text/css">
	.st0{fill:#D0D1D7;}
</style>
<g>
	<g>
		<path class="st0" d="M73.4,12.6C65.3,4.5,54.5,0,43,0C19.3,0,0,19.3,0,43c0,11.5,4.5,22.3,12.6,30.4C20.7,81.5,31.5,86,43,86
			c23.7,0,43-19.3,43-43C86,31.5,81.5,20.7,73.4,12.6z M43,85c-11.2,0-21.8-4.4-29.7-12.3C5.4,64.8,1,54.2,1,43C1,19.8,19.8,1,43,1
			c11.2,0,21.8,4.4,29.7,12.3C80.6,21.2,85,31.8,85,43C85,66.2,66.2,85,43,85z"/>
	</g>
	<g>
		<g>
			<path class="st0" d="M65.8,14.9v28.7c-1.4-1-3-1.8-4.7-2.3V18.8H30.3v-3.9H65.8z"/>
		</g>
		<g>
			<path class="st0" d="M60.1,19.8V41c-1-0.2-2-0.3-3-0.3c-0.1,0-0.3,0-0.4,0V24.8h-32v-5H60.1z"/>
		</g>
		<g>
			<path class="st0" d="M55.7,40.8V25.8H20.2v45.3h35.5v-1.5c-3.1-0.3-5.9-1.6-8.1-3.5c-0.2-0.2-0.4-0.3-0.5-0.5
				C-0.2-0.2-0.3-0.3-0.5-0.5c-1.1-1.2-2-2.5-2.6-3.9c-0.1-0.2-0.2-0.3-0.2-0.5c-0.1-0.2-0.1-0.3-0.2-0.5c-0.6-1.6-0.9-3.2-0.9-4.9
				C42.6,47.7,48.4,41.5,55.7,40.8z M23.7,32.7c0.1-0.1,0.3-0.1,0.5-0.1h25.9c0.5,0,1,0.4,1,1c0,0.5-0.5,1-1,1H24.2
				C-0.2,0-0.4-0.1-0.5-0.1c-0.3-0.2-0.5-0.5-0.5-0.9S23.4,32.9,23.7,32.7z M23.2,50c0-0.4,0.2-0.7,0.5-0.9c0.1-0.1,0.3-0.1,0.5-0.1
				h6.7c0.5,0,1,0.5,1,1c0,0.6-0.5,1-1,1h-6.7c-0.2,0-0.4,0-0.5-0.1C23.4,50.7,23.2,50.4,23.2,50z M23.2,44.7c0-0.4,0.2-0.7,0.5-0.9
				c0.1-0.1,0.3-0.1,0.5-0.1h8.9c0.6,0,1,0.4,1,1c0,0.5-0.4,1-1,1h-8.9c-0.2,0-0.4-0.1-0.5-0.1C23.4,45.4,23.2,45.1,23.2,44.7z
				 M24.2,40.4c-0.2,0-0.4,0-0.5-0.1c-0.3-0.2-0.5-0.5-0.5-0.9s0.2-0.7,0.5-0.9c0.1-0.1,0.3-0.1,0.5-0.1h25.9c0.5,0,1,0.4,1,1
				c0,0.5-0.5,1-1,1H24.2z"/>
		</g>
	</g>
	<g>
		<g>
			<path class="st0" d="M66.8,45.8c-0.2-0.2-0.3-0.3-0.5-0.5c-0.2-0.2-0.3-0.3-0.5-0.4c-1.3-1.2-2.9-2-4.7-2.6
				C-0.2,0-0.3-0.1-0.5-0.2c-0.2,0-0.3-0.1-0.5-0.1c-1-0.2-2-0.3-3-0.3c-0.1,0-0.3,0-0.4,0c-0.2,0-0.3,0-0.5,0c-0.2,0-0.3,0-0.5,0
				C-6.8,0.7-12.1,6.5-12.1,13.4c0,1.7,0.3,3.4,0.9,4.9c0.1,0.2,0.1,0.3,0.2,0.5c0.1,0.2,0.2,0.3,0.2,0.5c0.7,1.5,1.7,2.8,2.9,3.9
				c0.2,0.2,0.4,0.3,0.6,0.5c0.2,0.2,0.4,0.3,0.6,0.5c1.9,1.4,4.1,2.3,6.6,2.5c0.2,0,0.3,0,0.5,0c0.2,0,0.3,0,0.5,0
				c0.1,0,0.3,0,0.4,0c7.4,0,13.5-6.1,13.5-13.5C70.6,51.6,69.2,48.3,66.8,45.8z M66.3,53.2l-0.5,0.4L61.1,57l-0.5,0.3l0.5,1.4
				l0.5,1.5l0.2,0.5l0.2,0.5l1,2.9l-1.8-1.3l-0.5-0.4l-0.5-0.4l-1.3-0.9l-1.4-1l-0.3-0.3l-0.3,0.3l-0.1,0.1l-0.5,0.4v0.1h-0.1
				L55.7,61l-0.3,0.2l-4.1,2.9l1-2.9l0.2-0.5l0.2-0.5l0.9-2.8l-5.8-4.2h7.1l0.8-2.3l0.5-1.5l0.5-1.5l0.4-1.4l2.2,6.8h7.1L66.3,53.2z
				"/>
		</g>
	</g>
</g>
</svg>
