<?xml version="1.0" encoding="utf-8"?>
<!-- Generator: Adobe Illustrator 22.1.0, SVG Export Plug-In . SVG Version: 6.00 Build 0)  -->
<svg version="1.1" id="Layer_1" xmlns="http://www.w3.org/2000/svg" xmlns:xlink="http://www.w3.org/1999/xlink" x="0px" y="0px"
	 viewBox="0 0 16 16" style="enable-background:new 0 0 16 16;" xml:space="preserve">
<style type="text/css">
	.st0{fill:#707584;}
</style>
<g>
	<path class="st0" d="M2.9,13c-0.1,0-0.2,0-0.3-0.1c-0.2-0.2-0.3-0.5-0.1-0.7L7,5.4l2.9,4.1l4.3-7.1c0.1-0.2,0.5-0.3,0.7-0.2
		c0.2,0.1,0.3,0.5,0.2,0.7L10,11.3L7,7.2l-3.7,5.6C3.2,12.9,3.1,13,2.9,13z"/>
</g>
<g>
	<g>
		<path class="st0" d="M15.5,16H0V0.5C0,0.2,0.2,0,0.5,0S1,0.2,1,0.5V15h14.5c0.3,0,0.5,0.2,0.5,0.5S15.8,16,15.5,16z"/>
	</g>
</g>
</svg>
