<svg id="Layer_1" data-name="Layer 1" xmlns="http://www.w3.org/2000/svg" viewBox="0 0 86 86"><defs><style>.cls-1{fill:none;stroke:#d0d1d7;}.cls-1,.cls-2{stroke-miterlimit:10;}.cls-2,.cls-4{fill:#d0d1d7;}.cls-2{stroke:#fff;}.cls-3{fill:#fff;}</style></defs><title>tags</title><circle class="cls-1" cx="43" cy="43" r="42.5" transform="translate(-9.37 12.09) rotate(-14.45)"/><polygon class="cls-2" points="52.95 23.89 14.84 30.16 18.15 50.34 56.27 44.07 61.33 32.88 52.95 23.89"/><polygon class="cls-2" points="49.48 29.73 22.16 57.04 36.62 71.5 63.94 44.19 61.52 32.14 49.48 29.73"/><path class="cls-3" d="M57.51,39.37a3.22,3.22,0,1,1,3.21-3.22A3.22,3.22,0,0,1,57.51,39.37Z"/><path class="cls-4" d="M62.73,39.37a8.41,8.41,0,0,1-7.52-4.61L56.64,34a6.83,6.83,0,1,0-.74-3.1H54.3a8.43,8.43,0,1,1,8.43,8.44Z"/></svg>