<?xml version="1.0" encoding="utf-8"?>
<!-- Generator: Adobe Illustrator 22.1.0, SVG Export Plug-In . SVG Version: 6.00 Build 0)  -->
<svg version="1.1" id="Layer_1" xmlns="http://www.w3.org/2000/svg" xmlns:xlink="http://www.w3.org/1999/xlink" x="0px" y="0px"
	 viewBox="0 0 12.8 16" style="enable-background:new 0 0 12.8 16;" xml:space="preserve">
<style type="text/css">
	.st0{fill:#256AAA;}
</style>
<g>
	<g>
		<path class="st0" d="M7.5,13.5c0,0.4,0,0.6,0.1,0.8c0.1,0.2,0.2,0.4,0.4,0.5C8.2,14.9,8.4,15,8.7,15c0.2,0,0.5,0.1,0.7,0.1h0.5V16
			h-7v-0.9h0.5c0.2,0,0.5,0,0.7,0c0.2,0,0.4-0.1,0.6-0.2c0.2-0.1,0.3-0.3,0.4-0.5c0.1-0.2,0.1-0.5,0.1-0.8V1.1H3.1
			C-0.3,0-0.6,0-0.8,0.1C2.1,1.4,1.9,1.5,1.7,1.7C1.6,1.8,1.5,2,1.4,2.2C1.4,2.5,1.3,2.7,1.3,3l-0.1,1H0L0.1,0h12.6l0.1,3.9h-1.2
			l-0.1-1c0-0.2-0.1-0.5-0.2-0.7c-0.1-0.2-0.2-0.4-0.3-0.6c-0.1-0.2-0.3-0.3-0.5-0.4C10.3,1.2,10,1.1,9.7,1.1H7.5V13.5z"/>
	</g>
</g>
</svg>
