<?xml version="1.0" encoding="utf-8"?>
<!-- Generator: Adobe Illustrator 22.1.0, SVG Export Plug-In . SVG Version: 6.00 Build 0)  -->
<svg version="1.1" id="Layer_1" xmlns="http://www.w3.org/2000/svg" xmlns:xlink="http://www.w3.org/1999/xlink" x="0px" y="0px"
	 viewBox="0 0 13.9 19.9" style="enable-background:new 0 0 13.9 19.9;" xml:space="preserve">
<style type="text/css">
	.st0{fill:#707584;}
</style>
<g>
	<g>
		<path class="st0" d="M9.9,15.6H4v-0.5c0-1.8-0.9-3-1.9-4.2C1,9.5-0.2,8,0,5.8C0.2,3,2.2,0,6.9,0c4.8,0,6.7,3,6.9,5.8
			c0.2,2.2-0.9,3.7-2,5.1c-1,1.3-1.9,2.5-1.9,4.2V15.6z M5,15.1L5,15.1L5,15.1z M4.9,14.6h4c0.2-1.9,1.1-3.1,2.1-4.4
			c1-1.3,2-2.5,1.8-4.4C12.8,4.7,12.1,1,6.9,1C1.8,1,1.1,4.7,1,5.9C0.9,7.7,1.8,9,2.8,10.3C3.8,11.5,4.8,12.8,4.9,14.6z"/>
	</g>
	<g>
		<path class="st0" d="M6.9,15.5c-0.3,0-0.5-0.2-0.5-0.5V9.3h-2c-0.3,0-0.5-0.2-0.5-0.5s0.2-0.5,0.5-0.5h3V15
			C7.4,15.3,7.2,15.5,6.9,15.5z"/>
	</g>
	<g>
		<path class="st0" d="M9.5,17.9H4.4c-0.3,0-0.5-0.2-0.5-0.5s0.2-0.5,0.5-0.5h5.1c0.3,0,0.5,0.2,0.5,0.5S9.8,17.9,9.5,17.9z"/>
	</g>
	<g>
		<path class="st0" d="M8.9,19.9H5c-0.3,0-0.5-0.2-0.5-0.5s0.2-0.5,0.5-0.5h3.9c0.3,0,0.5,0.2,0.5,0.5S9.1,19.9,8.9,19.9z"/>
	</g>
	<g>
		<path class="st0" d="M9.5,9.3H6.9c-0.3,0-0.5-0.2-0.5-0.5s0.2-0.5,0.5-0.5h2.5c0.3,0,0.5,0.2,0.5,0.5S9.8,9.3,9.5,9.3z"/>
	</g>
</g>
</svg>
