<?xml version="1.0" encoding="utf-8"?>
<!-- Generator: Adobe Illustrator 22.1.0, SVG Export Plug-In . SVG Version: 6.00 Build 0)  -->
<svg version="1.1" id="Layer_1" xmlns="http://www.w3.org/2000/svg" xmlns:xlink="http://www.w3.org/1999/xlink" x="0px" y="0px"
	 viewBox="0 0 1149 720" style="enable-background:new 0 0 1149 720;" xml:space="preserve">
<style type="text/css">
	.st0{fill:none;stroke:#B1B4BD;stroke-width:0.75;stroke-miterlimit:10;}
	.st1{fill:none;stroke:#B1B4BD;stroke-width:0.75;stroke-miterlimit:10;stroke-dasharray:3.0066,3.0066;}
	.st2{fill:#D0D1D7;}
	.st3{fill:none;stroke:#D0D1D7;stroke-miterlimit:10;}
	.st4{fill:#274174;}
	.st5{opacity:0.35;}
	.st6{opacity:0.15;clip-path:url(#SVGID_2_);}
	.st7{opacity:0.15;}
	.st8{clip-path:url(#SVGID_4_);}
	.st9{fill:#DCDCE1;}
	.st10{fill:none;stroke:#CBCBCA;stroke-miterlimit:10;}
	.st11{fill:#D0D1D7;stroke:#FFFFFF;stroke-miterlimit:10;}
	.st12{fill:none;stroke:#FFFFFF;stroke-width:2;stroke-linecap:round;stroke-miterlimit:10;}
	.st13{fill:#FFFFFF;}
	.st14{fill:#FFFFFF;stroke:#D0D1D7;stroke-width:2;stroke-miterlimit:10;}
	.st15{fill:#D0D1D7;stroke:#FFFFFF;stroke-width:2;stroke-miterlimit:10;}
	.st16{fill:none;stroke:#FFFFFF;stroke-width:3;stroke-linecap:round;stroke-miterlimit:10;}
	.st17{fill:#707584;}
	.st18{opacity:0.2;}
	.st19{fill:none;stroke:#707584;stroke-linecap:round;stroke-miterlimit:10;}
	.st20{fill:none;stroke:#707584;stroke-linecap:round;stroke-linejoin:round;stroke-miterlimit:10;}
	.st21{fill:none;stroke:#256AAA;stroke-miterlimit:10;}
	.st22{fill:none;stroke:#256AAA;stroke-linecap:round;stroke-linejoin:round;stroke-miterlimit:10;}
	.st23{fill:none;stroke:#707584;stroke-miterlimit:10;}
	.st24{fill:#E3EFFC;stroke:#707584;stroke-miterlimit:10;}
	.st25{fill:none;stroke:#274174;stroke-miterlimit:10;}
	.st26{fill:#256AAA;}
	.st27{fill:none;stroke:#256AAA;stroke-linecap:round;stroke-miterlimit:10;}
	.st28{fill:none;stroke:#274174;stroke-linecap:round;stroke-miterlimit:10;}
	.st29{fill:none;stroke:#256AAA;stroke-width:2;stroke-linecap:round;stroke-miterlimit:10;}
	.st30{fill:none;stroke:#D0D1D7;stroke-linecap:round;stroke-linejoin:round;stroke-miterlimit:10;}
	.st31{fill:none;stroke:#FFFFFF;stroke-miterlimit:10;}
	.st32{fill:#FFFFFF;stroke:#D0D1D7;stroke-width:4;stroke-miterlimit:10;}
	.st33{fill:none;stroke:#D0D1D7;stroke-width:4;stroke-miterlimit:10;}
	.st34{fill:none;stroke:#D0D1D7;stroke-width:2;stroke-miterlimit:10;}
	.st35{fill-rule:evenodd;clip-rule:evenodd;fill:none;stroke:#707584;stroke-linecap:round;stroke-miterlimit:10;}
	.st36{fill:#89664C;}
	.st37{fill:#FFDD67;}
	.st38{fill:#D3976E;}
	.st39{fill:#FED0AC;}
	.st40{fill:#3E4347;}
	.st41{fill:#664E27;}
	.st42{fill:none;stroke:#D0D1D7;stroke-width:6;stroke-miterlimit:10;}
	.st43{opacity:0.9;}
	.st44{fill:#D4D9E3;}
	.st45{fill:#F37120;}
	.st46{fill:#FDE3D2;}
	.st47{fill:#B1B4BD;}
	.st48{fill:#EFF0F2;}
	.st49{fill:none;stroke:#F37120;stroke-width:0.75;stroke-miterlimit:10;}
	.st50{fill:#F2F2F2;}
	.st51{opacity:0.9;fill:none;stroke:#999999;stroke-miterlimit:10;}
	.st52{fill:#999999;}
	.st53{opacity:0.9;fill:none;stroke:#F37120;stroke-miterlimit:10;}
	.st54{opacity:0.9;fill:#F37120;}
	.st55{fill:none;stroke:#F37120;stroke-miterlimit:10;}
	.st56{fill:#F8AA79;}
	.st57{fill:#6B3200;}
	.st58{fill:#F37120;stroke:#FDE3D2;stroke-miterlimit:10;}
	.st59{clip-path:url(#SVGID_6_);}
	.st60{fill:none;stroke:#FDE3D2;stroke-width:2;stroke-miterlimit:10;}
	.st61{fill:none;stroke:#FDE3D2;stroke-width:2;stroke-miterlimit:10;stroke-dasharray:5.0381,5.0381;}
</style>
<g>
	<g class="st43">
		<rect class="st46" width="1149" height="720"/>
	</g>
	<g>
		<rect x="223" y="149.5" class="st53" width="721" height="431"/>
		<rect x="223" y="149.5" class="st53" width="721" height="31.3"/>
		<g>
			<circle class="st45" cx="245.5" cy="166.4" r="5.4"/>
			<circle class="st45" cx="263.1" cy="166.4" r="5.4"/>
			<circle class="st45" cx="280.8" cy="166.4" r="5.4"/>
		</g>
	</g>
	<g>
		<rect x="804.4" y="294.9" class="st45" width="246.5" height="141.5"/>
		<g>
			<g>
				<rect x="821.6" y="310.6" class="st46" width="119" height="13"/>
				<path class="st45" d="M940.1,311.1v12h-118v-12H940.1 M941.1,310.1h-120v14h120V310.1L941.1,310.1z"/>
			</g>
			<g>
				<rect x="821.6" y="334.1" class="st46" width="212" height="86.5"/>
				<path class="st45" d="M1033.1,334.6v85.5h-211v-85.5H1033.1 M1034.1,333.6h-213v87.5h213V333.6L1034.1,333.6z"/>
			</g>
		</g>
	</g>
	<g>
		<path class="st45" d="M342.6,514.4v-11.7h2.7c1.9,0,3.7-0.2,5.3-0.6c1.6-0.4,3.1-1.2,4.5-2.4c1.4-1.2,2.7-2.8,4-4.9
			c1.3-2.1,2.5-4.8,3.8-8.1l47.8-129.7H441l46.1,129.9c1.1,3.1,2.2,5.7,3.4,7.7c1.2,2,2.5,3.7,3.9,4.8c1.4,1.2,2.9,2,4.5,2.5
			c1.6,0.5,3.2,0.8,5,0.8h4v11.7H435v-11.7h8.6c1.1,0,2.2-0.2,3.3-0.5c1.1-0.3,2.2-0.8,3.1-1.5c0.9-0.7,1.6-1.6,2.2-2.6
			c0.6-1.1,0.9-2.4,0.9-3.9c0-1.8-0.2-3.5-0.6-5.2c-0.4-1.7-0.9-3.1-1.3-4.3l-7.8-22.1h-53.6l-6.4,19c-0.6,1.8-1.2,3.9-1.8,6.3
			C-0.6,2.4-0.9,4.5-0.9,6.3c0,1.4,0.3,2.7,0.9,3.8c0.6,1.1,1.3,2,2.3,2.6c0.9,0.7,2,1.2,3.2,1.6c1.2,0.4,2.4,0.5,3.7,0.5h9.3v11.7
			H342.6z M394.4,449.2H439L427.3,413c-0.8-2.5-1.6-5.2-2.4-7.9c-0.8-2.8-1.7-5.6-2.5-8.5c-0.8-2.9-1.6-5.7-2.4-8.6
			C-0.8-2.8-1.4-5.5-2-8.1c-0.6,2.2-1.4,4.7-2.3,7.3c-0.9,2.7-1.8,5.4-2.7,8.2c-1,2.8-1.9,5.6-2.9,8.4c-1,2.8-1.9,5.5-2.7,8.1
			L394.4,449.2z"/>
		<path class="st54" d="M517.3,476.1c0-20.2,6.3-38.9,18.9-56.2c12.6-17.3,28.2-25.9,46.8-25.9c10.5,0,19.5,2.5,27.1,7.5l10.2-5.2
			l7.5,0.6l-15.1,70.7c-3.6,10-5.3,18-5.3,24.1c0,7.4,2.4,11.1,7.2,11.1c4.2,0,9.5-1.9,15.9-5.7l4,6.5
			C-10.6,8.8-20.9,13.1-31.1,13.1c-11.5,0-17.2-6.1-17.2-18.3c0-4.7,0.8-10.4,2.3-17.1L587,481c-10.6,23.7-24.3,35.6-41.3,35.6
			C-9,0-16-3.6-21-10.7C519.8,498.8,517.3,488.9,517.3,476.1z M539.8,477c0,17.1,4.6,25.7,13.9,25.7c7.5,0,15.4-5.4,23.7-16.2
			c8.3-10.8,13.7-22.6,16.4-35.4l7.1-39.2c-3.4-5.7-8.9-8.6-16.7-8.6c-12.6,0-23.1,8-31.6,24.1C544.1,443.5,539.8,460,539.8,477z"/>
	</g>
	<g>
		<g>
			<line class="st55" x1="300" y1="524.4" x2="300" y2="320.1"/>
			<g>
				<polygon class="st45" points="304.1,521.1 303.4,520.4 300,524 296.6,520.4 295.9,521.1 300,525.5 				"/>
			</g>
			<g>
				<polygon class="st45" points="304.1,323.4 303.4,324.1 300,320.5 296.6,324.1 295.9,323.4 300,319 				"/>
			</g>
		</g>
	</g>
	<g>
		<g>
			<line class="st55" x1="322.3" y1="544.3" x2="680.9" y2="544.3"/>
			<g>
				<polygon class="st45" points="325.6,548.3 326.3,547.6 322.7,544.3 326.3,540.9 325.6,540.2 321.3,544.3 				"/>
			</g>
			<g>
				<polygon class="st45" points="677.6,548.3 676.9,547.6 680.5,544.3 676.9,540.9 677.6,540.2 682,544.3 				"/>
			</g>
		</g>
	</g>
	<g>
		<rect x="123.9" y="294.5" class="st45" width="120" height="120"/>
		<g class="st43">
			<g>
				<path class="st46" d="M138.6,378.6v-3.6h0.8c0.6,0,1.2-0.1,1.7-0.2c0.5-0.1,1-0.4,1.4-0.8s0.8-0.9,1.2-1.5
					c0.4-0.6,0.8-1.5,1.2-2.5l14.8-40.2h9.4l14.3,40.3c0.3,1,0.7,1.8,1.1,2.4c0.4,0.6,0.8,1.1,1.2,1.5c0.4,0.4,0.9,0.6,1.4,0.8
					c0.5,0.2,1,0.2,1.5,0.2h1.2v3.6h-22.6v-3.6h2.7c0.3,0,0.7-0.1,1-0.2c0.4-0.1,0.7-0.3,1-0.5c0.3-0.2,0.5-0.5,0.7-0.8
					c0.2-0.3,0.3-0.7,0.3-1.2c0-0.6-0.1-1.1-0.2-1.6c-0.1-0.5-0.3-1-0.4-1.3l-2.4-6.8h-16.6l-2,5.9c-0.2,0.6-0.4,1.2-0.6,2
					C-0.2,0.7-0.3,1.4-0.3,2c0,0.4,0.1,0.8,0.3,1.2c0.2,0.3,0.4,0.6,0.7,0.8c0.3,0.2,0.6,0.4,1,0.5c0.4,0.1,0.8,0.2,1.2,0.2h2.9v3.6
					H138.6z M154.7,358.3h13.8l-3.6-11.2c-0.2-0.8-0.5-1.6-0.8-2.5c-0.3-0.9-0.5-1.7-0.8-2.6c-0.3-0.9-0.5-1.8-0.7-2.7
					C-0.2-0.9-0.4-1.7-0.6-2.5c-0.2,0.7-0.4,1.4-0.7,2.3c-0.3,0.8-0.6,1.7-0.9,2.5s-0.6,1.7-0.9,2.6c-0.3,0.9-0.6,1.7-0.9,2.5
					L154.7,358.3z"/>
			</g>
			<g class="st43">
				<path class="st46" d="M192.8,366.7c0-6.3,2-12.1,5.9-17.4s8.7-8,14.5-8c3.2,0,6.1,0.8,8.4,2.3l3.2-1.6l2.3,0.2l-4.7,21.9
					C-1.1,3.1-1.7,5.6-1.7,7.5c0,2.3,0.7,3.4,2.2,3.4c1.3,0,2.9-0.6,4.9-1.8l1.2,2c-3.3,2.7-6.5,4.1-9.7,4.1c-3.6,0-5.3-1.9-5.3-5.7
					c0-1.4,0.2-3.2,0.7-5.3l-0.4,0c-3.3,7.4-7.5,11-12.8,11c-2.8,0-4.9-1.1-6.5-3.3C193.6,373.7,192.8,370.7,192.8,366.7z
					 M199.8,367c0,5.3,1.4,8,4.3,8c2.3,0,4.8-1.7,7.4-5c2.6-3.4,4.3-7,5.1-11l2.2-12.2c-1-1.8-2.8-2.7-5.2-2.7
					C-3.9,0-7.2,2.5-9.8,7.5C201.1,356.6,199.8,361.7,199.8,367z"/>
			</g>
		</g>
	</g>
	<g>
		<g>
			<rect x="124.4" y="426.6" class="st46" width="119" height="119"/>
			<path class="st45" d="M242.9,427.1v118h-118v-118H242.9 M243.9,426.1h-120v120h120V426.1L243.9,426.1z"/>
		</g>
		<g>
			<path class="st54" d="M175.4,500.6H160l-2.7,9.5h-11.4l15.7-48.6h6v0l0,0h6l15.7,48.6h-11.4L175.4,500.6z M162.5,492h10.3
				l-5.1-17.4h-0.2L162.5,492z"/>
			<path class="st54" d="M214.7,510.1c0-1.4-0.1-2.5-0.1-3.4s0.1-1.8,0.2-2.7c-1.6,1.9-3.6,3.5-6.1,4.8c-2.5,1.3-5.1,1.9-7.9,1.9
				C-3.4,0-6-1-7.7-2.9c-1.7-1.9-2.4-4.4-1.9-7.6c0.5-3.4,2.3-6,5.4-8c3.1-1.9,6.9-2.9,11.5-2.9h8.9l0.7-4.5
				c0.4-2.7-0.1-4.7-1.5-6.2c-1.4-1.4-3.6-2.1-6.6-2.1c-2.7,0-5.1,0.7-7.2,2.1c-2.1,1.4-3.3,3.1-3.6,5.1l-3.6,0l-0.1-0.2
				c0.3-2.8,1.9-5.2,4.8-7.3c2.9-2.1,6.4-3.1,10.4-3.1c3.8,0,6.8,1,9,3.1c2.2,2,3,4.9,2.4,8.7l-2.7,17.8c-0.2,1.3-0.3,2.6-0.4,3.7
				c0,1.2,0,2.4,0.2,3.5H214.7z M201.8,507.3c2.8,0,5.5-0.7,8-2.1c2.5-1.4,4.4-3.2,5.6-5.4l1.1-7.2h-8.9c-3.1,0-5.9,0.8-8.3,2.3
				C-2.4,1.6-3.8,3.4-4.1,5.6c-0.3,2.1,0.1,3.8,1.3,5C197.6,506.6,199.4,507.3,201.8,507.3z"/>
		</g>
	</g>
	<g>
		<path class="st45" d="M995.9,498.7h-13.5l-5.5,15.7h-2.2l5.4-15.7h-10.1l0.3-2.1h10.5l7.1-20.2h-11.1l0.3-2.1h11.6l5.6-16h2.2
			l-5.6,16h13.5l5.6-16h2.2l-5.5,16h9.4l-0.3,2.1h-9.9l-7.1,20.2h10.6l-0.3,2.1h-11l-5.5,15.7h-2.2L995.9,498.7z M983.1,496.6h13.4
			l7.1-20.2h-13.5L983.1,496.6z"/>
	</g>
</g>
</svg>
