<svg id="Layer_1" data-name="Layer 1" xmlns="http://www.w3.org/2000/svg" viewBox="0 0 276.41 253.13"><defs><style>.cls-1{fill:#fff;}.cls-2{fill:#f37224;}.cls-3{fill:#be1e2d;}.cls-4{fill:#dff0f4;}.cls-5{fill:#aecad1;}.cls-6{fill:#931b29;}</style></defs><title>WIRe</title><polygon class="cls-1" points="0 66.99 91.37 253.13 122.4 198.36 57.44 66.99 0 66.99"/><polygon class="cls-1" points="198.99 198.36 134.27 66.99 76.59 66.99 167.96 253.13 198.99 198.36"/><polygon class="cls-2" points="238.25 141.4 202.14 66.99 153.42 66.99 212.56 186.72 238.25 141.4"/><path class="cls-3" d="M253.33,20.55C235,5.38,202.94-2.56,183,.74S143,33.45,143,33.45L262.25,68.62S264.3,29.65,253.33,20.55Z"/><path class="cls-4" d="M254.9,94.56c-.38-6.89-3.06-13.79-5.55-20.11-3.26-8.61-8-17.61-14.75-24.32-4-4-9.19-7.47-14-10.72-3.25-2.3-6.51-4.41-9.76-6.52-2.11-1.34-3.84-3.06-6.32-3.83a41.7,41.7,0,0,0-10.73-1.72l3.45,1c-4.6.38-6.52-4.6-10.35-5,0,.38-.38.76-.19,1.15-2.49.19-4.79-3.07-7.28-2.88a3.67,3.67,0,0,0,.39,1.54c-1.34.38-3.64-.77-5-1.34-.77-.39-3.07-1.92-4-1.54-1.33.39-.19,1.54,0,2.49-2.48.2-5.55-.95-8-1.53-.76-.19-4-1.15-5-.57-2.3,1.91,3.83,3.44,4.22,4.59-2.3.39-7.47-2.29-9-.57,1.15,1,2.69.57,4,1-2.68.38-9.58-.58-10.92,2.87,1.92,1.72,4.79,1,7.09,1.91-2.49,1-5.56,1.15-8.24,1.73-1.72.57-5.17.95-6.7,2.3a4.23,4.23,0,0,0,3.06,1c-2.49,1.15-5.55,1.92-6.32,_temp_598.39.38,1,.19-.19-.19-.38-.38-.38-.57a2,2,0,0,1,1.72.38c-1,2.87-7.47,4.79-7.09,8.43,2.49,0,4.22-1.92,6.52-2.49-1.54,3.25-5.94,5.94-6.52,9.57,1.92.39,3.07-1.72,4.79-1.91.77,3.45-1.34,8.43.39,11.68,1.34-.76,1.72-2.49,2.87-3.44,1,2.1-.77,6.51,1.15,8.23,1.53-1,1.91-2.87,2.87-4.4,2.11.76,2.11,4.21,4,5.17,2.11,1,1.53-2.3,1.34-3.83,2.11,1.34,3.83,4.21,5.75,6.13,1.34,1.14,3.25,3.63,5.17,4,1.53-2.49-.19-6.13,1.34-8.81,1.91.57,3.45,4.4,5.17,5.74,1.34-1.15.19-3.45,0-5,1.91,2.11,2.68,5.37,5.17,7.09,1.34-2.11-.95-5-1.53-7.09,2.1,1.73,4.79,6.9,8.23,5.94.2-1-.57-1.72-.95-2.49,2.68,1.53,4,8,7.85,8,.58-1.72-.19-3.63-.19-5.36,1.53,1.73,2.68,4.41,4.4,5.56,2.68,1.91,2.88-.2,4-1.92,2.1,2.3,2.68,6.32,5.55,8,3.06,2.1,2.68-2.69,2.68-4.6,1,1.91,1.34,4.6,2.87,6.32,1.73-.39,1.15-3.83,1.54-5,1.91,2.3,2.29,6.13,4.59,8,1-1.35.39-3.46.77-5,3.45.58,3.64,6.71,5.17,9,2.3-1.34,2.11-4.21,3.45-5.74,1.15,1.15,1.34,3.06,1.34,4.6,0,.76-.77,3.83-.38,4.59,1.34,2.11,5-1.72,6.51-2.1,1.15,2.29-.19,5.55.19,8,1.53-.19,3.45-2.68,4.79-1.92s.38,5.18.38,6.52c0,1.15-.38,2.68.77,3.06,2.1,1,4.78-3.45,6.12-4.4a6.59,6.59,0,0,1,.39,5.36c1.72,2.68,10-7.28,12.06-6.13C254.14,105.29,255.29,98.4,254.9,94.56Z"/><path class="cls-4" d="M254.9,94.56c-.38-6.89-3.06-13.79-5.55-20.11-3.26-8.61-8-17.61-14.75-24.32-4-4-9.19-7.47-14-10.72-3.25-2.3-6.51-4.41-9.76-6.52-2.11-1.34-3.84-3.06-6.32-3.83a41.7,41.7,0,0,0-10.73-1.72l3.45,1c-4.6.38-6.52-4.6-10.35-5,0,.38-.38.76-.19,1.15-2.49.19-4.79-3.07-7.28-2.88a3.67,3.67,0,0,0,.39,1.54c-1.34.38-3.64-.77-5-1.34-.77-.39-3.07-1.92-4-1.54-1.33.39-.19,1.54,0,2.49-2.48.2-5.55-.95-8-1.53-.76-.19-4-1.15-5-.57-2.3,1.91,3.83,3.44,4.22,4.59-2.3.39-7.47-2.29-9-.57,1.15,1,2.69.57,4,1-2.68.38-9.58-.58-10.92,2.87,1.92,1.72,4.79,1,7.09,1.91-2.49,1-5.56,1.15-8.24,1.73-1.72.57-5.17.95-6.7,2.3a4.23,4.23,0,0,0,3.06,1c-2.49,1.15-5.55,1.92-6.32,_temp_598.39.38,1,.19-.19-.19-.38-.38-.38-.57a2,2,0,0,1,1.72.38c-1,2.87-7.47,4.79-7.09,8.43,2.49,0,4.22-1.92,6.52-2.49-1.54,3.25-5.94,5.94-6.52,9.57,1.92.39,3.07-1.72,4.79-1.91.77,3.45-1.34,8.43.39,11.68,1.34-.76,1.72-2.49,2.87-3.44,1,2.1-.77,6.51,1.15,8.23,1.53-1,1.91-2.87,2.87-4.4,2.11.76,2.11,4.21,4,5.17,2.11,1,1.53-2.3,1.34-3.83,2.11,1.34,3.83,4.21,5.75,6.13,1.34,1.14,3.25,3.63,5.17,4,1.53-2.49-.19-6.13,1.34-8.81,1.91.57,3.45,4.4,5.17,5.74,1.34-1.15.19-3.45,0-5,1.91,2.11,2.68,5.37,5.17,7.09,1.34-2.11-.95-5-1.53-7.09,2.1,1.73,4.79,6.9,8.23,5.94.2-1-.57-1.72-.95-2.49,2.68,1.53,4,8,7.85,8,.58-1.72-.19-3.63-.19-5.36,1.53,1.73,2.68,4.41,4.4,5.56,2.68,1.91,2.88-.2,4-1.92,2.1,2.3,2.68,6.32,5.55,8,3.06,2.1,2.68-2.69,2.68-4.6,1,1.91,1.34,4.6,2.87,6.32,1.73-.39,1.15-3.83,1.54-5,1.91,2.3,2.29,6.13,4.59,8,1-1.35.39-3.46.77-5,3.45.58,3.64,6.71,5.17,9,2.3-1.34,2.11-4.21,3.45-5.74,1.15,1.15,1.34,3.06,1.34,4.6,0,.76-.77,3.83-.38,4.59,1.34,2.11,5-1.72,6.51-2.1,1.15,2.29-.19,5.55.19,8,1.53-.19,3.45-2.68,4.79-1.92s.38,5.18.38,6.52c0,1.15-.38,2.68.77,3.06,2.1,1,4.78-3.45,6.12-4.4a6.59,6.59,0,0,1,.39,5.36c1.72,2.68,10-7.28,12.06-6.13C254.14,105.29,255.29,98.4,254.9,94.56Z"/><path class="cls-1" d="M138.27,34.43a4.23,4.23,0,0,0,3.06,1c-2.49,1.15-5.55,1.92-6.32,_temp_598.39.38,1,.19-.19-.19-.38-.38-.38-.57a2,2,0,0,1,1.72.38,5.4,5.4,0,0,1-1.84,2.25,11.79,11.79,0,0,1,2.3,0c2.41.25,3.83,1.68,4.95,_temp_599.82,1.63,1.24,2.44a3.76,3.76,0,0,0,1.22,1.68c.73.41,1.5-.21,2-.7A21.71,21.71,0,0,0,150,46c.08-.11.29-.15.36,0,1.31,2.76,1.43,6,3.27,8.56a2.54,2.54,0,0,0,2,1.34A2.83,2.83,0,0,0,158,54.44a10.17,10.17,0,0,0,1.16-5,.2.2,0,0,1,.38-.1,37,37,0,0,0,3.34,4.36,56.18,56.18,0,0,0,5.58,5.86c1.42,1.27,3.61,3.38,5.69,3.28,1.74-.08,2.4-2.16,2-3.62a15.71,15.71,0,0,0-2-_temp_600,0,0,1,.23-.3,41.21,41.21,0,0,1,4.26,1.59c2.27.87,4.56,1.73,6.89,2.44a30,30,0,0,0,3.1.79,4.68,4.68,0,0,0,2.23.07c1.43-.51.56-2.95,0-3.79l-.08-.12a16.39,16.39,0,0,1-3.31-3.13c-.13-.17,0-.46.25-.33a12.12,12.12,0,0,1,3.5,3.3,28.1,28.1,0,0,0,11,4.53,21.19,21.19,0,0,0,4.28.41,14.19,14.19,0,0,0,2.16-.17c.79-.14.88-.32.77-1.15-.41-3.16-3.57-4.85-6.14-6.14-.18-.09-.1-.42.11-.39,2.06.26,4.14.5,6.23.58a13.68,13.68,0,0,0,4.47-.29c3.7-1.18-3.65-5.92-4.57-6.55-.14-.09-.15-.35,0-.38,2.11-.35,4.24-.57,6.36-.93,3-.51,5.84-1.45,7.86-3.42-1.06-.74-2.12-1.46-3.17-2.16-3.25-2.3-6.51-4.41-9.76-6.52-2.11-1.34-3.84-3.06-6.32-3.83a41.7,41.7,0,0,0-10.73-1.72l3.45,1c-4.6.38-6.52-4.6-10.35-5,0,.38-.38.76-.19,1.15-2.49.19-4.79-3.07-7.28-2.88a3.67,3.67,0,0,0,.39,1.54c-1.34.38-3.64-.77-5-1.34-.77-.39-3.07-1.92-4-1.54-1.33.39-.19,1.54,0,2.49-2.48.2-5.55-.95-8-1.53-.76-.19-4-1.15-5-.57-2.3,1.91,3.83,3.44,4.22,4.59-2.3.39-7.47-2.29-9-.57,1.15,1,2.69.57,4,1-2.68.38-9.58-.58-10.92,2.87,1.92,1.72,4.79,1,7.09,1.91-2.49,1-5.56,1.15-8.24,1.73C143.25,32.7,139.8,33.08,138.27,34.43Z"/><path class="cls-5" d="M254.9,94.56c-.38-6.89-3.06-13.79-5.55-20.11-3.26-8.61-8-17.61-14.75-24.32A75.67,75.67,0,0,0,224,41.71a14.3,14._temp_599,1.25,3.23c.8,1.38,3.65,4.33,3,6.16-.52,1.51-2.1,1.86-3.6,2,2.36,3.4,7.36,9.43,1.41,10C227.5,66.6,232.63,73,229.61,76c-2.7,2.64-7.6-1-10.81-2.67.75,2.4,2.49,6.6-.68,6.67-3.94.08-6.89-3.71-10.44-5.06a13.3,13.3,0,0,1-1,4,.77.77,0,0,1-.87.35c-3.13-.68-4.32-3.48-6.22-5.68a8.53,8.53,0,0,1-1,_temp_601,0,0,1-1,.28c-3.88-1.87-6.21-5.63-9.6-8a8.67,8.67,0,0,1,.6,_temp_602,0,0,1-1,.74c-4.17-1.52-6.64-5.43-10.41-7.56-.63,4.51-5.21,1.12-8.12-.87a12.74,12.74,0,0,1-.45,2,.77.77,0,0,1-.94.54c-2.2-.83-3.78-2.33-5.51-_temp_603.27,1.76.35,2.65a.77.77,0,0,1-1.15.66c-2.55-1.67-4.05-4.38-6.38-6.24a25,25,0,0,1-1.12,4.63c-.16.41-.69.78-1.12.46-2.32-1.74-3.68-4.12-5.48-6.3a17.23,17.23,0,0,1-1.83,_temp_604,0,0,1-1.28-.34c-.83-2.42-.75-5-1.78-7.37-1.06,1-2.09,2-3.07,3.11a.76.76,0,0,1-1.3-.54c0-2.74,1.06-5.47.72-8.19-1.78.55-3.49,1.27-5.22,2-1.53,1.69-3,3.42-3.36,5.44,1.92.39,3.07-1.72,4.79-1.91.77,3.45-1.34,8.43.39,11.68,1.34-.76,1.72-2.49,2.87-3.44,1,2.1-.77,6.51,1.15,8.23,1.53-1,1.91-2.87,2.87-4.4,2.11.76,2.11,4.21,4,5.17,2.11,1,1.53-2.3,1.34-3.83,2.11,1.34,3.83,4.21,5.75,6.13,1.34,1.14,3.25,3.63,5.17,4,1.53-2.49-.19-6.13,1.34-8.81,1.91.57,3.45,4.4,5.17,5.74,1.34-1.15.19-3.45,0-5,1.91,2.11,2.68,5.37,5.17,7.09,1.34-2.11-.95-5-1.53-7.09,2.1,1.73,4.79,6.9,8.23,5.94.2-1-.57-1.72-.95-2.49,2.68,1.53,4,8,7.85,8,.58-1.72-.19-3.63-.19-5.36,1.53,1.73,2.68,4.41,4.4,5.56,2.68,1.91,2.88-.2,4-1.92,2.1,2.3,2.68,6.32,5.55,8,3.06,2.1,2.68-2.69,2.68-4.6,1,1.91,1.34,4.6,2.87,6.32,1.73-.39,1.15-3.83,1.54-5,1.91,2.3,2.29,6.13,4.59,8,1-1.35.39-3.46.77-5,3.45.58,3.64,6.71,5.17,9,2.3-1.34,2.11-4.21,3.45-5.74,1.15,1.15,1.34,3.06,1.34,4.6,0,.76-.77,3.83-.38,4.59,1.34,2.11,5-1.72,6.51-2.1,1.15,2.29-.19,5.55.19,8,1.53-.19,3.45-2.68,4.79-1.92s.38,5.18.38,6.52c0,1.15-.38,2.68.77,3.06,2.1,1,4.78-3.45,6.12-4.4a6.59,6.59,0,0,1,.39,5.36c1.72,2.68,10-7.28,12.06-6.13C254.14,105.29,255.29,98.4,254.9,94.56Z"/><path class="cls-3" d="M268.39,69.23c2-19.17-8.76-41.82-12.09-46.41s-9.15-8.45-15.55-10.2S229.54,10,224.54,8.19,218.41,3.77,215,2.83s-22.81-.42-27.43,3.06c-1.71,1.29-5.81,4.18-4.81,6.56l25.35,22.28c2.84,4.44,16.14,17.41,19.54,24.13,5.67,11.18,14,34.26,13.18,49.15a214,214,0,0,0,1,31.46l6.77.32s5.84-12.93,7.69-19.75S266.36,88.39,268.39,69.23Z"/><path class="cls-6" d="M268.39,69.23c2-19.17-8.76-41.82-12.09-46.41s-9.15-8.45-15.55-10.2c-3.36-.92-6.27-1.59-9-2.29a5.57,5.57,0,0,0-.51,2.34,11.86,11.86,0,0,0,3.22,7.75c3.27,3.94,7.21,7.54,9.35,12.28.81,1.81,1.61,4.25.54,6.14-.54.95-1.46,2.19-2.7,1.9-3.36-.76-6.55-3.21-9.53-4.85-2.11-1.18-4.56-2.82-7-3.18-2.72-.41,1.52,5.54,2,6.2,6.53,9.57,14.17,18.56,19.25,29,4,8.2,7.7,19.19,3.53,28.06-1.58,3.35-5,7-9.14,5.62a47.66,47.66,0,0,1,.13,6.38,214,214,0,0,0,1,31.46l6.77.32s5.84-12.93,7.69-19.75S266.36,88.39,268.39,69.23Z"/><path class="cls-4" d="M270.72,161.37c1-1.39,2.78-2.09,3.71-3.71a5.87,5.87,0,0,0,.69-2.43c-.69-.12-1.62.46-2.2,0,.58-1.63,2.43-2.55,3-4.29.24-.93.7-2.43.35-3.36-1.85-.35-3.82,1.51-5.56,1.39.23-1.16,1-2,1.27-3.13a12.11,12.11,0,0,0,0-5.8c-.69-2.66-1-1.62-2.55-.34.47-1.74,1.51-5.33,0-6.84-1.27.58-2.2,2.32-3,3.36-.46-.92-.11-2.31-.34-3.36s-.93-4.63-2.32-5.09-2,2.89-3,3.59c-.23-.7-.34-1.39-.57-2.09a10.82,10.82,0,0,0-3-4.17,4.76,4.76,0,0,0-3-1.74,5,5,0,0,0-.47,2.9c-.69-.12-1.62-1.39-2.31-1.86a12.72,12.72,0,0,0-3.94-1.5c-.58.57.46,1.74.69,2.43-2.55-1.16-5.79-2.9-8.69-2.2-2.66.58,2.2,3.24,2.9,4.17-1.74-.11-3.48-1.62-5-2.32-1-.34-3.83-1.62-4.87-.81s.23,1.28.81,2.2a13.84,13.84,0,0,1,1.39,3.25c-.58-.47-6.6-5.22-7.07-3.71,0,.12,1.39,2.2,1.51,2.43a14.06,14.06,0,0,1,1.27,2.67l-.81-1.39c-1.5-.12-3-.7-4.4,0,1.39.81,3.36.35,4.86,1.16-2.08.46-6.14-.58-7.53,_temp_605,2.55.46,3,1.15-1.63.7-4.76,1.16-5.45,_temp_606,1.85.34,2.9.46-2.32,1.16-4.64,1.62-6.14,3.94,1.27.81,5.21-1.39,3.93,1.27-.69,1.39-1.5,2.78-2.2,4.17-.34.7-1.27,1.74-1.16,2.44,1.86,0,3.94-1.16,5.45-2a13.3,13._temp_599-4.05,4.4c-.7,1.16-1.28,2.43-2,3.59a4.2,4.2,0,0,0-1.17,2.09c1.86.81,3.83-.81,5.57-1.16-.35.93-.93,1.74-1.39,2.67-.81,1.62-1.39,3.36-2.09,5.09-.35.7-1.62,2.44-.11,2.44a7,7,0,0,0,3.12-1.74c-.23,1.39-1.15,2.78-1.39,4.29-.23,1.16-.34,2.43-.46,3.71.23-.82,1.39-3.48,2.67-_temp_607,1,2.43,1.16,3s.34,1.39.92,1.74c.81-.81.35-3,1.39-3.37,1,.58,1.39,3.37,1.86,4.41.58,1.27,1.39,3.94,2.66,4.64.23-1.39-.34-3-.11-4.29,1.15.7,2,2.43,3,3.36a13.38,13.38,0,0,0,2.66,2.43c.12-1-1.73-5.56.58-4.52,1.39.7,2.43,2.21,3.36,_temp_608,1.16,1.74,2.21,1.86.11-1.05-1.16-2.09-1-3.25,1.63-.34,4.41,1.39,5.91,2s4.52,2.09,6.26,1.62c-.23-1.27-2.09-1.62-2.66-2.66a5.79,5.79,0,0,1,2.31.58,39.87,39.87,0,0,0,5.33,1c.58,0,3.25.7,3.83,0,.69-.92-3-3.47-3.37-4.4a8.14,8.14,0,0,1,3.37,0c.58,0,3.13.23,3.59-.47,1-1.62-4.52-3.12-5.56-3.7,2.31-1,5.1-.93,7.53-2,1-.46,4.4-1.85,4.52-3.35-1-.35-2.09.11-3.13-.12.58-1,3.25-1.51,4.17-2,.7-.23,3.59-1.16,3.71-2.32C276.17,160.9,271.76,162.06,270.72,161.37Z"/><path class="cls-1" d="M258.61,141.63a.21.21,0,0,1-.26-.2c.12-2.26,1-4.69.23-6.92-.14-.42-.55-1.92-1.31-1.66a2,2,0,0,0-.85.6,14.24,14.24,0,0,0-1.41,2,.21.21,0,0,1-.36-.21c1.09-2.54-4.43-6.62-5.69-3.72-.08.18-.33.1-.38-.05a8.77,8.77,0,0,0-1.62-2.87c-.15-.17-.44-.55-.7-.52-.52.07-.44,1.12-.26,1.37a11.74,11.74,0,0,0,1.72,1.41c.2.18-.1.48-.3.3l-.19-.16a.33.33,0,0,1-.17,0,12.89,12.89,0,0,0-4.9-1.44,3.26,3.26,0,0,0-1.28.13c-.38.15-.8.2-.29.5q.27.17.54.3c1.06.47,2.2.7,3.27,1.14a.2.2,0,0,1-.05.4c-1.86.11-3.69-.38-5.54-.31a6,6,0,0,0-1.63.24c-.4.13-1.65.46-.87.9a7.71,7.71,0,0,0,2.45.68c._temp_610-.06.41a24.2,24.2,0,0,0-5.29.76c-1.72.45-3.73,1.09-4.8,2.6,1.17.72,2.62.5,3.94.66a.21.21,0,0,1,.06.41c-1.56.48-3.58,1.08-4.66,2.39-1.95,2.38,2.41,2.25,3.7,2.34a.21.21,0,0,1,.17.31c-.88,1.7-1.83,3.73-1.62,5.71.11,1,.53,1.79,1.64,1.55.63-.13,1.25-.34,1.87-.51a.21.21,0,0,1,.25.26,34.07,34.07,0,0,0-1.74,4.42,3.28,3.28,0,0,0,.69,3.18c1,.89,1.75-.4,2.29-1.11a.21.21,0,0,1,.38.05,10.21,10.21,0,0,1,.43,2.86,17.13,17.13,0,0,0,.63,4c.16.45.44,1.19,1.05,1.13s1.12-.95,1.34-1.54a18.15,18.15,0,0,0,.78-3,.22.22,0,0,1,.31-.13c1.39.83,2.76,2,4.35,2.39,1.3.35,2.33-.38,2-1.81a18.21,18.21,0,0,0-.8-_temp_611,0,0,1,.14-.25c1.67-.27,3.45.32,5.11.5a6.75,6.75,0,0,0,2.83-.1c1.61-.56,1.46-2.34.18-3.25a.22.22,0,0,1,0-.33c1-.93,5.66-4.61,2.52-5.29a.21.21,0,0,1-.1-.35c1.27-1.32,2.87-2.52,3.68-4.2a5,5,0,0,0,.59-3.2C260.31,141.15,259.29,141.46,258.61,141.63Z"/><path class="cls-5" d="M270.72,161.37c1-1.39,2.78-2.09,3.71-3.71a5.87,5.87,0,0,0,.69-2.43c-.69-.12-1.62.46-2.2,0,.58-1.63,2.43-2.55,3-4.29.24-.93.7-2.43.35-3.36-1.85-.35-3.82,1.51-5.56,1.39.23-1.16,1-2,1.27-3.13a12.11,12.11,0,0,0,0-5.8c-.69-2.66-1-1.62-2.55-.34.47-1.74,1.51-5.33,0-6.84-1.27.58-2.2,2.32-3,3.36-.46-.92-.11-2.31-.34-3.36s-.93-4.63-2.32-5.09-2,2.89-3,3.59c-.23-.7-.34-1.39-.57-2.09a10.82,10.82,0,0,0-3-4.17,4.76,4.76,0,0,0-3-1.74,5,5,0,0,0-.47,2.9c-.69-.12-1.62-1.39-2.31-1.86a12.72,12.72,0,0,0-3.94-1.5c-.58.57.46,1.74.69,2.43-1.92-.87-4.23-2.07-6.5-2.31,3.31,1.09,6.46,2.62,8.64,5.29a.78.78,0,0,1,.85-.36,13.11,13.11,0,0,1,7.36,_temp_612,0,0,1,0-.07c.06-.51.62-1,1.15-.66,3,2.16,2.53,5.66,2.22,8.95.63-.27,1.27-.53,1.88-.84a.78.78,0,0,1,1.15.66c.3,2.46-.51,4.56-1.08,6.83a8,8,0,0,0,1.28-1,.78.78,0,0,1,1.31.55c.5,3.84-2.24,6.28-3.35,9.62,1.07-.1,2.11-.35,3.19-.51.5-.08,_temp_613.94-1,2.54-3.26,3.44-5.19,5.05a24.69,24.69,0,0,1,4.14,_temp_614,0,0,1,.16,1.2c-3,2.3-6.55,1.46-9.95,2.16a5.83,5.83,0,0,1,2.06,3.67c.05.45-.39.73-.76.77a56.82,56.82,0,0,1-7.72-.07c.56.58,1.13,1.15,1.65,1.78a.77.77,0,0,1-.15,1.2c-2.53,1.16-5.51-.7-8-2a6.71,6.71,0,0,1,.41,_temp_615,0,0,1-1,.74c-4.24-.68-7.24-3.93-10.24-6.79a16.57,16.57,0,0,0-.26,2,.77.77,0,0,1-1.43.38c-1.62-2.32-2-5.2-3.23-7.66-.08.21-.14.43-.24.64-.24.61-1.36.85-1.47,0a12.76,12.76,0,0,1,.41-5.17c.34-1.33,1-4.31-1-3.94a7.4,7.4,0,0,1-_temp_616.78,0,0,1-.67-1.15c.78-1.73,2.17-3,3-4.68-1.45,0-3,.81-4.36,1.06-.61.11-1.27-.52-.87-1.13,1.73-2.62,4.06-4.68,6.05-7.07-2.23.18-4.43.53-6.65.76-.51,1-1,1.92-1.52,2.87-.34.7-1.27,1.74-1.16,2.44,1.86,0,3.94-1.16,5.45-2a13.3,13._temp_599-4.05,4.4c-.7,1.16-1.28,2.43-2,3.59a4.2,4.2,0,0,0-1.17,2.09c1.86.81,3.83-.81,5.57-1.16-.35.93-.93,1.74-1.39,2.67-.81,1.62-1.39,3.36-2.09,5.09-.35.7-1.62,2.44-.11,2.44a7,7,0,0,0,3.12-1.74c-.23,1.39-1.15,2.78-1.39,4.29-.23,1.16-.34,2.43-.46,3.71.23-.82,1.39-3.48,2.67-_temp_607,1,2.43,1.16,3s.34,1.39.92,1.74c.81-.81.35-3,1.39-3.37,1,.58,1.39,3.37,1.86,4.41.58,1.27,1.39,3.94,2.66,4.64.23-1.39-.34-3-.11-4.29,1.15.7,2,2.43,3,3.36a13.38,13.38,0,0,0,2.66,2.43c.12-1-1.73-5.56.58-4.52,1.39.7,2.43,2.21,3.36,_temp_608,1.16,1.74,2.21,1.86.11-1.05-1.16-2.09-1-3.25,1.63-.34,4.41,1.39,5.91,2s4.52,2.09,6.26,1.62c-.23-1.27-2.09-1.62-2.66-2.66a5.79,5.79,0,0,1,2.31.58,39.87,39.87,0,0,0,5.33,1c.58,0,3.25.7,3.83,0,.69-.92-3-3.47-3.37-4.4a8.14,8.14,0,0,1,3.37,0c.58,0,3.13.23,3.59-.47,1-1.62-4.52-3.12-5.56-3.7,2.31-1,5.1-.93,7.53-2,1-.46,4.4-1.85,4.52-3.35-1-.35-2.09.11-3.13-.12.58-1,3.25-1.51,4.17-2,.7-.23,3.59-1.16,3.71-2.32C276.17,160.9,271.76,162.06,270.72,161.37Z"/></svg>