<?xml version="1.0" encoding="utf-8"?>
<!-- Generator: Adobe Illustrator 22.1.0, SVG Export Plug-In . SVG Version: 6.00 Build 0)  -->
<svg version="1.1" id="Layer_1" xmlns="http://www.w3.org/2000/svg" xmlns:xlink="http://www.w3.org/1999/xlink" x="0px" y="0px"
	 viewBox="0 0 22.4 22.6" style="enable-background:new 0 0 22.4 22.6;" xml:space="preserve">
<style type="text/css">
	.st0{fill:none;stroke:#FFFFFF;stroke-miterlimit:10;}
</style>
<g>
	<path class="st0" d="M1.6,21c-1.1-1.1-1.5-3.4-0.4-4.5l9.1-8.6c-0.5-2,0-4.2,1.5-5.7c1.4-1.4,3.5-2,5.5-1.6l0.5,0.1L14,4.5l0.8,3
		l3,0.8l3.8-3.8l0.1,0.5c0.4,2-0.1,4-1.6,5.5c-1.5,1.5-3.6,2.1-5.7,1.5l-8.4,9.3C4.9,22.5,2.7,22.1,1.6,21L1.6,21z"/>
	<path class="st0" d="M5.1,17.5c-0.5-0.5-1.3-0.5-1.8,0c-0.5,0.5-0.5,1.3,0,1.8c0.5,0.5,1.3,0.5,1.8,0C5.6,18.8,5.6,18,5.1,17.5
		L5.1,17.5z"/>
</g>
</svg>
