<?xml version="1.0" encoding="utf-8"?>
<!-- Generator: Adobe Illustrator 25.3.1, SVG Export Plug-In . SVG Version: 6.00 Build 0) -->
<svg version="1.1" id="Layer_1" xmlns="http://www.w3.org/2000/svg" xmlns:xlink="http://www.w3.org/1999/xlink" x="0px" y="0px"
  viewbox="0 0 570 144" style="enable-background:new 0 0 570 144;" xml:space="preserve">
<style type="text/css">
  .st0{fill:url(#SVGID_1_);}
  .st1{fill:url(#SVGID_2_);}
  .st2{fill:#EDAC00;}
  .st3{fill:url(#SVGID_3_);}
  .st4{fill:#FFFFFF;}
  .st5{fill:#AFAFAF;}
</style>
<g>
  <g id="Eclipse_3_1_">
    <g>
      <g>
        <g>
          <g>

            <linearGradient id="SVGID_1_" gradientUnits="userSpaceOnUse" x1="80.8" y1="7343.9683" x2="80.8" y2="7242.2891" gradientTransform="matrix(1 0 0 1 0 -7232)">
              <stop offset="0" style="stop-color:#0071BC"/>
              <stop offset="0.7" style="stop-color:#63DFFF"/>
            </linearGradient>
            <path class="st0" d="M128.1,70.1c0,11.9-4.3,22.8-11.4,31.3c-7.5,9.4-18.7,15.7-31.3,17h-0.1l0,0c-1.4,0.1-2.9,0.2-4.3,0.2
              c-25.4-0.1-46-20.6-46-46s20.5-45.9,45.9-45.9c12.3,0,23.4,4.8,31.7,12.7l1.3-2.3c-8.6-8.2-20.3-13.2-33.1-13.2
              c-26.6,0-48.1,21.5-48.1,48.1s21.5,48.1,48.1,48.1s48.1-21.5,48.1-48.1c0-6.7-1.3-13-3.8-18.7C127,58.5,128.1,64.2,128.1,70.1
              z"/>
          </g>
        </g>
      </g>

        <radialGradient id="SVGID_2_" cx="117.75" cy="7273.25" r="16.4232" gradientTransform="matrix(1 0 0 1 0 -7232)" gradientUnits="userSpaceOnUse">
          <stop offset="0" style="stop-color:#EDAC00"/>
          <stop offset="1" style="stop-color:#EFD055;stop-opacity:0"/>
        </radialGradient>
        <path class="st1" d="M108.3,27.8c7.4-5.2,17.7-3.4,22.9,4s3.4,17.7-4,22.9c-7.4,5.2-17.7,3.4-22.9-4
          C99.1,43.2,100.9,33,108.3,27.8z"/>
        <g>
          <g>
            <path class="st2" d="M113.4,35c3.4-2.4,8.1-1.6,10.5,1.9c2.4,3.4,1.6,8.1-1.9,10.5c-3.4,2.4-8.1,1.6-10.5-1.9
              C109.2,42.2,110,37.4,113.4,35z"/>
          </g>
        </g>
        <g>
          <g>

            <radialGradient id="SVGID_3_" cx="117.7632" cy="7273.2539" r="1.8913" gradientTransform="matrix(1 0 0 1 0 -7232)" gradientUnits="userSpaceOnUse">
              <stop offset="0" style="stop-color:#FFFFFF;stop-opacity:0"/>
              <stop offset="0.1413" style="stop-color:#FFFFFF;stop-opacity:1.062143e-06"/>
              <stop offset="1" style="stop-color:#FFFFFF;stop-opacity:7.514814e-06"/>
            </radialGradient>
            <path class="st3" d="M116.7,39.7c0.9-0.6,2-0.4,2.6,0.5s0.4,2-0.5,2.6s-2,0.4-2.6-0.5C115.6,41.5,115.8,40.3,116.7,39.7z"/>
          </g>
        </g>
      </g>
    </g>
    <g>
      <path class="st4" d="M204.5,81.5h-38.2c-0.3,0-0.5,0.2-0.5,0.5v29.2c0,0.3,0.1,0.5,0.5,0.5h38.2v8.7h-38.2c-2.5,0-4.7-0.9-6.5-2.7
        s-2.7-3.9-2.7-6.5V81.9c0-2.6,0.9-4.7,2.7-6.5s4-2.7,6.5-2.7h38.2V81.5z"/>
      <path class="st4" d="M252.3,111.1V72.8h8.8v38.3c0,2.6-0.9,4.7-2.7,6.5c-1.8,1.8-4,2.7-6.5,2.7h-29.2c-2.5,0-4.7-0.9-6.5-2.7
        s-2.7-3.9-2.7-6.5V72.8h8.7v38.3c0,0.3,0.1,0.5,0.5,0.5h29.2C252.2,111.6,252.3,111.4,252.3,111.1z"/>
      <path class="st4" d="M317.9,82v12.8c0,2.5-0.9,4.7-2.7,6.5c-1.8,1.8-4,2.7-6.5,2.7h-2.6l11.8,14.1v2.2h-9.5L294.7,104h-15.4h-0.2
        v16.3h-8.7V72.8h38.3c2.5,0,4.7,0.9,6.5,2.7C317,77.3,317.9,79.5,317.9,82z M279.6,95.3h29.1c0.3,0,0.5-0.2,0.5-0.5V82
        c0-0.3-0.2-0.5-0.5-0.5h-29.1c-0.3,0-0.5,0.2-0.5,0.5v12.8C279.1,95.1,279.3,95.3,279.6,95.3z"/>
      <path class="st4" d="M374.6,82v12.8c0,2.5-0.9,4.7-2.7,6.5c-1.8,1.8-4,2.7-6.5,2.7h-2.6l11.8,14.1v2.2h-9.5L351.3,104h-15.4h-0.2
        v16.3H327V72.8h38.3c2.5,0,4.7,0.9,6.5,2.7C373.7,77.3,374.6,79.5,374.6,82z M336.2,95.3h29.1c0.3,0,0.5-0.2,0.5-0.5V82
        c0-0.3-0.2-0.5-0.5-0.5h-29.1c-0.3,0-0.5,0.2-0.5,0.5v12.8C335.7,95.1,335.9,95.3,336.2,95.3z"/>
      <path class="st4" d="M427.4,72.8v8.7h-34.9v10.7h28.1v8.7h-28.1v10.7h34.9v8.7h-43.7V72.8H427.4z"/>
      <path class="st4" d="M475.2,107.6V72.8h8.8v47.5h-9.5l-29.3-34.8v34.8h-8.7V72.8h9.5L475.2,107.6z"/>
      <path class="st4" d="M492.1,72.8h47.5v8.7h-19.3v38.8h-8.8V81.5h-19.4V72.8L492.1,72.8z"/>
    </g>
    <g>
      <path class="st5" d="M186.5,50.3V23.9h6.7v36H186l-22.2-26.4v26.4h-6.6v-36h7.2L186.5,50.3z"/>
      <path class="st5" d="M236.2,30.5h-29c-0.2,0-0.3,0.1-0.3,0.3v22.1c0,0.2,0.1,0.3,0.3,0.3h28.9v6.6h-28.9c-1.9,0-3.6-0.7-4.9-2
        c-1.3-1.3-2-3-2-4.9V30.8c0-1.9,0.7-3.6,2-4.9s3-2,4.9-2h28.9L236.2,30.5L236.2,30.5z"/>
      <path class="st5" d="M242.2,23.9h36v6.6h-14.7v29.4h-6.7V30.5h-14.7L242.2,23.9L242.2,23.9z"/>
      <path class="st5" d="M320.3,30.5h-28.9c-0.2,0-0.3,0.1-0.3,0.3v22.1c0,0.2,0.1,0.3,0.3,0.3h28.9v6.6h-28.9c-1.9,0-3.6-0.7-4.9-2
        s-2-3-2-4.9V30.8c0-1.9,0.7-3.6,2-4.9s3-2,4.9-2h28.9V30.5z"/>
    </g>
  </g>
  </svg>      
